G04 #@! TF.GenerationSoftware,KiCad,Pcbnew,(5.1.0)-1*
G04 #@! TF.CreationDate,2019-11-17T18:32:19+09:00*
G04 #@! TF.ProjectId,PakeOtiKun,50616b65-4f74-4694-9b75-6e2e6b696361,1*
G04 #@! TF.SameCoordinates,Original*
G04 #@! TF.FileFunction,Copper,L2,Bot*
G04 #@! TF.FilePolarity,Positive*
%FSLAX46Y46*%
G04 Gerber Fmt 4.6, Leading zero omitted, Abs format (unit mm)*
G04 Created by KiCad (PCBNEW (5.1.0)-1) date 2019-11-17 18:32:19*
%MOMM*%
%LPD*%
G04 APERTURE LIST*
%ADD10R,1.700000X1.700000*%
%ADD11O,1.700000X1.700000*%
%ADD12C,0.250000*%
G04 APERTURE END LIST*
D10*
X109245400Y-95732600D03*
D11*
X106705400Y-95732600D03*
X109245400Y-98272600D03*
X106705400Y-98272600D03*
X109245400Y-100812600D03*
X106705400Y-100812600D03*
D10*
X167487600Y-91541600D03*
D11*
X164947600Y-91541600D03*
X162407600Y-91541600D03*
X159867600Y-91541600D03*
X157327600Y-91541600D03*
D10*
X152476200Y-88112600D03*
D11*
X152476200Y-90652600D03*
X152476200Y-93192600D03*
X152476200Y-95732600D03*
X152476200Y-98272600D03*
X152476200Y-100812600D03*
X152476200Y-103352600D03*
X106705400Y-117043200D03*
X109245400Y-117043200D03*
X106705400Y-114503200D03*
X109245400Y-114503200D03*
X106705400Y-111963200D03*
D10*
X109245400Y-111963200D03*
X117805200Y-121742200D03*
D11*
X117805200Y-124282200D03*
X120345200Y-121742200D03*
X120345200Y-124282200D03*
X122885200Y-121742200D03*
X122885200Y-124282200D03*
X135280400Y-124155200D03*
X135280400Y-121615200D03*
X132740400Y-124155200D03*
X132740400Y-121615200D03*
X130200400Y-124155200D03*
D10*
X130200400Y-121615200D03*
X143205200Y-121742200D03*
D11*
X143205200Y-124282200D03*
X145745200Y-121742200D03*
X145745200Y-124282200D03*
X148285200Y-121742200D03*
X148285200Y-124282200D03*
X160909000Y-124282200D03*
X160909000Y-121742200D03*
X158369000Y-124282200D03*
X158369000Y-121742200D03*
X155829000Y-124282200D03*
D10*
X155829000Y-121742200D03*
D11*
X106578400Y-85242400D03*
X109118400Y-85242400D03*
X106578400Y-82702400D03*
X109118400Y-82702400D03*
X106578400Y-80162400D03*
D10*
X109118400Y-80162400D03*
X166801800Y-81026000D03*
D11*
X166801800Y-83566000D03*
X162763200Y-83566000D03*
D10*
X162763200Y-81026000D03*
D11*
X117983000Y-73177400D03*
X115443000Y-75717400D03*
X130683000Y-75717400D03*
X130683000Y-73177400D03*
X115443000Y-73177400D03*
X117983000Y-75717400D03*
X112903000Y-73177400D03*
D10*
X112903000Y-75717400D03*
D11*
X140843000Y-75717400D03*
X140843000Y-73177400D03*
X125603000Y-75717400D03*
X125603000Y-73177400D03*
X145923000Y-75717400D03*
X145923000Y-73177400D03*
X128143000Y-75717400D03*
X128143000Y-73177400D03*
X123063000Y-75717400D03*
X123063000Y-73177400D03*
X135763000Y-75717400D03*
X135763000Y-73177400D03*
X158623000Y-75717400D03*
X158623000Y-73177400D03*
X153543000Y-75717400D03*
X153543000Y-73177400D03*
X156083000Y-75717400D03*
X156083000Y-73177400D03*
X133223000Y-75717400D03*
X133223000Y-73177400D03*
X151003000Y-75717400D03*
X151003000Y-73177400D03*
X120523000Y-75717400D03*
X120523000Y-73177400D03*
X148463000Y-75717400D03*
X148463000Y-73177400D03*
X138303000Y-75717400D03*
X138303000Y-73177400D03*
X143383000Y-75717400D03*
X143383000Y-73177400D03*
X161163000Y-75717400D03*
X161163000Y-73177400D03*
D10*
X159791400Y-101955600D03*
D11*
X159791400Y-104495600D03*
X159791400Y-107035600D03*
X167411400Y-104495600D03*
D10*
X167411400Y-101955600D03*
D11*
X167411400Y-107035600D03*
X121564400Y-86410800D03*
X121564400Y-99110800D03*
D10*
X121564400Y-83870800D03*
D11*
X121564400Y-94030800D03*
X121564400Y-96570800D03*
X121564400Y-101650800D03*
X121564400Y-88950800D03*
X121564400Y-91490800D03*
X113944400Y-101650800D03*
X113944400Y-99110800D03*
X113944400Y-96570800D03*
X113944400Y-94030800D03*
X113944400Y-91490800D03*
X113944400Y-88950800D03*
X113944400Y-86410800D03*
D10*
X113944400Y-83870800D03*
D12*
X162763200Y-81026000D02*
X162763200Y-79857600D01*
X156932999Y-74027399D02*
X156083000Y-73177400D01*
X157258001Y-74352401D02*
X156932999Y-74027399D01*
X159161591Y-74352401D02*
X157258001Y-74352401D01*
X159798001Y-74988811D02*
X159161591Y-74352401D01*
X159798001Y-76960801D02*
X159798001Y-74988811D01*
X162763200Y-79926000D02*
X159798001Y-76960801D01*
X162763200Y-81026000D02*
X162763200Y-79926000D01*
X141692999Y-74027399D02*
X140843000Y-73177400D01*
X142018001Y-74352401D02*
X141692999Y-74027399D01*
X142018001Y-90354401D02*
X142018001Y-74352401D01*
X152476200Y-100812600D02*
X142018001Y-90354401D01*
X112776000Y-80162400D02*
X109118400Y-80162400D01*
X121564400Y-88950800D02*
X112776000Y-80162400D01*
X126452999Y-74027399D02*
X125603000Y-73177400D01*
X126778001Y-74352401D02*
X126452999Y-74027399D01*
X126778001Y-93897199D02*
X126778001Y-74352401D01*
X121564400Y-99110800D02*
X126778001Y-93897199D01*
X167411400Y-107035600D02*
X163772599Y-103396799D01*
X148463000Y-75717400D02*
X159969200Y-87223600D01*
X159969200Y-87223600D02*
X161620200Y-87223600D01*
X163772599Y-89375999D02*
X163772599Y-103396799D01*
X161620200Y-87223600D02*
X163772599Y-89375999D01*
X110236000Y-82702400D02*
X109118400Y-82702400D01*
X113944400Y-86410800D02*
X110236000Y-82702400D01*
X110095399Y-97422601D02*
X109245400Y-98272600D01*
X110420401Y-97097599D02*
X110095399Y-97422601D01*
X110420401Y-92474799D02*
X110420401Y-97097599D01*
X113944400Y-88950800D02*
X110420401Y-92474799D01*
X112742319Y-91490800D02*
X110870411Y-93362708D01*
X113944400Y-91490800D02*
X112742319Y-91490800D01*
X110870411Y-112878189D02*
X109245400Y-114503200D01*
X110870411Y-93362708D02*
X110870411Y-112878189D01*
X113944400Y-94030800D02*
X112742319Y-94030800D01*
X112742319Y-94030800D02*
X111320421Y-95452698D01*
X111320421Y-95452698D02*
X111320421Y-118457821D01*
X111320421Y-118457821D02*
X113429799Y-120567199D01*
X119495201Y-120892201D02*
X120345200Y-121742200D01*
X113429799Y-120567199D02*
X119170199Y-120567199D01*
X119170199Y-120567199D02*
X119495201Y-120892201D01*
X112742319Y-96570800D02*
X111770431Y-97542688D01*
X113944400Y-96570800D02*
X112742319Y-96570800D01*
X111770431Y-97542688D02*
X111770431Y-118271421D01*
X111770431Y-118271421D02*
X113616199Y-120117189D01*
X131242389Y-120117189D02*
X132740400Y-121615200D01*
X113616199Y-120117189D02*
X131242389Y-120117189D01*
X112742319Y-99110800D02*
X112220441Y-99632678D01*
X113944400Y-99110800D02*
X112742319Y-99110800D01*
X112220441Y-99632678D02*
X112220441Y-118085021D01*
X112268421Y-118085021D02*
X113850579Y-119667179D01*
X112220441Y-118085021D02*
X112268421Y-118085021D01*
X143670179Y-119667179D02*
X145745200Y-121742200D01*
X113850579Y-119667179D02*
X143670179Y-119667179D01*
X113944400Y-101650800D02*
X112670451Y-102924749D01*
X112670451Y-102924749D02*
X112670451Y-117850641D01*
X112694441Y-117850641D02*
X114046000Y-119202200D01*
X112670451Y-117850641D02*
X112694441Y-117850641D01*
X155829000Y-119202200D02*
X158369000Y-121742200D01*
X114046000Y-119202200D02*
X155829000Y-119202200D01*
X162012999Y-76567399D02*
X161163000Y-75717400D01*
X165626799Y-80181199D02*
X162012999Y-76567399D01*
X165626799Y-82390999D02*
X165626799Y-80181199D01*
X166801800Y-83566000D02*
X165626799Y-82390999D01*
X121564400Y-101650800D02*
X121728602Y-101650800D01*
X123912999Y-74867401D02*
X123063000Y-75717400D01*
X124238001Y-74542399D02*
X123912999Y-74867401D01*
X124238001Y-72803397D02*
X124238001Y-74542399D01*
X125038999Y-72002399D02*
X124238001Y-72803397D01*
X128707001Y-72002399D02*
X125038999Y-72002399D01*
X129318001Y-72613399D02*
X128707001Y-72002399D01*
X129318001Y-93897199D02*
X129318001Y-72613399D01*
X121564400Y-101650800D02*
X129318001Y-93897199D01*
X159472999Y-74027399D02*
X158623000Y-73177400D01*
X159798001Y-74352401D02*
X159472999Y-74027399D01*
X162413203Y-74352401D02*
X159798001Y-74352401D01*
X168662601Y-80601799D02*
X162413203Y-74352401D01*
X121564400Y-96570800D02*
X120389399Y-97745801D01*
X120389399Y-97745801D02*
X120389399Y-102214801D01*
X120389399Y-102214801D02*
X126385199Y-108210601D01*
X126385199Y-108210601D02*
X167975401Y-108210601D01*
X167975401Y-108210601D02*
X168662601Y-107523401D01*
X168662601Y-107523401D02*
X168662601Y-80601799D01*
X135198999Y-72002399D02*
X134398001Y-72803397D01*
X143947001Y-72002399D02*
X135198999Y-72002399D01*
X144558001Y-73551403D02*
X144558001Y-72613399D01*
X134072999Y-74867401D02*
X133223000Y-75717400D01*
X145358999Y-74352401D02*
X144558001Y-73551403D01*
X146297003Y-74352401D02*
X145358999Y-74352401D01*
X144558001Y-72613399D02*
X143947001Y-72002399D01*
X147098001Y-75153399D02*
X146297003Y-74352401D01*
X147098001Y-76054201D02*
X147098001Y-75153399D01*
X161042601Y-89998801D02*
X147098001Y-76054201D01*
X134398001Y-74542399D02*
X134072999Y-74867401D01*
X161042601Y-103244399D02*
X161042601Y-89998801D01*
X134398001Y-72803397D02*
X134398001Y-74542399D01*
X159791400Y-104495600D02*
X161042601Y-103244399D01*
X158623000Y-76919481D02*
X158623000Y-75717400D01*
X158623000Y-79170802D02*
X158623000Y-76919481D01*
X161843197Y-82390999D02*
X158623000Y-79170802D01*
X163327201Y-82390999D02*
X161843197Y-82390999D01*
X164947600Y-84011398D02*
X163327201Y-82390999D01*
X164947600Y-91541600D02*
X164947600Y-84011398D01*
M02*
