M48
; DRILL file {KiCad (5.1.0)-1} date 2019/11/17 18:32:22
; FORMAT={-:-/ absolute / metric / decimal}
; #@! TF.CreationDate,2019-11-17T18:32:22+09:00
; #@! TF.GenerationSoftware,Kicad,Pcbnew,(5.1.0)-1
FMAT,2
METRIC
T1C1.000
T2C2.750
%
G90
G05
T1
X162.763Y-81.026
X162.763Y-83.566
X117.805Y-121.742
X117.805Y-124.282
X120.345Y-121.742
X120.345Y-124.282
X122.885Y-121.742
X122.885Y-124.282
X159.791Y-101.956
X159.791Y-104.496
X159.791Y-107.036
X167.411Y-101.956
X167.411Y-104.496
X167.411Y-107.036
X166.802Y-81.026
X166.802Y-83.566
X143.205Y-121.742
X143.205Y-124.282
X145.745Y-121.742
X145.745Y-124.282
X148.285Y-121.742
X148.285Y-124.282
X106.578Y-80.162
X106.578Y-82.702
X106.578Y-85.242
X109.118Y-80.162
X109.118Y-82.702
X109.118Y-85.242
X106.705Y-95.733
X106.705Y-98.273
X106.705Y-100.813
X109.245Y-95.733
X109.245Y-98.273
X109.245Y-100.813
X112.903Y-73.177
X112.903Y-75.717
X115.443Y-73.177
X115.443Y-75.717
X117.983Y-73.177
X117.983Y-75.717
X120.523Y-73.177
X120.523Y-75.717
X123.063Y-73.177
X123.063Y-75.717
X125.603Y-73.177
X125.603Y-75.717
X128.143Y-73.177
X128.143Y-75.717
X130.683Y-73.177
X130.683Y-75.717
X133.223Y-73.177
X133.223Y-75.717
X135.763Y-73.177
X135.763Y-75.717
X138.303Y-73.177
X138.303Y-75.717
X140.843Y-73.177
X140.843Y-75.717
X143.383Y-73.177
X143.383Y-75.717
X145.923Y-73.177
X145.923Y-75.717
X148.463Y-73.177
X148.463Y-75.717
X151.003Y-73.177
X151.003Y-75.717
X153.543Y-73.177
X153.543Y-75.717
X156.083Y-73.177
X156.083Y-75.717
X158.623Y-73.177
X158.623Y-75.717
X161.163Y-73.177
X161.163Y-75.717
X152.476Y-88.113
X152.476Y-90.653
X152.476Y-93.193
X152.476Y-95.733
X152.476Y-98.273
X152.476Y-100.813
X152.476Y-103.353
X106.705Y-111.963
X106.705Y-114.503
X106.705Y-117.043
X109.245Y-111.963
X109.245Y-114.503
X109.245Y-117.043
X157.328Y-91.542
X159.868Y-91.542
X162.408Y-91.542
X164.948Y-91.542
X167.488Y-91.542
X113.944Y-83.871
X113.944Y-86.411
X113.944Y-88.951
X113.944Y-91.491
X113.944Y-94.031
X113.944Y-96.571
X113.944Y-99.111
X113.944Y-101.651
X121.564Y-83.871
X121.564Y-86.411
X121.564Y-88.951
X121.564Y-91.491
X121.564Y-94.031
X121.564Y-96.571
X121.564Y-99.111
X121.564Y-101.651
X130.2Y-121.615
X130.2Y-124.155
X132.74Y-121.615
X132.74Y-124.155
X135.28Y-121.615
X135.28Y-124.155
X155.829Y-121.742
X155.829Y-124.282
X158.369Y-121.742
X158.369Y-124.282
X160.909Y-121.742
X160.909Y-124.282
T2
X166.0Y-74.25
X166.0Y-123.25
X108.0Y-74.25
X108.0Y-123.25
T0
M30
