G04 #@! TF.GenerationSoftware,KiCad,Pcbnew,(5.1.0)-1*
G04 #@! TF.CreationDate,2019-11-17T18:32:19+09:00*
G04 #@! TF.ProjectId,PakeOtiKun,50616b65-4f74-4694-9b75-6e2e6b696361,1*
G04 #@! TF.SameCoordinates,Original*
G04 #@! TF.FileFunction,Copper,L1,Top*
G04 #@! TF.FilePolarity,Positive*
%FSLAX46Y46*%
G04 Gerber Fmt 4.6, Leading zero omitted, Abs format (unit mm)*
G04 Created by KiCad (PCBNEW (5.1.0)-1) date 2019-11-17 18:32:19*
%MOMM*%
%LPD*%
G04 APERTURE LIST*
%ADD10R,1.700000X1.700000*%
%ADD11O,1.700000X1.700000*%
%ADD12C,0.250000*%
G04 APERTURE END LIST*
D10*
X109245400Y-95732600D03*
D11*
X106705400Y-95732600D03*
X109245400Y-98272600D03*
X106705400Y-98272600D03*
X109245400Y-100812600D03*
X106705400Y-100812600D03*
D10*
X167487600Y-91541600D03*
D11*
X164947600Y-91541600D03*
X162407600Y-91541600D03*
X159867600Y-91541600D03*
X157327600Y-91541600D03*
D10*
X152476200Y-88112600D03*
D11*
X152476200Y-90652600D03*
X152476200Y-93192600D03*
X152476200Y-95732600D03*
X152476200Y-98272600D03*
X152476200Y-100812600D03*
X152476200Y-103352600D03*
X106705400Y-117043200D03*
X109245400Y-117043200D03*
X106705400Y-114503200D03*
X109245400Y-114503200D03*
X106705400Y-111963200D03*
D10*
X109245400Y-111963200D03*
X117805200Y-121742200D03*
D11*
X117805200Y-124282200D03*
X120345200Y-121742200D03*
X120345200Y-124282200D03*
X122885200Y-121742200D03*
X122885200Y-124282200D03*
X135280400Y-124155200D03*
X135280400Y-121615200D03*
X132740400Y-124155200D03*
X132740400Y-121615200D03*
X130200400Y-124155200D03*
D10*
X130200400Y-121615200D03*
X143205200Y-121742200D03*
D11*
X143205200Y-124282200D03*
X145745200Y-121742200D03*
X145745200Y-124282200D03*
X148285200Y-121742200D03*
X148285200Y-124282200D03*
X160909000Y-124282200D03*
X160909000Y-121742200D03*
X158369000Y-124282200D03*
X158369000Y-121742200D03*
X155829000Y-124282200D03*
D10*
X155829000Y-121742200D03*
D11*
X106578400Y-85242400D03*
X109118400Y-85242400D03*
X106578400Y-82702400D03*
X109118400Y-82702400D03*
X106578400Y-80162400D03*
D10*
X109118400Y-80162400D03*
X166801800Y-81026000D03*
D11*
X166801800Y-83566000D03*
X162763200Y-83566000D03*
D10*
X162763200Y-81026000D03*
D11*
X117983000Y-73177400D03*
X115443000Y-75717400D03*
X130683000Y-75717400D03*
X130683000Y-73177400D03*
X115443000Y-73177400D03*
X117983000Y-75717400D03*
X112903000Y-73177400D03*
D10*
X112903000Y-75717400D03*
D11*
X140843000Y-75717400D03*
X140843000Y-73177400D03*
X125603000Y-75717400D03*
X125603000Y-73177400D03*
X145923000Y-75717400D03*
X145923000Y-73177400D03*
X128143000Y-75717400D03*
X128143000Y-73177400D03*
X123063000Y-75717400D03*
X123063000Y-73177400D03*
X135763000Y-75717400D03*
X135763000Y-73177400D03*
X158623000Y-75717400D03*
X158623000Y-73177400D03*
X153543000Y-75717400D03*
X153543000Y-73177400D03*
X156083000Y-75717400D03*
X156083000Y-73177400D03*
X133223000Y-75717400D03*
X133223000Y-73177400D03*
X151003000Y-75717400D03*
X151003000Y-73177400D03*
X120523000Y-75717400D03*
X120523000Y-73177400D03*
X148463000Y-75717400D03*
X148463000Y-73177400D03*
X138303000Y-75717400D03*
X138303000Y-73177400D03*
X143383000Y-75717400D03*
X143383000Y-73177400D03*
X161163000Y-75717400D03*
X161163000Y-73177400D03*
D10*
X159791400Y-101955600D03*
D11*
X159791400Y-104495600D03*
X159791400Y-107035600D03*
X167411400Y-104495600D03*
D10*
X167411400Y-101955600D03*
D11*
X167411400Y-107035600D03*
X121564400Y-86410800D03*
X121564400Y-99110800D03*
D10*
X121564400Y-83870800D03*
D11*
X121564400Y-94030800D03*
X121564400Y-96570800D03*
X121564400Y-101650800D03*
X121564400Y-88950800D03*
X121564400Y-91490800D03*
X113944400Y-101650800D03*
X113944400Y-99110800D03*
X113944400Y-96570800D03*
X113944400Y-94030800D03*
X113944400Y-91490800D03*
X113944400Y-88950800D03*
X113944400Y-86410800D03*
D10*
X113944400Y-83870800D03*
D12*
X163613199Y-82716001D02*
X162763200Y-83566000D01*
X163938201Y-82390999D02*
X163613199Y-82716001D01*
X166536801Y-82390999D02*
X163938201Y-82390999D01*
X166801800Y-82126000D02*
X166536801Y-82390999D01*
X166801800Y-81026000D02*
X166801800Y-82126000D01*
X143383000Y-76919481D02*
X143383000Y-75717400D01*
X143383000Y-80119400D02*
X143383000Y-76919481D01*
X151376200Y-88112600D02*
X143383000Y-80119400D01*
X152476200Y-88112600D02*
X151376200Y-88112600D01*
X159733999Y-120567199D02*
X149460201Y-120567199D01*
X160909000Y-121742200D02*
X159733999Y-120567199D01*
X148285200Y-121742200D02*
X147110199Y-120567199D01*
X135280400Y-121615200D02*
X134105399Y-120440199D01*
X109245400Y-117043200D02*
X110420401Y-115868199D01*
X109968399Y-86092399D02*
X109118400Y-85242400D01*
X110490000Y-86614000D02*
X109968399Y-86092399D01*
X110490000Y-99568000D02*
X110490000Y-86614000D01*
X109245400Y-100812600D02*
X110490000Y-99568000D01*
X120714401Y-87260799D02*
X121564400Y-86410800D01*
X120389399Y-87585801D02*
X120714401Y-87260799D01*
X113380399Y-87585801D02*
X120389399Y-87585801D01*
X112408598Y-86614000D02*
X113380399Y-87585801D01*
X110490000Y-86614000D02*
X112408598Y-86614000D01*
X121564400Y-85208719D02*
X121564400Y-83870800D01*
X121564400Y-86410800D02*
X121564400Y-85208719D01*
X121564400Y-83870800D02*
X121564400Y-78955002D01*
X112903000Y-76817400D02*
X112903000Y-75717400D01*
X115040602Y-78955002D02*
X112903000Y-76817400D01*
X121564400Y-78955002D02*
X115040602Y-78955002D01*
X149460201Y-120567199D02*
X147110199Y-120567199D01*
X134232399Y-120567199D02*
X134105399Y-120440199D01*
X147110199Y-120567199D02*
X134232399Y-120567199D01*
X121698001Y-120440199D02*
X121640600Y-120497600D01*
X134105399Y-120440199D02*
X121698001Y-120440199D01*
X122885200Y-121742200D02*
X121640600Y-120497600D01*
X121640600Y-120497600D02*
X118186200Y-117043200D01*
X111595402Y-117043200D02*
X110420401Y-115868199D01*
X118186200Y-117043200D02*
X111595402Y-117043200D01*
X110420401Y-99637599D02*
X110490000Y-99568000D01*
X110420401Y-115868199D02*
X110420401Y-99637599D01*
X140843000Y-81559400D02*
X140843000Y-75717400D01*
X152476200Y-93192600D02*
X140843000Y-81559400D01*
X135763000Y-79019400D02*
X135763000Y-75717400D01*
X152476200Y-95732600D02*
X135763000Y-79019400D01*
X132373001Y-74027399D02*
X133223000Y-73177400D01*
X132047999Y-74352401D02*
X132373001Y-74027399D01*
X132047999Y-77844399D02*
X132047999Y-74352401D01*
X152476200Y-98272600D02*
X132047999Y-77844399D01*
X109118400Y-79062400D02*
X111302800Y-76878000D01*
X117133001Y-72327401D02*
X117983000Y-73177400D01*
X116807999Y-72002399D02*
X117133001Y-72327401D01*
X112338999Y-72002399D02*
X116807999Y-72002399D01*
X111302800Y-73038598D02*
X112338999Y-72002399D01*
X111302800Y-76878000D02*
X111302800Y-73038598D01*
X109245400Y-94632600D02*
X109245400Y-95732600D01*
X105403399Y-90790599D02*
X109245400Y-94632600D01*
X105403399Y-79598399D02*
X105403399Y-90790599D01*
X106014399Y-78987399D02*
X105403399Y-79598399D01*
X109043399Y-78987399D02*
X106014399Y-78987399D01*
X109118400Y-79062400D02*
X109043399Y-78987399D01*
X109118400Y-80162400D02*
X109118400Y-79062400D01*
X109245400Y-110863200D02*
X109245400Y-111963200D01*
X105403399Y-107021199D02*
X109245400Y-110863200D01*
X105403399Y-90790599D02*
X105403399Y-107021199D01*
X105403399Y-117480201D02*
X106922198Y-118999000D01*
X105403399Y-107021199D02*
X105403399Y-117480201D01*
X106922198Y-118999000D02*
X109575600Y-118999000D01*
X112318800Y-121742200D02*
X117805200Y-121742200D01*
X109575600Y-118999000D02*
X112318800Y-121742200D01*
X112318800Y-121742200D02*
X116357400Y-125780800D01*
X129100400Y-121615200D02*
X130200400Y-121615200D01*
X124934800Y-125780800D02*
X129100400Y-121615200D01*
X116357400Y-125780800D02*
X124934800Y-125780800D01*
X142105200Y-121742200D02*
X143205200Y-121742200D01*
X138066600Y-125780800D02*
X142105200Y-121742200D01*
X124934800Y-125780800D02*
X138066600Y-125780800D01*
X154729000Y-121742200D02*
X155829000Y-121742200D01*
X150690400Y-125780800D02*
X154729000Y-121742200D01*
X138066600Y-125780800D02*
X150690400Y-125780800D01*
X152693001Y-74867401D02*
X153543000Y-75717400D01*
X150438999Y-74542399D02*
X152367999Y-74542399D01*
X149827999Y-75153399D02*
X150438999Y-74542399D01*
X152367999Y-74542399D02*
X152693001Y-74867401D01*
X149827999Y-78633209D02*
X149827999Y-75153399D01*
X158692599Y-87497809D02*
X149827999Y-78633209D01*
X158692599Y-99756799D02*
X158692599Y-87497809D01*
X159791400Y-100855600D02*
X158692599Y-99756799D01*
X159791400Y-101955600D02*
X159791400Y-100855600D01*
X161042601Y-94455603D02*
X161042601Y-89211401D01*
X167411400Y-101955600D02*
X167411400Y-100824402D01*
X167411400Y-100824402D02*
X161042601Y-94455603D01*
X151003000Y-79171800D02*
X151003000Y-75717400D01*
X161042601Y-89211401D02*
X151003000Y-79171800D01*
X151852999Y-74027399D02*
X151003000Y-73177400D01*
X152489409Y-74027399D02*
X151852999Y-74027399D01*
X153917003Y-74352401D02*
X152814411Y-74352401D01*
X154718001Y-75153399D02*
X153917003Y-74352401D01*
X152814411Y-74352401D02*
X152489409Y-74027399D01*
X154718001Y-76091403D02*
X154718001Y-75153399D01*
X156731598Y-78105000D02*
X154718001Y-76091403D01*
X168249600Y-78105000D02*
X156731598Y-78105000D01*
X168662601Y-78518001D02*
X168249600Y-78105000D01*
X160966401Y-108210601D02*
X167975401Y-108210601D01*
X159791400Y-107035600D02*
X160966401Y-108210601D01*
X167975401Y-108210601D02*
X168586401Y-107599601D01*
X168586401Y-107599601D02*
X168586401Y-107562399D01*
X168586401Y-107562399D02*
X168662601Y-107486199D01*
X168662601Y-107486199D02*
X168662601Y-78518001D01*
X166801800Y-87147400D02*
X166801800Y-83566000D01*
X162407600Y-91541600D02*
X166801800Y-87147400D01*
X126778001Y-72803397D02*
X127956378Y-71625020D01*
X121564400Y-94030800D02*
X126778001Y-88817199D01*
X126778001Y-88817199D02*
X126778001Y-72803397D01*
X156932999Y-74867401D02*
X156083000Y-75717400D01*
X157258001Y-74542399D02*
X156932999Y-74867401D01*
X157258001Y-72447401D02*
X157258001Y-74542399D01*
X156435620Y-71625020D02*
X157258001Y-72447401D01*
X127956378Y-71625020D02*
X156435620Y-71625020D01*
X124238001Y-71418199D02*
X124481190Y-71175010D01*
X121564400Y-91490800D02*
X124238001Y-88817199D01*
X124238001Y-88817199D02*
X124238001Y-71418199D01*
X159160610Y-71175010D02*
X161163000Y-73177400D01*
X124481190Y-71175010D02*
X159160610Y-71175010D01*
X166209319Y-104495600D02*
X159791400Y-104495600D01*
X167411400Y-104495600D02*
X166209319Y-104495600D01*
X153619200Y-104495600D02*
X159791400Y-104495600D01*
X152476200Y-103352600D02*
X153619200Y-104495600D01*
X155371800Y-102743000D02*
X153619200Y-104495600D01*
X152476200Y-90652600D02*
X155371800Y-93548200D01*
X155371800Y-93548200D02*
X155371800Y-102743000D01*
M02*
