M48
; DRILL file {KiCad (5.1.0)-1} date 2019/11/04 20:34:35
; FORMAT={-:-/ absolute / metric / decimal}
; #@! TF.CreationDate,2019-11-04T20:34:35+09:00
; #@! TF.GenerationSoftware,Kicad,Pcbnew,(5.1.0)-1
FMAT,2
METRIC
T1C1.000
T2C2.750
%
G90
G05
T1
X106.756Y-91.694
X109.296Y-91.694
X111.836Y-91.694
X114.376Y-91.694
X116.916Y-91.694
X124.714Y-111.76
X127.254Y-111.76
X129.794Y-111.76
X132.334Y-111.76
X134.874Y-111.76
X137.414Y-111.76
X139.954Y-111.76
X115.57Y-120.904
X115.57Y-123.444
X118.11Y-120.904
X118.11Y-123.444
X120.65Y-120.904
X120.65Y-123.444
X163.322Y-82.804
X163.322Y-85.344
X163.322Y-87.884
X165.862Y-82.804
X165.862Y-85.344
X165.862Y-87.884
X112.776Y-72.898
X112.776Y-75.438
X115.316Y-72.898
X115.316Y-75.438
X117.856Y-72.898
X117.856Y-75.438
X120.396Y-72.898
X120.396Y-75.438
X122.936Y-72.898
X122.936Y-75.438
X125.476Y-72.898
X125.476Y-75.438
X128.016Y-72.898
X128.016Y-75.438
X130.556Y-72.898
X130.556Y-75.438
X133.096Y-72.898
X133.096Y-75.438
X135.636Y-72.898
X135.636Y-75.438
X138.176Y-72.898
X138.176Y-75.438
X140.716Y-72.898
X140.716Y-75.438
X143.256Y-72.898
X143.256Y-75.438
X145.796Y-72.898
X145.796Y-75.438
X148.336Y-72.898
X148.336Y-75.438
X150.876Y-72.898
X150.876Y-75.438
X153.416Y-72.898
X153.416Y-75.438
X155.956Y-72.898
X155.956Y-75.438
X158.496Y-72.898
X158.496Y-75.438
X161.036Y-72.898
X161.036Y-75.438
X111.735Y-80.772
X111.735Y-83.312
X107.696Y-80.772
X107.696Y-83.312
X152.4Y-120.904
X152.4Y-123.444
X154.94Y-120.904
X154.94Y-123.444
X157.48Y-120.904
X157.48Y-123.444
X128.016Y-120.904
X128.016Y-123.444
X130.556Y-120.904
X130.556Y-123.444
X133.096Y-120.904
X133.096Y-123.444
X163.576Y-96.266
X163.576Y-98.806
X163.576Y-101.346
X166.116Y-96.266
X166.116Y-98.806
X166.116Y-101.346
X148.59Y-84.328
X148.59Y-86.868
X148.59Y-89.408
X148.59Y-91.948
X148.59Y-94.488
X148.59Y-97.028
X148.59Y-99.568
X148.59Y-102.108
X156.21Y-84.328
X156.21Y-86.868
X156.21Y-89.408
X156.21Y-91.948
X156.21Y-94.488
X156.21Y-97.028
X156.21Y-99.568
X156.21Y-102.108
X163.576Y-108.458
X163.576Y-110.998
X163.576Y-113.538
X166.116Y-108.458
X166.116Y-110.998
X166.116Y-113.538
X139.954Y-120.904
X139.954Y-123.444
X142.494Y-120.904
X142.494Y-123.444
X145.034Y-120.904
X145.034Y-123.444
X106.731Y-101.651
X106.731Y-104.191
X106.731Y-106.731
X114.351Y-101.651
X114.351Y-104.191
X114.351Y-106.731
T2
X166.0Y-74.25
X108.0Y-74.25
X166.0Y-123.25
X108.0Y-123.25
T0
M30
