G04 #@! TF.GenerationSoftware,KiCad,Pcbnew,(5.1.0)-1*
G04 #@! TF.CreationDate,2019-11-04T20:34:32+09:00*
G04 #@! TF.ProjectId,PakeOtiKun,50616b65-4f74-4694-9b75-6e2e6b696361,1*
G04 #@! TF.SameCoordinates,Original*
G04 #@! TF.FileFunction,Copper,L2,Bot*
G04 #@! TF.FilePolarity,Positive*
%FSLAX46Y46*%
G04 Gerber Fmt 4.6, Leading zero omitted, Abs format (unit mm)*
G04 Created by KiCad (PCBNEW (5.1.0)-1) date 2019-11-04 20:34:32*
%MOMM*%
%LPD*%
G04 APERTURE LIST*
%ADD10R,1.700000X1.700000*%
%ADD11O,1.700000X1.700000*%
%ADD12C,0.250000*%
G04 APERTURE END LIST*
D10*
X163576000Y-101346000D03*
D11*
X166116000Y-101346000D03*
X163576000Y-98806000D03*
X166116000Y-98806000D03*
X163576000Y-96266000D03*
X166116000Y-96266000D03*
D10*
X116916200Y-91694000D03*
D11*
X114376200Y-91694000D03*
X111836200Y-91694000D03*
X109296200Y-91694000D03*
X106756200Y-91694000D03*
D10*
X139954000Y-111760000D03*
D11*
X137414000Y-111760000D03*
X134874000Y-111760000D03*
X132334000Y-111760000D03*
X129794000Y-111760000D03*
X127254000Y-111760000D03*
X124714000Y-111760000D03*
X166116000Y-108458000D03*
X163576000Y-108458000D03*
X166116000Y-110998000D03*
X163576000Y-110998000D03*
X166116000Y-113538000D03*
D10*
X163576000Y-113538000D03*
X152400000Y-120904000D03*
D11*
X152400000Y-123444000D03*
X154940000Y-120904000D03*
X154940000Y-123444000D03*
X157480000Y-120904000D03*
X157480000Y-123444000D03*
X145034000Y-123444000D03*
X145034000Y-120904000D03*
X142494000Y-123444000D03*
X142494000Y-120904000D03*
X139954000Y-123444000D03*
D10*
X139954000Y-120904000D03*
X128016000Y-120904000D03*
D11*
X128016000Y-123444000D03*
X130556000Y-120904000D03*
X130556000Y-123444000D03*
X133096000Y-120904000D03*
X133096000Y-123444000D03*
X120650000Y-123444000D03*
X120650000Y-120904000D03*
X118110000Y-123444000D03*
X118110000Y-120904000D03*
X115570000Y-123444000D03*
D10*
X115570000Y-120904000D03*
D11*
X165862000Y-82804000D03*
X163322000Y-82804000D03*
X165862000Y-85344000D03*
X163322000Y-85344000D03*
X165862000Y-87884000D03*
D10*
X163322000Y-87884000D03*
X111734600Y-80772000D03*
D11*
X111734600Y-83312000D03*
X107696000Y-83312000D03*
D10*
X107696000Y-80772000D03*
D11*
X155956000Y-72898000D03*
X158496000Y-75438000D03*
X143256000Y-75438000D03*
X143256000Y-72898000D03*
X158496000Y-72898000D03*
X155956000Y-75438000D03*
X161036000Y-72898000D03*
D10*
X161036000Y-75438000D03*
D11*
X133096000Y-75438000D03*
X133096000Y-72898000D03*
X148336000Y-75438000D03*
X148336000Y-72898000D03*
X128016000Y-75438000D03*
X128016000Y-72898000D03*
X145796000Y-75438000D03*
X145796000Y-72898000D03*
X150876000Y-75438000D03*
X150876000Y-72898000D03*
X138176000Y-75438000D03*
X138176000Y-72898000D03*
X115316000Y-75438000D03*
X115316000Y-72898000D03*
X120396000Y-75438000D03*
X120396000Y-72898000D03*
X117856000Y-75438000D03*
X117856000Y-72898000D03*
X140716000Y-75438000D03*
X140716000Y-72898000D03*
X122936000Y-75438000D03*
X122936000Y-72898000D03*
X153416000Y-75438000D03*
X153416000Y-72898000D03*
X125476000Y-75438000D03*
X125476000Y-72898000D03*
X135636000Y-75438000D03*
X135636000Y-72898000D03*
X130556000Y-75438000D03*
X130556000Y-72898000D03*
X112776000Y-75438000D03*
X112776000Y-72898000D03*
D10*
X106730800Y-101650800D03*
D11*
X106730800Y-104190800D03*
X106730800Y-106730800D03*
X114350800Y-104190800D03*
D10*
X114350800Y-101650800D03*
D11*
X114350800Y-106730800D03*
X148590000Y-86868000D03*
X148590000Y-99568000D03*
D10*
X148590000Y-84328000D03*
D11*
X148590000Y-94488000D03*
X148590000Y-97028000D03*
X148590000Y-102108000D03*
X148590000Y-89408000D03*
X148590000Y-91948000D03*
X156210000Y-102108000D03*
X156210000Y-99568000D03*
X156210000Y-97028000D03*
X156210000Y-94488000D03*
X156210000Y-91948000D03*
X156210000Y-89408000D03*
X156210000Y-86868000D03*
D10*
X156210000Y-84328000D03*
D12*
X110236000Y-80772000D02*
X107696000Y-83312000D01*
X111734600Y-80772000D02*
X110236000Y-80772000D01*
X147160999Y-74262999D02*
X147160999Y-72333999D01*
X107696000Y-79672000D02*
X107696000Y-80772000D01*
X148336000Y-75438000D02*
X147160999Y-74262999D01*
X147160999Y-72333999D02*
X146002010Y-71175010D01*
X146002010Y-71175010D02*
X112441590Y-71175010D01*
X112441590Y-71175010D02*
X111600999Y-72015601D01*
X111600999Y-75767001D02*
X107696000Y-79672000D01*
X111600999Y-72015601D02*
X111600999Y-75767001D01*
X161036000Y-75438000D02*
X161036000Y-76538000D01*
X161036000Y-76538000D02*
X153449200Y-84124800D01*
X153449200Y-113149200D02*
X149733000Y-116865400D01*
X153449200Y-84124800D02*
X153449200Y-113149200D01*
X132359400Y-116865400D02*
X127254000Y-111760000D01*
X149733000Y-116865400D02*
X132359400Y-116865400D01*
X150876000Y-98806000D02*
X150876000Y-75438000D01*
X150876000Y-99822000D02*
X150876000Y-98806000D01*
X148590000Y-102108000D02*
X150876000Y-99822000D01*
X122910600Y-109423200D02*
X121825001Y-110508799D01*
X157131001Y-74262999D02*
X157131001Y-78617197D01*
X157131001Y-78617197D02*
X151460200Y-84287998D01*
X151460200Y-84287998D02*
X151460200Y-105994200D01*
X151460200Y-105994200D02*
X148031200Y-109423200D01*
X121825001Y-110508799D02*
X121825001Y-110584999D01*
X158496000Y-72898000D02*
X157131001Y-74262999D01*
X148031200Y-109423200D02*
X122910600Y-109423200D01*
X121825001Y-110508799D02*
X106673399Y-110508799D01*
X105880801Y-105040799D02*
X106730800Y-104190800D01*
X105555799Y-105365801D02*
X105880801Y-105040799D01*
X105555799Y-109391199D02*
X105555799Y-105365801D01*
X111875201Y-105040799D02*
X106540300Y-110375700D01*
X113500801Y-105040799D02*
X111875201Y-105040799D01*
X114350800Y-104190800D02*
X113500801Y-105040799D01*
X106673399Y-110508799D02*
X106540300Y-110375700D01*
X106540300Y-110375700D02*
X105555799Y-109391199D01*
X139540999Y-72523997D02*
X139540999Y-76002001D01*
X139540999Y-76002001D02*
X144387198Y-80848200D01*
X133096000Y-75438000D02*
X133096000Y-74637002D01*
X134460999Y-73272003D02*
X134460999Y-72333999D01*
X133096000Y-74637002D02*
X134460999Y-73272003D01*
X134460999Y-72333999D02*
X135071999Y-71722999D01*
X135071999Y-71722999D02*
X138740001Y-71722999D01*
X138740001Y-71722999D02*
X139540999Y-72523997D01*
X144387198Y-87745198D02*
X148590000Y-91948000D01*
X144387198Y-80848200D02*
X144387198Y-87745198D01*
X132246001Y-73747999D02*
X133096000Y-72898000D01*
X131920999Y-74073001D02*
X132246001Y-73747999D01*
X129991999Y-74073001D02*
X131920999Y-74073001D01*
X129380999Y-74684001D02*
X129991999Y-74073001D01*
X129380999Y-80358999D02*
X129380999Y-74684001D01*
X148590000Y-99568000D02*
X129380999Y-80358999D01*
X137326001Y-74588001D02*
X138176000Y-75438000D01*
X137000999Y-74262999D02*
X137326001Y-74588001D01*
X135071999Y-74262999D02*
X137000999Y-74262999D01*
X134271001Y-75063997D02*
X135071999Y-74262999D01*
X134271001Y-82709001D02*
X134271001Y-75063997D01*
X148590000Y-97028000D02*
X134271001Y-82709001D01*
X114376200Y-76377800D02*
X115316000Y-75438000D01*
X114376200Y-91694000D02*
X114376200Y-76377800D01*
X111174390Y-101650800D02*
X106730800Y-101650800D01*
X120396000Y-75438000D02*
X120396000Y-92429190D01*
X120396000Y-92429190D02*
X111174390Y-101650800D01*
X140800000Y-75438000D02*
X140716000Y-75438000D01*
X148590000Y-83228000D02*
X140800000Y-75438000D01*
X148590000Y-84328000D02*
X148590000Y-83228000D01*
X115450800Y-101650800D02*
X114350800Y-101650800D01*
X117299022Y-101650800D02*
X115450800Y-101650800D01*
X122936000Y-96013822D02*
X117299022Y-101650800D01*
X122936000Y-75438000D02*
X122936000Y-96013822D01*
X122936000Y-72898000D02*
X121760999Y-74073001D01*
X121760999Y-91700601D02*
X106730800Y-106730800D01*
X121760999Y-74073001D02*
X121760999Y-91700601D01*
X121666000Y-106730800D02*
X114350800Y-106730800D01*
X125476000Y-75438000D02*
X125476000Y-102920800D01*
X125476000Y-102920800D02*
X121666000Y-106730800D01*
X135636000Y-81534000D02*
X148590000Y-94488000D01*
X135636000Y-75438000D02*
X135636000Y-81534000D01*
X161798000Y-86868000D02*
X163322000Y-85344000D01*
X156210000Y-86868000D02*
X161798000Y-86868000D01*
X162726001Y-97956001D02*
X163576000Y-98806000D01*
X162400999Y-97630999D02*
X162726001Y-97956001D01*
X162400999Y-95598999D02*
X162400999Y-97630999D01*
X156210000Y-89408000D02*
X162400999Y-95598999D01*
X161290000Y-108712000D02*
X163576000Y-110998000D01*
X156210000Y-91948000D02*
X161290000Y-97028000D01*
X161290000Y-97028000D02*
X161290000Y-108712000D01*
X156210000Y-94488000D02*
X160274000Y-98552000D01*
X160274000Y-98552000D02*
X160274000Y-116586000D01*
X155789999Y-120054001D02*
X154940000Y-120904000D01*
X156565011Y-119278989D02*
X155789999Y-120054001D01*
X157581011Y-119278989D02*
X156565011Y-119278989D01*
X160274000Y-116586000D02*
X157581011Y-119278989D01*
X144569021Y-118828979D02*
X142494000Y-120904000D01*
X157394611Y-118828979D02*
X144569021Y-118828979D01*
X159512000Y-116711590D02*
X157394611Y-118828979D01*
X156210000Y-97028000D02*
X159512000Y-100330000D01*
X159512000Y-100330000D02*
X159512000Y-116711590D01*
X156210000Y-99568000D02*
X158750000Y-102108000D01*
X158750000Y-102108000D02*
X158750000Y-116255800D01*
X131405999Y-120054001D02*
X130556000Y-120904000D01*
X133081031Y-118378969D02*
X131405999Y-120054001D01*
X156626831Y-118378969D02*
X133081031Y-118378969D01*
X158750000Y-116255800D02*
X156626831Y-118378969D01*
X121085041Y-117928959D02*
X118110000Y-120904000D01*
X156162441Y-117928959D02*
X121085041Y-117928959D01*
X157734000Y-116357400D02*
X156162441Y-117928959D01*
X156210000Y-102108000D02*
X157734000Y-103632000D01*
X157734000Y-103632000D02*
X157734000Y-116357400D01*
X111836200Y-83413600D02*
X111734600Y-83312000D01*
X111836200Y-91694000D02*
X111836200Y-83413600D01*
X112584599Y-82462001D02*
X111734600Y-83312000D01*
X113625999Y-81420601D02*
X112584599Y-82462001D01*
X112776000Y-75438000D02*
X113625999Y-76287999D01*
X113625999Y-76287999D02*
X113625999Y-81420601D01*
M02*
