G04 #@! TF.GenerationSoftware,KiCad,Pcbnew,(5.1.0)-1*
G04 #@! TF.CreationDate,2019-11-04T20:34:33+09:00*
G04 #@! TF.ProjectId,PakeOtiKun,50616b65-4f74-4694-9b75-6e2e6b696361,1*
G04 #@! TF.SameCoordinates,Original*
G04 #@! TF.FileFunction,Legend,Bot*
G04 #@! TF.FilePolarity,Positive*
%FSLAX46Y46*%
G04 Gerber Fmt 4.6, Leading zero omitted, Abs format (unit mm)*
G04 Created by KiCad (PCBNEW (5.1.0)-1) date 2019-11-04 20:34:33*
%MOMM*%
%LPD*%
G04 APERTURE LIST*
%ADD10C,0.200000*%
%ADD11C,0.120000*%
%ADD12C,0.150000*%
G04 APERTURE END LIST*
D10*
X119437942Y-114803180D02*
X119437942Y-113803180D01*
X119056990Y-113803180D01*
X118961752Y-113850800D01*
X118914133Y-113898419D01*
X118866514Y-113993657D01*
X118866514Y-114136514D01*
X118914133Y-114231752D01*
X118961752Y-114279371D01*
X119056990Y-114326990D01*
X119437942Y-114326990D01*
X118009371Y-114803180D02*
X118009371Y-114279371D01*
X118056990Y-114184133D01*
X118152228Y-114136514D01*
X118342704Y-114136514D01*
X118437942Y-114184133D01*
X118009371Y-114755561D02*
X118104609Y-114803180D01*
X118342704Y-114803180D01*
X118437942Y-114755561D01*
X118485561Y-114660323D01*
X118485561Y-114565085D01*
X118437942Y-114469847D01*
X118342704Y-114422228D01*
X118104609Y-114422228D01*
X118009371Y-114374609D01*
X117533180Y-114803180D02*
X117533180Y-113803180D01*
X117437942Y-114422228D02*
X117152228Y-114803180D01*
X117152228Y-114136514D02*
X117533180Y-114517466D01*
X116342704Y-114755561D02*
X116437942Y-114803180D01*
X116628419Y-114803180D01*
X116723657Y-114755561D01*
X116771276Y-114660323D01*
X116771276Y-114279371D01*
X116723657Y-114184133D01*
X116628419Y-114136514D01*
X116437942Y-114136514D01*
X116342704Y-114184133D01*
X116295085Y-114279371D01*
X116295085Y-114374609D01*
X116771276Y-114469847D01*
X115676038Y-113803180D02*
X115485561Y-113803180D01*
X115390323Y-113850800D01*
X115295085Y-113946038D01*
X115247466Y-114136514D01*
X115247466Y-114469847D01*
X115295085Y-114660323D01*
X115390323Y-114755561D01*
X115485561Y-114803180D01*
X115676038Y-114803180D01*
X115771276Y-114755561D01*
X115866514Y-114660323D01*
X115914133Y-114469847D01*
X115914133Y-114136514D01*
X115866514Y-113946038D01*
X115771276Y-113850800D01*
X115676038Y-113803180D01*
X114961752Y-114136514D02*
X114580800Y-114136514D01*
X114818895Y-113803180D02*
X114818895Y-114660323D01*
X114771276Y-114755561D01*
X114676038Y-114803180D01*
X114580800Y-114803180D01*
X114247466Y-114803180D02*
X114247466Y-114136514D01*
X114247466Y-113803180D02*
X114295085Y-113850800D01*
X114247466Y-113898419D01*
X114199847Y-113850800D01*
X114247466Y-113803180D01*
X114247466Y-113898419D01*
X113771276Y-114803180D02*
X113771276Y-113803180D01*
X113199847Y-114803180D02*
X113628419Y-114231752D01*
X113199847Y-113803180D02*
X113771276Y-114374609D01*
X112342704Y-114136514D02*
X112342704Y-114803180D01*
X112771276Y-114136514D02*
X112771276Y-114660323D01*
X112723657Y-114755561D01*
X112628419Y-114803180D01*
X112485561Y-114803180D01*
X112390323Y-114755561D01*
X112342704Y-114707942D01*
X111866514Y-114136514D02*
X111866514Y-114803180D01*
X111866514Y-114231752D02*
X111818895Y-114184133D01*
X111723657Y-114136514D01*
X111580800Y-114136514D01*
X111485561Y-114184133D01*
X111437942Y-114279371D01*
X111437942Y-114803180D01*
X111104609Y-113803180D02*
X110771276Y-114803180D01*
X110437942Y-113803180D01*
X109723657Y-114755561D02*
X109818895Y-114803180D01*
X110009371Y-114803180D01*
X110104609Y-114755561D01*
X110152228Y-114660323D01*
X110152228Y-114279371D01*
X110104609Y-114184133D01*
X110009371Y-114136514D01*
X109818895Y-114136514D01*
X109723657Y-114184133D01*
X109676038Y-114279371D01*
X109676038Y-114374609D01*
X110152228Y-114469847D01*
X109247466Y-114803180D02*
X109247466Y-114136514D01*
X109247466Y-114326990D02*
X109199847Y-114231752D01*
X109152228Y-114184133D01*
X109056990Y-114136514D01*
X108961752Y-114136514D01*
X108104609Y-114803180D02*
X108676038Y-114803180D01*
X108390323Y-114803180D02*
X108390323Y-113803180D01*
X108485561Y-113946038D01*
X108580800Y-114041276D01*
X108676038Y-114088895D01*
X107676038Y-114707942D02*
X107628419Y-114755561D01*
X107676038Y-114803180D01*
X107723657Y-114755561D01*
X107676038Y-114707942D01*
X107676038Y-114803180D01*
X107009371Y-113803180D02*
X106914133Y-113803180D01*
X106818895Y-113850800D01*
X106771276Y-113898419D01*
X106723657Y-113993657D01*
X106676038Y-114184133D01*
X106676038Y-114422228D01*
X106723657Y-114612704D01*
X106771276Y-114707942D01*
X106818895Y-114755561D01*
X106914133Y-114803180D01*
X107009371Y-114803180D01*
X107104609Y-114755561D01*
X107152228Y-114707942D01*
X107199847Y-114612704D01*
X107247466Y-114422228D01*
X107247466Y-114184133D01*
X107199847Y-113993657D01*
X107152228Y-113898419D01*
X107104609Y-113850800D01*
X107009371Y-113803180D01*
D11*
X149920000Y-85598000D02*
X147260000Y-85598000D01*
X147260000Y-85598000D02*
X147260000Y-103438000D01*
X149920000Y-103438000D02*
X147260000Y-103438000D01*
X147260000Y-82998000D02*
X147260000Y-84328000D01*
X149920000Y-85598000D02*
X149920000Y-103438000D01*
X148590000Y-82998000D02*
X147260000Y-82998000D01*
X156210000Y-82998000D02*
X154880000Y-82998000D01*
X154880000Y-82998000D02*
X154880000Y-84328000D01*
X154880000Y-85598000D02*
X154880000Y-103438000D01*
X157540000Y-103438000D02*
X154880000Y-103438000D01*
X157540000Y-85598000D02*
X157540000Y-103438000D01*
X157540000Y-85598000D02*
X154880000Y-85598000D01*
D12*
X154590476Y-81010380D02*
X154590476Y-81819904D01*
X154542857Y-81915142D01*
X154495238Y-81962761D01*
X154400000Y-82010380D01*
X154209523Y-82010380D01*
X154114285Y-81962761D01*
X154066666Y-81915142D01*
X154019047Y-81819904D01*
X154019047Y-81010380D01*
X153019047Y-82010380D02*
X153590476Y-82010380D01*
X153304761Y-82010380D02*
X153304761Y-81010380D01*
X153400000Y-81153238D01*
X153495238Y-81248476D01*
X153590476Y-81296095D01*
X152400000Y-81010380D02*
X152304761Y-81010380D01*
X152209523Y-81058000D01*
X152161904Y-81105619D01*
X152114285Y-81200857D01*
X152066666Y-81391333D01*
X152066666Y-81629428D01*
X152114285Y-81819904D01*
X152161904Y-81915142D01*
X152209523Y-81962761D01*
X152304761Y-82010380D01*
X152400000Y-82010380D01*
X152495238Y-81962761D01*
X152542857Y-81915142D01*
X152590476Y-81819904D01*
X152638095Y-81629428D01*
X152638095Y-81391333D01*
X152590476Y-81200857D01*
X152542857Y-81105619D01*
X152495238Y-81058000D01*
X152400000Y-81010380D01*
X151447619Y-81010380D02*
X151352380Y-81010380D01*
X151257142Y-81058000D01*
X151209523Y-81105619D01*
X151161904Y-81200857D01*
X151114285Y-81391333D01*
X151114285Y-81629428D01*
X151161904Y-81819904D01*
X151209523Y-81915142D01*
X151257142Y-81962761D01*
X151352380Y-82010380D01*
X151447619Y-82010380D01*
X151542857Y-81962761D01*
X151590476Y-81915142D01*
X151638095Y-81819904D01*
X151685714Y-81629428D01*
X151685714Y-81391333D01*
X151638095Y-81200857D01*
X151590476Y-81105619D01*
X151542857Y-81058000D01*
X151447619Y-81010380D01*
X150161904Y-82010380D02*
X150733333Y-82010380D01*
X150447619Y-82010380D02*
X150447619Y-81010380D01*
X150542857Y-81153238D01*
X150638095Y-81248476D01*
X150733333Y-81296095D01*
M02*
