G04 #@! TF.GenerationSoftware,KiCad,Pcbnew,(5.1.0)-1*
G04 #@! TF.CreationDate,2019-11-04T20:34:32+09:00*
G04 #@! TF.ProjectId,PakeOtiKun,50616b65-4f74-4694-9b75-6e2e6b696361,1*
G04 #@! TF.SameCoordinates,Original*
G04 #@! TF.FileFunction,Copper,L1,Top*
G04 #@! TF.FilePolarity,Positive*
%FSLAX46Y46*%
G04 Gerber Fmt 4.6, Leading zero omitted, Abs format (unit mm)*
G04 Created by KiCad (PCBNEW (5.1.0)-1) date 2019-11-04 20:34:32*
%MOMM*%
%LPD*%
G04 APERTURE LIST*
%ADD10R,1.700000X1.700000*%
%ADD11O,1.700000X1.700000*%
%ADD12C,0.250000*%
G04 APERTURE END LIST*
D10*
X163576000Y-101346000D03*
D11*
X166116000Y-101346000D03*
X163576000Y-98806000D03*
X166116000Y-98806000D03*
X163576000Y-96266000D03*
X166116000Y-96266000D03*
D10*
X116916200Y-91694000D03*
D11*
X114376200Y-91694000D03*
X111836200Y-91694000D03*
X109296200Y-91694000D03*
X106756200Y-91694000D03*
D10*
X139954000Y-111760000D03*
D11*
X137414000Y-111760000D03*
X134874000Y-111760000D03*
X132334000Y-111760000D03*
X129794000Y-111760000D03*
X127254000Y-111760000D03*
X124714000Y-111760000D03*
X166116000Y-108458000D03*
X163576000Y-108458000D03*
X166116000Y-110998000D03*
X163576000Y-110998000D03*
X166116000Y-113538000D03*
D10*
X163576000Y-113538000D03*
X152400000Y-120904000D03*
D11*
X152400000Y-123444000D03*
X154940000Y-120904000D03*
X154940000Y-123444000D03*
X157480000Y-120904000D03*
X157480000Y-123444000D03*
X145034000Y-123444000D03*
X145034000Y-120904000D03*
X142494000Y-123444000D03*
X142494000Y-120904000D03*
X139954000Y-123444000D03*
D10*
X139954000Y-120904000D03*
X128016000Y-120904000D03*
D11*
X128016000Y-123444000D03*
X130556000Y-120904000D03*
X130556000Y-123444000D03*
X133096000Y-120904000D03*
X133096000Y-123444000D03*
X120650000Y-123444000D03*
X120650000Y-120904000D03*
X118110000Y-123444000D03*
X118110000Y-120904000D03*
X115570000Y-123444000D03*
D10*
X115570000Y-120904000D03*
D11*
X165862000Y-82804000D03*
X163322000Y-82804000D03*
X165862000Y-85344000D03*
X163322000Y-85344000D03*
X165862000Y-87884000D03*
D10*
X163322000Y-87884000D03*
X111734600Y-80772000D03*
D11*
X111734600Y-83312000D03*
X107696000Y-83312000D03*
D10*
X107696000Y-80772000D03*
D11*
X155956000Y-72898000D03*
X158496000Y-75438000D03*
X143256000Y-75438000D03*
X143256000Y-72898000D03*
X158496000Y-72898000D03*
X155956000Y-75438000D03*
X161036000Y-72898000D03*
D10*
X161036000Y-75438000D03*
D11*
X133096000Y-75438000D03*
X133096000Y-72898000D03*
X148336000Y-75438000D03*
X148336000Y-72898000D03*
X128016000Y-75438000D03*
X128016000Y-72898000D03*
X145796000Y-75438000D03*
X145796000Y-72898000D03*
X150876000Y-75438000D03*
X150876000Y-72898000D03*
X138176000Y-75438000D03*
X138176000Y-72898000D03*
X115316000Y-75438000D03*
X115316000Y-72898000D03*
X120396000Y-75438000D03*
X120396000Y-72898000D03*
X117856000Y-75438000D03*
X117856000Y-72898000D03*
X140716000Y-75438000D03*
X140716000Y-72898000D03*
X122936000Y-75438000D03*
X122936000Y-72898000D03*
X153416000Y-75438000D03*
X153416000Y-72898000D03*
X125476000Y-75438000D03*
X125476000Y-72898000D03*
X135636000Y-75438000D03*
X135636000Y-72898000D03*
X130556000Y-75438000D03*
X130556000Y-72898000D03*
X112776000Y-75438000D03*
X112776000Y-72898000D03*
D10*
X106730800Y-101650800D03*
D11*
X106730800Y-104190800D03*
X106730800Y-106730800D03*
X114350800Y-104190800D03*
D10*
X114350800Y-101650800D03*
D11*
X114350800Y-106730800D03*
X148590000Y-86868000D03*
X148590000Y-99568000D03*
D10*
X148590000Y-84328000D03*
D11*
X148590000Y-94488000D03*
X148590000Y-97028000D03*
X148590000Y-102108000D03*
X148590000Y-89408000D03*
X148590000Y-91948000D03*
X156210000Y-102108000D03*
X156210000Y-99568000D03*
X156210000Y-97028000D03*
X156210000Y-94488000D03*
X156210000Y-91948000D03*
X156210000Y-89408000D03*
X156210000Y-86868000D03*
D10*
X156210000Y-84328000D03*
D12*
X111785400Y-80721200D02*
X111734600Y-80772000D01*
X139954000Y-111760000D02*
X139954000Y-93903800D01*
X118705999Y-73747999D02*
X117856000Y-72898000D01*
X119031001Y-74073001D02*
X118705999Y-73747999D01*
X119031001Y-75812003D02*
X119031001Y-74073001D01*
X119831999Y-76613001D02*
X119031001Y-75812003D01*
X122663201Y-76613001D02*
X119831999Y-76613001D01*
X139954000Y-93903800D02*
X122663201Y-76613001D01*
X137414000Y-94996000D02*
X137414000Y-111760000D01*
X137414000Y-94996000D02*
X117856000Y-75438000D01*
X139540999Y-71722999D02*
X139866001Y-72048001D01*
X139866001Y-72048001D02*
X140716000Y-72898000D01*
X117291999Y-71722999D02*
X139540999Y-71722999D01*
X116680999Y-72333999D02*
X117291999Y-71722999D01*
X116680999Y-77459179D02*
X116680999Y-72333999D01*
X134874000Y-95652180D02*
X116680999Y-77459179D01*
X134874000Y-111760000D02*
X134874000Y-95652180D01*
X132334000Y-110557919D02*
X132334000Y-111760000D01*
X115316000Y-72898000D02*
X115316000Y-73698998D01*
X114466001Y-73747999D02*
X115316000Y-72898000D01*
X114140999Y-74073001D02*
X114466001Y-73747999D01*
X114140999Y-76002001D02*
X114140999Y-74073001D01*
X132334000Y-94195002D02*
X114140999Y-76002001D01*
X132334000Y-111760000D02*
X132334000Y-94195002D01*
X111926001Y-73747999D02*
X112776000Y-72898000D01*
X111600999Y-74073001D02*
X111926001Y-73747999D01*
X111600999Y-76002001D02*
X111600999Y-74073001D01*
X128944001Y-93345003D02*
X111600999Y-76002001D01*
X128944001Y-110910001D02*
X128944001Y-93345003D01*
X129794000Y-111760000D02*
X128944001Y-110910001D01*
X129844800Y-116890800D02*
X124714000Y-111760000D01*
X147929600Y-116890800D02*
X129844800Y-116890800D01*
X148590000Y-102108000D02*
X148590000Y-116230400D01*
X148590000Y-116230400D02*
X147929600Y-116890800D01*
X163322000Y-88984000D02*
X161290000Y-91016000D01*
X163322000Y-87884000D02*
X163322000Y-88984000D01*
X162476000Y-101346000D02*
X163576000Y-101346000D01*
X161290000Y-100160000D02*
X162476000Y-101346000D01*
X161290000Y-91016000D02*
X161290000Y-100160000D01*
X162476000Y-113538000D02*
X163576000Y-113538000D01*
X161290000Y-112352000D02*
X162476000Y-113538000D01*
X161290000Y-100160000D02*
X161290000Y-112352000D01*
X152400000Y-119804000D02*
X152400000Y-120904000D01*
X153586000Y-118618000D02*
X152400000Y-119804000D01*
X139954000Y-119804000D02*
X139954000Y-120904000D01*
X141140000Y-118618000D02*
X139954000Y-119804000D01*
X153586000Y-118618000D02*
X141140000Y-118618000D01*
X128016000Y-119804000D02*
X128016000Y-120904000D01*
X129202000Y-118618000D02*
X128016000Y-119804000D01*
X141140000Y-118618000D02*
X129202000Y-118618000D01*
X115570000Y-119804000D02*
X115570000Y-120904000D01*
X116756000Y-118618000D02*
X115570000Y-119804000D01*
X129202000Y-118618000D02*
X116756000Y-118618000D01*
X162222000Y-87884000D02*
X163322000Y-87884000D01*
X161873001Y-88232999D02*
X162222000Y-87884000D01*
X153594999Y-88232999D02*
X161873001Y-88232999D01*
X148590000Y-84328000D02*
X149690000Y-84328000D01*
X148590000Y-85665919D02*
X148590000Y-84328000D01*
X148590000Y-86868000D02*
X148590000Y-85665919D01*
X157988000Y-118618000D02*
X153586000Y-118618000D01*
X159258000Y-118618000D02*
X157988000Y-118618000D01*
X161290000Y-112352000D02*
X161290000Y-116586000D01*
X161290000Y-116586000D02*
X159258000Y-118618000D01*
X149690000Y-84328000D02*
X153594999Y-88232999D01*
X163322000Y-82804000D02*
X164497001Y-81628999D01*
X168529000Y-103505000D02*
X163576000Y-108458000D01*
X168529000Y-91313000D02*
X168529000Y-103505000D01*
X168529000Y-91313000D02*
X163576000Y-96266000D01*
X168529000Y-103505000D02*
X168529000Y-114681000D01*
X159766000Y-123190000D02*
X157480000Y-120904000D01*
X149606000Y-125476000D02*
X145034000Y-120904000D01*
X159766000Y-125476000D02*
X149606000Y-125476000D01*
X159766000Y-125476000D02*
X159766000Y-123190000D01*
X137668000Y-125476000D02*
X133096000Y-120904000D01*
X149606000Y-125476000D02*
X137668000Y-125476000D01*
X125222000Y-125476000D02*
X120650000Y-120904000D01*
X137668000Y-125476000D02*
X125222000Y-125476000D01*
X161290000Y-123952000D02*
X159766000Y-125476000D01*
X168529000Y-114681000D02*
X162560000Y-120650000D01*
X162560000Y-120650000D02*
X161290000Y-121920000D01*
X161290000Y-121920000D02*
X161290000Y-123952000D01*
X145694400Y-86512400D02*
X148590000Y-89408000D01*
X145694400Y-82501002D02*
X145694400Y-86512400D01*
X146241401Y-81954001D02*
X145694400Y-82501002D01*
X163322000Y-82804000D02*
X162472001Y-81954001D01*
X162472001Y-81954001D02*
X146241401Y-81954001D01*
X137619002Y-82501002D02*
X130556000Y-75438000D01*
X145694400Y-82501002D02*
X137619002Y-82501002D01*
X166426001Y-81628999D02*
X164497001Y-81628999D01*
X168529000Y-83731998D02*
X166426001Y-81628999D01*
X168529000Y-91313000D02*
X168529000Y-83731998D01*
M02*
