G04 #@! TF.GenerationSoftware,KiCad,Pcbnew,(5.1.0)-1*
G04 #@! TF.CreationDate,2019-11-04T20:34:33+09:00*
G04 #@! TF.ProjectId,PakeOtiKun,50616b65-4f74-4694-9b75-6e2e6b696361,1*
G04 #@! TF.SameCoordinates,Original*
G04 #@! TF.FileFunction,Soldermask,Top*
G04 #@! TF.FilePolarity,Negative*
%FSLAX46Y46*%
G04 Gerber Fmt 4.6, Leading zero omitted, Abs format (unit mm)*
G04 Created by KiCad (PCBNEW (5.1.0)-1) date 2019-11-04 20:34:33*
%MOMM*%
%LPD*%
G04 APERTURE LIST*
%ADD10C,0.100000*%
G04 APERTURE END LIST*
D10*
G36*
X166802144Y-120605680D02*
G01*
X167302612Y-120812981D01*
X167753022Y-121113935D01*
X168136065Y-121496978D01*
X168437019Y-121947388D01*
X168644320Y-122447856D01*
X168750000Y-122979147D01*
X168750000Y-123520853D01*
X168644320Y-124052144D01*
X168437019Y-124552612D01*
X168136065Y-125003022D01*
X167753022Y-125386065D01*
X167302612Y-125687019D01*
X166802144Y-125894320D01*
X166270853Y-126000000D01*
X165729147Y-126000000D01*
X165197856Y-125894320D01*
X164697388Y-125687019D01*
X164246978Y-125386065D01*
X163863935Y-125003022D01*
X163562981Y-124552612D01*
X163355680Y-124052144D01*
X163250000Y-123520853D01*
X163250000Y-122979147D01*
X163355680Y-122447856D01*
X163562981Y-121947388D01*
X163863935Y-121496978D01*
X164246978Y-121113935D01*
X164697388Y-120812981D01*
X165197856Y-120605680D01*
X165729147Y-120500000D01*
X166270853Y-120500000D01*
X166802144Y-120605680D01*
X166802144Y-120605680D01*
G37*
G36*
X108802144Y-120605680D02*
G01*
X109302612Y-120812981D01*
X109753022Y-121113935D01*
X110136065Y-121496978D01*
X110437019Y-121947388D01*
X110644320Y-122447856D01*
X110750000Y-122979147D01*
X110750000Y-123520853D01*
X110644320Y-124052144D01*
X110437019Y-124552612D01*
X110136065Y-125003022D01*
X109753022Y-125386065D01*
X109302612Y-125687019D01*
X108802144Y-125894320D01*
X108270853Y-126000000D01*
X107729147Y-126000000D01*
X107197856Y-125894320D01*
X106697388Y-125687019D01*
X106246978Y-125386065D01*
X105863935Y-125003022D01*
X105562981Y-124552612D01*
X105355680Y-124052144D01*
X105250000Y-123520853D01*
X105250000Y-122979147D01*
X105355680Y-122447856D01*
X105562981Y-121947388D01*
X105863935Y-121496978D01*
X106246978Y-121113935D01*
X106697388Y-120812981D01*
X107197856Y-120605680D01*
X107729147Y-120500000D01*
X108270853Y-120500000D01*
X108802144Y-120605680D01*
X108802144Y-120605680D01*
G37*
G36*
X140064443Y-122549519D02*
G01*
X140130627Y-122556037D01*
X140300466Y-122607557D01*
X140456991Y-122691222D01*
X140492729Y-122720552D01*
X140594186Y-122803814D01*
X140677448Y-122905271D01*
X140706778Y-122941009D01*
X140790443Y-123097534D01*
X140841963Y-123267373D01*
X140859359Y-123444000D01*
X140841963Y-123620627D01*
X140790443Y-123790466D01*
X140706778Y-123946991D01*
X140677448Y-123982729D01*
X140594186Y-124084186D01*
X140492729Y-124167448D01*
X140456991Y-124196778D01*
X140300466Y-124280443D01*
X140130627Y-124331963D01*
X140064442Y-124338482D01*
X139998260Y-124345000D01*
X139909740Y-124345000D01*
X139843558Y-124338482D01*
X139777373Y-124331963D01*
X139607534Y-124280443D01*
X139451009Y-124196778D01*
X139415271Y-124167448D01*
X139313814Y-124084186D01*
X139230552Y-123982729D01*
X139201222Y-123946991D01*
X139117557Y-123790466D01*
X139066037Y-123620627D01*
X139048641Y-123444000D01*
X139066037Y-123267373D01*
X139117557Y-123097534D01*
X139201222Y-122941009D01*
X139230552Y-122905271D01*
X139313814Y-122803814D01*
X139415271Y-122720552D01*
X139451009Y-122691222D01*
X139607534Y-122607557D01*
X139777373Y-122556037D01*
X139843557Y-122549519D01*
X139909740Y-122543000D01*
X139998260Y-122543000D01*
X140064443Y-122549519D01*
X140064443Y-122549519D01*
G37*
G36*
X142604443Y-122549519D02*
G01*
X142670627Y-122556037D01*
X142840466Y-122607557D01*
X142996991Y-122691222D01*
X143032729Y-122720552D01*
X143134186Y-122803814D01*
X143217448Y-122905271D01*
X143246778Y-122941009D01*
X143330443Y-123097534D01*
X143381963Y-123267373D01*
X143399359Y-123444000D01*
X143381963Y-123620627D01*
X143330443Y-123790466D01*
X143246778Y-123946991D01*
X143217448Y-123982729D01*
X143134186Y-124084186D01*
X143032729Y-124167448D01*
X142996991Y-124196778D01*
X142840466Y-124280443D01*
X142670627Y-124331963D01*
X142604442Y-124338482D01*
X142538260Y-124345000D01*
X142449740Y-124345000D01*
X142383558Y-124338482D01*
X142317373Y-124331963D01*
X142147534Y-124280443D01*
X141991009Y-124196778D01*
X141955271Y-124167448D01*
X141853814Y-124084186D01*
X141770552Y-123982729D01*
X141741222Y-123946991D01*
X141657557Y-123790466D01*
X141606037Y-123620627D01*
X141588641Y-123444000D01*
X141606037Y-123267373D01*
X141657557Y-123097534D01*
X141741222Y-122941009D01*
X141770552Y-122905271D01*
X141853814Y-122803814D01*
X141955271Y-122720552D01*
X141991009Y-122691222D01*
X142147534Y-122607557D01*
X142317373Y-122556037D01*
X142383557Y-122549519D01*
X142449740Y-122543000D01*
X142538260Y-122543000D01*
X142604443Y-122549519D01*
X142604443Y-122549519D01*
G37*
G36*
X157590443Y-122549519D02*
G01*
X157656627Y-122556037D01*
X157826466Y-122607557D01*
X157982991Y-122691222D01*
X158018729Y-122720552D01*
X158120186Y-122803814D01*
X158203448Y-122905271D01*
X158232778Y-122941009D01*
X158316443Y-123097534D01*
X158367963Y-123267373D01*
X158385359Y-123444000D01*
X158367963Y-123620627D01*
X158316443Y-123790466D01*
X158232778Y-123946991D01*
X158203448Y-123982729D01*
X158120186Y-124084186D01*
X158018729Y-124167448D01*
X157982991Y-124196778D01*
X157826466Y-124280443D01*
X157656627Y-124331963D01*
X157590442Y-124338482D01*
X157524260Y-124345000D01*
X157435740Y-124345000D01*
X157369558Y-124338482D01*
X157303373Y-124331963D01*
X157133534Y-124280443D01*
X156977009Y-124196778D01*
X156941271Y-124167448D01*
X156839814Y-124084186D01*
X156756552Y-123982729D01*
X156727222Y-123946991D01*
X156643557Y-123790466D01*
X156592037Y-123620627D01*
X156574641Y-123444000D01*
X156592037Y-123267373D01*
X156643557Y-123097534D01*
X156727222Y-122941009D01*
X156756552Y-122905271D01*
X156839814Y-122803814D01*
X156941271Y-122720552D01*
X156977009Y-122691222D01*
X157133534Y-122607557D01*
X157303373Y-122556037D01*
X157369557Y-122549519D01*
X157435740Y-122543000D01*
X157524260Y-122543000D01*
X157590443Y-122549519D01*
X157590443Y-122549519D01*
G37*
G36*
X155050443Y-122549519D02*
G01*
X155116627Y-122556037D01*
X155286466Y-122607557D01*
X155442991Y-122691222D01*
X155478729Y-122720552D01*
X155580186Y-122803814D01*
X155663448Y-122905271D01*
X155692778Y-122941009D01*
X155776443Y-123097534D01*
X155827963Y-123267373D01*
X155845359Y-123444000D01*
X155827963Y-123620627D01*
X155776443Y-123790466D01*
X155692778Y-123946991D01*
X155663448Y-123982729D01*
X155580186Y-124084186D01*
X155478729Y-124167448D01*
X155442991Y-124196778D01*
X155286466Y-124280443D01*
X155116627Y-124331963D01*
X155050442Y-124338482D01*
X154984260Y-124345000D01*
X154895740Y-124345000D01*
X154829558Y-124338482D01*
X154763373Y-124331963D01*
X154593534Y-124280443D01*
X154437009Y-124196778D01*
X154401271Y-124167448D01*
X154299814Y-124084186D01*
X154216552Y-123982729D01*
X154187222Y-123946991D01*
X154103557Y-123790466D01*
X154052037Y-123620627D01*
X154034641Y-123444000D01*
X154052037Y-123267373D01*
X154103557Y-123097534D01*
X154187222Y-122941009D01*
X154216552Y-122905271D01*
X154299814Y-122803814D01*
X154401271Y-122720552D01*
X154437009Y-122691222D01*
X154593534Y-122607557D01*
X154763373Y-122556037D01*
X154829557Y-122549519D01*
X154895740Y-122543000D01*
X154984260Y-122543000D01*
X155050443Y-122549519D01*
X155050443Y-122549519D01*
G37*
G36*
X152510443Y-122549519D02*
G01*
X152576627Y-122556037D01*
X152746466Y-122607557D01*
X152902991Y-122691222D01*
X152938729Y-122720552D01*
X153040186Y-122803814D01*
X153123448Y-122905271D01*
X153152778Y-122941009D01*
X153236443Y-123097534D01*
X153287963Y-123267373D01*
X153305359Y-123444000D01*
X153287963Y-123620627D01*
X153236443Y-123790466D01*
X153152778Y-123946991D01*
X153123448Y-123982729D01*
X153040186Y-124084186D01*
X152938729Y-124167448D01*
X152902991Y-124196778D01*
X152746466Y-124280443D01*
X152576627Y-124331963D01*
X152510442Y-124338482D01*
X152444260Y-124345000D01*
X152355740Y-124345000D01*
X152289558Y-124338482D01*
X152223373Y-124331963D01*
X152053534Y-124280443D01*
X151897009Y-124196778D01*
X151861271Y-124167448D01*
X151759814Y-124084186D01*
X151676552Y-123982729D01*
X151647222Y-123946991D01*
X151563557Y-123790466D01*
X151512037Y-123620627D01*
X151494641Y-123444000D01*
X151512037Y-123267373D01*
X151563557Y-123097534D01*
X151647222Y-122941009D01*
X151676552Y-122905271D01*
X151759814Y-122803814D01*
X151861271Y-122720552D01*
X151897009Y-122691222D01*
X152053534Y-122607557D01*
X152223373Y-122556037D01*
X152289557Y-122549519D01*
X152355740Y-122543000D01*
X152444260Y-122543000D01*
X152510443Y-122549519D01*
X152510443Y-122549519D01*
G37*
G36*
X128126443Y-122549519D02*
G01*
X128192627Y-122556037D01*
X128362466Y-122607557D01*
X128518991Y-122691222D01*
X128554729Y-122720552D01*
X128656186Y-122803814D01*
X128739448Y-122905271D01*
X128768778Y-122941009D01*
X128852443Y-123097534D01*
X128903963Y-123267373D01*
X128921359Y-123444000D01*
X128903963Y-123620627D01*
X128852443Y-123790466D01*
X128768778Y-123946991D01*
X128739448Y-123982729D01*
X128656186Y-124084186D01*
X128554729Y-124167448D01*
X128518991Y-124196778D01*
X128362466Y-124280443D01*
X128192627Y-124331963D01*
X128126442Y-124338482D01*
X128060260Y-124345000D01*
X127971740Y-124345000D01*
X127905558Y-124338482D01*
X127839373Y-124331963D01*
X127669534Y-124280443D01*
X127513009Y-124196778D01*
X127477271Y-124167448D01*
X127375814Y-124084186D01*
X127292552Y-123982729D01*
X127263222Y-123946991D01*
X127179557Y-123790466D01*
X127128037Y-123620627D01*
X127110641Y-123444000D01*
X127128037Y-123267373D01*
X127179557Y-123097534D01*
X127263222Y-122941009D01*
X127292552Y-122905271D01*
X127375814Y-122803814D01*
X127477271Y-122720552D01*
X127513009Y-122691222D01*
X127669534Y-122607557D01*
X127839373Y-122556037D01*
X127905557Y-122549519D01*
X127971740Y-122543000D01*
X128060260Y-122543000D01*
X128126443Y-122549519D01*
X128126443Y-122549519D01*
G37*
G36*
X130666443Y-122549519D02*
G01*
X130732627Y-122556037D01*
X130902466Y-122607557D01*
X131058991Y-122691222D01*
X131094729Y-122720552D01*
X131196186Y-122803814D01*
X131279448Y-122905271D01*
X131308778Y-122941009D01*
X131392443Y-123097534D01*
X131443963Y-123267373D01*
X131461359Y-123444000D01*
X131443963Y-123620627D01*
X131392443Y-123790466D01*
X131308778Y-123946991D01*
X131279448Y-123982729D01*
X131196186Y-124084186D01*
X131094729Y-124167448D01*
X131058991Y-124196778D01*
X130902466Y-124280443D01*
X130732627Y-124331963D01*
X130666442Y-124338482D01*
X130600260Y-124345000D01*
X130511740Y-124345000D01*
X130445558Y-124338482D01*
X130379373Y-124331963D01*
X130209534Y-124280443D01*
X130053009Y-124196778D01*
X130017271Y-124167448D01*
X129915814Y-124084186D01*
X129832552Y-123982729D01*
X129803222Y-123946991D01*
X129719557Y-123790466D01*
X129668037Y-123620627D01*
X129650641Y-123444000D01*
X129668037Y-123267373D01*
X129719557Y-123097534D01*
X129803222Y-122941009D01*
X129832552Y-122905271D01*
X129915814Y-122803814D01*
X130017271Y-122720552D01*
X130053009Y-122691222D01*
X130209534Y-122607557D01*
X130379373Y-122556037D01*
X130445557Y-122549519D01*
X130511740Y-122543000D01*
X130600260Y-122543000D01*
X130666443Y-122549519D01*
X130666443Y-122549519D01*
G37*
G36*
X115680443Y-122549519D02*
G01*
X115746627Y-122556037D01*
X115916466Y-122607557D01*
X116072991Y-122691222D01*
X116108729Y-122720552D01*
X116210186Y-122803814D01*
X116293448Y-122905271D01*
X116322778Y-122941009D01*
X116406443Y-123097534D01*
X116457963Y-123267373D01*
X116475359Y-123444000D01*
X116457963Y-123620627D01*
X116406443Y-123790466D01*
X116322778Y-123946991D01*
X116293448Y-123982729D01*
X116210186Y-124084186D01*
X116108729Y-124167448D01*
X116072991Y-124196778D01*
X115916466Y-124280443D01*
X115746627Y-124331963D01*
X115680442Y-124338482D01*
X115614260Y-124345000D01*
X115525740Y-124345000D01*
X115459558Y-124338482D01*
X115393373Y-124331963D01*
X115223534Y-124280443D01*
X115067009Y-124196778D01*
X115031271Y-124167448D01*
X114929814Y-124084186D01*
X114846552Y-123982729D01*
X114817222Y-123946991D01*
X114733557Y-123790466D01*
X114682037Y-123620627D01*
X114664641Y-123444000D01*
X114682037Y-123267373D01*
X114733557Y-123097534D01*
X114817222Y-122941009D01*
X114846552Y-122905271D01*
X114929814Y-122803814D01*
X115031271Y-122720552D01*
X115067009Y-122691222D01*
X115223534Y-122607557D01*
X115393373Y-122556037D01*
X115459557Y-122549519D01*
X115525740Y-122543000D01*
X115614260Y-122543000D01*
X115680443Y-122549519D01*
X115680443Y-122549519D01*
G37*
G36*
X118220443Y-122549519D02*
G01*
X118286627Y-122556037D01*
X118456466Y-122607557D01*
X118612991Y-122691222D01*
X118648729Y-122720552D01*
X118750186Y-122803814D01*
X118833448Y-122905271D01*
X118862778Y-122941009D01*
X118946443Y-123097534D01*
X118997963Y-123267373D01*
X119015359Y-123444000D01*
X118997963Y-123620627D01*
X118946443Y-123790466D01*
X118862778Y-123946991D01*
X118833448Y-123982729D01*
X118750186Y-124084186D01*
X118648729Y-124167448D01*
X118612991Y-124196778D01*
X118456466Y-124280443D01*
X118286627Y-124331963D01*
X118220442Y-124338482D01*
X118154260Y-124345000D01*
X118065740Y-124345000D01*
X117999558Y-124338482D01*
X117933373Y-124331963D01*
X117763534Y-124280443D01*
X117607009Y-124196778D01*
X117571271Y-124167448D01*
X117469814Y-124084186D01*
X117386552Y-123982729D01*
X117357222Y-123946991D01*
X117273557Y-123790466D01*
X117222037Y-123620627D01*
X117204641Y-123444000D01*
X117222037Y-123267373D01*
X117273557Y-123097534D01*
X117357222Y-122941009D01*
X117386552Y-122905271D01*
X117469814Y-122803814D01*
X117571271Y-122720552D01*
X117607009Y-122691222D01*
X117763534Y-122607557D01*
X117933373Y-122556037D01*
X117999557Y-122549519D01*
X118065740Y-122543000D01*
X118154260Y-122543000D01*
X118220443Y-122549519D01*
X118220443Y-122549519D01*
G37*
G36*
X120760443Y-122549519D02*
G01*
X120826627Y-122556037D01*
X120996466Y-122607557D01*
X121152991Y-122691222D01*
X121188729Y-122720552D01*
X121290186Y-122803814D01*
X121373448Y-122905271D01*
X121402778Y-122941009D01*
X121486443Y-123097534D01*
X121537963Y-123267373D01*
X121555359Y-123444000D01*
X121537963Y-123620627D01*
X121486443Y-123790466D01*
X121402778Y-123946991D01*
X121373448Y-123982729D01*
X121290186Y-124084186D01*
X121188729Y-124167448D01*
X121152991Y-124196778D01*
X120996466Y-124280443D01*
X120826627Y-124331963D01*
X120760442Y-124338482D01*
X120694260Y-124345000D01*
X120605740Y-124345000D01*
X120539558Y-124338482D01*
X120473373Y-124331963D01*
X120303534Y-124280443D01*
X120147009Y-124196778D01*
X120111271Y-124167448D01*
X120009814Y-124084186D01*
X119926552Y-123982729D01*
X119897222Y-123946991D01*
X119813557Y-123790466D01*
X119762037Y-123620627D01*
X119744641Y-123444000D01*
X119762037Y-123267373D01*
X119813557Y-123097534D01*
X119897222Y-122941009D01*
X119926552Y-122905271D01*
X120009814Y-122803814D01*
X120111271Y-122720552D01*
X120147009Y-122691222D01*
X120303534Y-122607557D01*
X120473373Y-122556037D01*
X120539557Y-122549519D01*
X120605740Y-122543000D01*
X120694260Y-122543000D01*
X120760443Y-122549519D01*
X120760443Y-122549519D01*
G37*
G36*
X133206443Y-122549519D02*
G01*
X133272627Y-122556037D01*
X133442466Y-122607557D01*
X133598991Y-122691222D01*
X133634729Y-122720552D01*
X133736186Y-122803814D01*
X133819448Y-122905271D01*
X133848778Y-122941009D01*
X133932443Y-123097534D01*
X133983963Y-123267373D01*
X134001359Y-123444000D01*
X133983963Y-123620627D01*
X133932443Y-123790466D01*
X133848778Y-123946991D01*
X133819448Y-123982729D01*
X133736186Y-124084186D01*
X133634729Y-124167448D01*
X133598991Y-124196778D01*
X133442466Y-124280443D01*
X133272627Y-124331963D01*
X133206442Y-124338482D01*
X133140260Y-124345000D01*
X133051740Y-124345000D01*
X132985558Y-124338482D01*
X132919373Y-124331963D01*
X132749534Y-124280443D01*
X132593009Y-124196778D01*
X132557271Y-124167448D01*
X132455814Y-124084186D01*
X132372552Y-123982729D01*
X132343222Y-123946991D01*
X132259557Y-123790466D01*
X132208037Y-123620627D01*
X132190641Y-123444000D01*
X132208037Y-123267373D01*
X132259557Y-123097534D01*
X132343222Y-122941009D01*
X132372552Y-122905271D01*
X132455814Y-122803814D01*
X132557271Y-122720552D01*
X132593009Y-122691222D01*
X132749534Y-122607557D01*
X132919373Y-122556037D01*
X132985557Y-122549519D01*
X133051740Y-122543000D01*
X133140260Y-122543000D01*
X133206443Y-122549519D01*
X133206443Y-122549519D01*
G37*
G36*
X145144443Y-122549519D02*
G01*
X145210627Y-122556037D01*
X145380466Y-122607557D01*
X145536991Y-122691222D01*
X145572729Y-122720552D01*
X145674186Y-122803814D01*
X145757448Y-122905271D01*
X145786778Y-122941009D01*
X145870443Y-123097534D01*
X145921963Y-123267373D01*
X145939359Y-123444000D01*
X145921963Y-123620627D01*
X145870443Y-123790466D01*
X145786778Y-123946991D01*
X145757448Y-123982729D01*
X145674186Y-124084186D01*
X145572729Y-124167448D01*
X145536991Y-124196778D01*
X145380466Y-124280443D01*
X145210627Y-124331963D01*
X145144442Y-124338482D01*
X145078260Y-124345000D01*
X144989740Y-124345000D01*
X144923558Y-124338482D01*
X144857373Y-124331963D01*
X144687534Y-124280443D01*
X144531009Y-124196778D01*
X144495271Y-124167448D01*
X144393814Y-124084186D01*
X144310552Y-123982729D01*
X144281222Y-123946991D01*
X144197557Y-123790466D01*
X144146037Y-123620627D01*
X144128641Y-123444000D01*
X144146037Y-123267373D01*
X144197557Y-123097534D01*
X144281222Y-122941009D01*
X144310552Y-122905271D01*
X144393814Y-122803814D01*
X144495271Y-122720552D01*
X144531009Y-122691222D01*
X144687534Y-122607557D01*
X144857373Y-122556037D01*
X144923557Y-122549519D01*
X144989740Y-122543000D01*
X145078260Y-122543000D01*
X145144443Y-122549519D01*
X145144443Y-122549519D01*
G37*
G36*
X133206443Y-120009519D02*
G01*
X133272627Y-120016037D01*
X133442466Y-120067557D01*
X133598991Y-120151222D01*
X133634729Y-120180552D01*
X133736186Y-120263814D01*
X133819448Y-120365271D01*
X133848778Y-120401009D01*
X133932443Y-120557534D01*
X133983963Y-120727373D01*
X134001359Y-120904000D01*
X133983963Y-121080627D01*
X133932443Y-121250466D01*
X133848778Y-121406991D01*
X133819448Y-121442729D01*
X133736186Y-121544186D01*
X133634729Y-121627448D01*
X133598991Y-121656778D01*
X133442466Y-121740443D01*
X133272627Y-121791963D01*
X133206442Y-121798482D01*
X133140260Y-121805000D01*
X133051740Y-121805000D01*
X132985558Y-121798482D01*
X132919373Y-121791963D01*
X132749534Y-121740443D01*
X132593009Y-121656778D01*
X132557271Y-121627448D01*
X132455814Y-121544186D01*
X132372552Y-121442729D01*
X132343222Y-121406991D01*
X132259557Y-121250466D01*
X132208037Y-121080627D01*
X132190641Y-120904000D01*
X132208037Y-120727373D01*
X132259557Y-120557534D01*
X132343222Y-120401009D01*
X132372552Y-120365271D01*
X132455814Y-120263814D01*
X132557271Y-120180552D01*
X132593009Y-120151222D01*
X132749534Y-120067557D01*
X132919373Y-120016037D01*
X132985557Y-120009519D01*
X133051740Y-120003000D01*
X133140260Y-120003000D01*
X133206443Y-120009519D01*
X133206443Y-120009519D01*
G37*
G36*
X153301000Y-121805000D02*
G01*
X151499000Y-121805000D01*
X151499000Y-120003000D01*
X153301000Y-120003000D01*
X153301000Y-121805000D01*
X153301000Y-121805000D01*
G37*
G36*
X145144443Y-120009519D02*
G01*
X145210627Y-120016037D01*
X145380466Y-120067557D01*
X145536991Y-120151222D01*
X145572729Y-120180552D01*
X145674186Y-120263814D01*
X145757448Y-120365271D01*
X145786778Y-120401009D01*
X145870443Y-120557534D01*
X145921963Y-120727373D01*
X145939359Y-120904000D01*
X145921963Y-121080627D01*
X145870443Y-121250466D01*
X145786778Y-121406991D01*
X145757448Y-121442729D01*
X145674186Y-121544186D01*
X145572729Y-121627448D01*
X145536991Y-121656778D01*
X145380466Y-121740443D01*
X145210627Y-121791963D01*
X145144442Y-121798482D01*
X145078260Y-121805000D01*
X144989740Y-121805000D01*
X144923558Y-121798482D01*
X144857373Y-121791963D01*
X144687534Y-121740443D01*
X144531009Y-121656778D01*
X144495271Y-121627448D01*
X144393814Y-121544186D01*
X144310552Y-121442729D01*
X144281222Y-121406991D01*
X144197557Y-121250466D01*
X144146037Y-121080627D01*
X144128641Y-120904000D01*
X144146037Y-120727373D01*
X144197557Y-120557534D01*
X144281222Y-120401009D01*
X144310552Y-120365271D01*
X144393814Y-120263814D01*
X144495271Y-120180552D01*
X144531009Y-120151222D01*
X144687534Y-120067557D01*
X144857373Y-120016037D01*
X144923557Y-120009519D01*
X144989740Y-120003000D01*
X145078260Y-120003000D01*
X145144443Y-120009519D01*
X145144443Y-120009519D01*
G37*
G36*
X155050443Y-120009519D02*
G01*
X155116627Y-120016037D01*
X155286466Y-120067557D01*
X155442991Y-120151222D01*
X155478729Y-120180552D01*
X155580186Y-120263814D01*
X155663448Y-120365271D01*
X155692778Y-120401009D01*
X155776443Y-120557534D01*
X155827963Y-120727373D01*
X155845359Y-120904000D01*
X155827963Y-121080627D01*
X155776443Y-121250466D01*
X155692778Y-121406991D01*
X155663448Y-121442729D01*
X155580186Y-121544186D01*
X155478729Y-121627448D01*
X155442991Y-121656778D01*
X155286466Y-121740443D01*
X155116627Y-121791963D01*
X155050442Y-121798482D01*
X154984260Y-121805000D01*
X154895740Y-121805000D01*
X154829558Y-121798482D01*
X154763373Y-121791963D01*
X154593534Y-121740443D01*
X154437009Y-121656778D01*
X154401271Y-121627448D01*
X154299814Y-121544186D01*
X154216552Y-121442729D01*
X154187222Y-121406991D01*
X154103557Y-121250466D01*
X154052037Y-121080627D01*
X154034641Y-120904000D01*
X154052037Y-120727373D01*
X154103557Y-120557534D01*
X154187222Y-120401009D01*
X154216552Y-120365271D01*
X154299814Y-120263814D01*
X154401271Y-120180552D01*
X154437009Y-120151222D01*
X154593534Y-120067557D01*
X154763373Y-120016037D01*
X154829557Y-120009519D01*
X154895740Y-120003000D01*
X154984260Y-120003000D01*
X155050443Y-120009519D01*
X155050443Y-120009519D01*
G37*
G36*
X142604443Y-120009519D02*
G01*
X142670627Y-120016037D01*
X142840466Y-120067557D01*
X142996991Y-120151222D01*
X143032729Y-120180552D01*
X143134186Y-120263814D01*
X143217448Y-120365271D01*
X143246778Y-120401009D01*
X143330443Y-120557534D01*
X143381963Y-120727373D01*
X143399359Y-120904000D01*
X143381963Y-121080627D01*
X143330443Y-121250466D01*
X143246778Y-121406991D01*
X143217448Y-121442729D01*
X143134186Y-121544186D01*
X143032729Y-121627448D01*
X142996991Y-121656778D01*
X142840466Y-121740443D01*
X142670627Y-121791963D01*
X142604442Y-121798482D01*
X142538260Y-121805000D01*
X142449740Y-121805000D01*
X142383558Y-121798482D01*
X142317373Y-121791963D01*
X142147534Y-121740443D01*
X141991009Y-121656778D01*
X141955271Y-121627448D01*
X141853814Y-121544186D01*
X141770552Y-121442729D01*
X141741222Y-121406991D01*
X141657557Y-121250466D01*
X141606037Y-121080627D01*
X141588641Y-120904000D01*
X141606037Y-120727373D01*
X141657557Y-120557534D01*
X141741222Y-120401009D01*
X141770552Y-120365271D01*
X141853814Y-120263814D01*
X141955271Y-120180552D01*
X141991009Y-120151222D01*
X142147534Y-120067557D01*
X142317373Y-120016037D01*
X142383557Y-120009519D01*
X142449740Y-120003000D01*
X142538260Y-120003000D01*
X142604443Y-120009519D01*
X142604443Y-120009519D01*
G37*
G36*
X157590443Y-120009519D02*
G01*
X157656627Y-120016037D01*
X157826466Y-120067557D01*
X157982991Y-120151222D01*
X158018729Y-120180552D01*
X158120186Y-120263814D01*
X158203448Y-120365271D01*
X158232778Y-120401009D01*
X158316443Y-120557534D01*
X158367963Y-120727373D01*
X158385359Y-120904000D01*
X158367963Y-121080627D01*
X158316443Y-121250466D01*
X158232778Y-121406991D01*
X158203448Y-121442729D01*
X158120186Y-121544186D01*
X158018729Y-121627448D01*
X157982991Y-121656778D01*
X157826466Y-121740443D01*
X157656627Y-121791963D01*
X157590442Y-121798482D01*
X157524260Y-121805000D01*
X157435740Y-121805000D01*
X157369558Y-121798482D01*
X157303373Y-121791963D01*
X157133534Y-121740443D01*
X156977009Y-121656778D01*
X156941271Y-121627448D01*
X156839814Y-121544186D01*
X156756552Y-121442729D01*
X156727222Y-121406991D01*
X156643557Y-121250466D01*
X156592037Y-121080627D01*
X156574641Y-120904000D01*
X156592037Y-120727373D01*
X156643557Y-120557534D01*
X156727222Y-120401009D01*
X156756552Y-120365271D01*
X156839814Y-120263814D01*
X156941271Y-120180552D01*
X156977009Y-120151222D01*
X157133534Y-120067557D01*
X157303373Y-120016037D01*
X157369557Y-120009519D01*
X157435740Y-120003000D01*
X157524260Y-120003000D01*
X157590443Y-120009519D01*
X157590443Y-120009519D01*
G37*
G36*
X120760443Y-120009519D02*
G01*
X120826627Y-120016037D01*
X120996466Y-120067557D01*
X121152991Y-120151222D01*
X121188729Y-120180552D01*
X121290186Y-120263814D01*
X121373448Y-120365271D01*
X121402778Y-120401009D01*
X121486443Y-120557534D01*
X121537963Y-120727373D01*
X121555359Y-120904000D01*
X121537963Y-121080627D01*
X121486443Y-121250466D01*
X121402778Y-121406991D01*
X121373448Y-121442729D01*
X121290186Y-121544186D01*
X121188729Y-121627448D01*
X121152991Y-121656778D01*
X120996466Y-121740443D01*
X120826627Y-121791963D01*
X120760442Y-121798482D01*
X120694260Y-121805000D01*
X120605740Y-121805000D01*
X120539558Y-121798482D01*
X120473373Y-121791963D01*
X120303534Y-121740443D01*
X120147009Y-121656778D01*
X120111271Y-121627448D01*
X120009814Y-121544186D01*
X119926552Y-121442729D01*
X119897222Y-121406991D01*
X119813557Y-121250466D01*
X119762037Y-121080627D01*
X119744641Y-120904000D01*
X119762037Y-120727373D01*
X119813557Y-120557534D01*
X119897222Y-120401009D01*
X119926552Y-120365271D01*
X120009814Y-120263814D01*
X120111271Y-120180552D01*
X120147009Y-120151222D01*
X120303534Y-120067557D01*
X120473373Y-120016037D01*
X120539557Y-120009519D01*
X120605740Y-120003000D01*
X120694260Y-120003000D01*
X120760443Y-120009519D01*
X120760443Y-120009519D01*
G37*
G36*
X140855000Y-121805000D02*
G01*
X139053000Y-121805000D01*
X139053000Y-120003000D01*
X140855000Y-120003000D01*
X140855000Y-121805000D01*
X140855000Y-121805000D01*
G37*
G36*
X128917000Y-121805000D02*
G01*
X127115000Y-121805000D01*
X127115000Y-120003000D01*
X128917000Y-120003000D01*
X128917000Y-121805000D01*
X128917000Y-121805000D01*
G37*
G36*
X118220443Y-120009519D02*
G01*
X118286627Y-120016037D01*
X118456466Y-120067557D01*
X118612991Y-120151222D01*
X118648729Y-120180552D01*
X118750186Y-120263814D01*
X118833448Y-120365271D01*
X118862778Y-120401009D01*
X118946443Y-120557534D01*
X118997963Y-120727373D01*
X119015359Y-120904000D01*
X118997963Y-121080627D01*
X118946443Y-121250466D01*
X118862778Y-121406991D01*
X118833448Y-121442729D01*
X118750186Y-121544186D01*
X118648729Y-121627448D01*
X118612991Y-121656778D01*
X118456466Y-121740443D01*
X118286627Y-121791963D01*
X118220442Y-121798482D01*
X118154260Y-121805000D01*
X118065740Y-121805000D01*
X117999558Y-121798482D01*
X117933373Y-121791963D01*
X117763534Y-121740443D01*
X117607009Y-121656778D01*
X117571271Y-121627448D01*
X117469814Y-121544186D01*
X117386552Y-121442729D01*
X117357222Y-121406991D01*
X117273557Y-121250466D01*
X117222037Y-121080627D01*
X117204641Y-120904000D01*
X117222037Y-120727373D01*
X117273557Y-120557534D01*
X117357222Y-120401009D01*
X117386552Y-120365271D01*
X117469814Y-120263814D01*
X117571271Y-120180552D01*
X117607009Y-120151222D01*
X117763534Y-120067557D01*
X117933373Y-120016037D01*
X117999557Y-120009519D01*
X118065740Y-120003000D01*
X118154260Y-120003000D01*
X118220443Y-120009519D01*
X118220443Y-120009519D01*
G37*
G36*
X130666443Y-120009519D02*
G01*
X130732627Y-120016037D01*
X130902466Y-120067557D01*
X131058991Y-120151222D01*
X131094729Y-120180552D01*
X131196186Y-120263814D01*
X131279448Y-120365271D01*
X131308778Y-120401009D01*
X131392443Y-120557534D01*
X131443963Y-120727373D01*
X131461359Y-120904000D01*
X131443963Y-121080627D01*
X131392443Y-121250466D01*
X131308778Y-121406991D01*
X131279448Y-121442729D01*
X131196186Y-121544186D01*
X131094729Y-121627448D01*
X131058991Y-121656778D01*
X130902466Y-121740443D01*
X130732627Y-121791963D01*
X130666442Y-121798482D01*
X130600260Y-121805000D01*
X130511740Y-121805000D01*
X130445558Y-121798482D01*
X130379373Y-121791963D01*
X130209534Y-121740443D01*
X130053009Y-121656778D01*
X130017271Y-121627448D01*
X129915814Y-121544186D01*
X129832552Y-121442729D01*
X129803222Y-121406991D01*
X129719557Y-121250466D01*
X129668037Y-121080627D01*
X129650641Y-120904000D01*
X129668037Y-120727373D01*
X129719557Y-120557534D01*
X129803222Y-120401009D01*
X129832552Y-120365271D01*
X129915814Y-120263814D01*
X130017271Y-120180552D01*
X130053009Y-120151222D01*
X130209534Y-120067557D01*
X130379373Y-120016037D01*
X130445557Y-120009519D01*
X130511740Y-120003000D01*
X130600260Y-120003000D01*
X130666443Y-120009519D01*
X130666443Y-120009519D01*
G37*
G36*
X116471000Y-121805000D02*
G01*
X114669000Y-121805000D01*
X114669000Y-120003000D01*
X116471000Y-120003000D01*
X116471000Y-121805000D01*
X116471000Y-121805000D01*
G37*
G36*
X164477000Y-114439000D02*
G01*
X162675000Y-114439000D01*
X162675000Y-112637000D01*
X164477000Y-112637000D01*
X164477000Y-114439000D01*
X164477000Y-114439000D01*
G37*
G36*
X166226443Y-112643519D02*
G01*
X166292627Y-112650037D01*
X166462466Y-112701557D01*
X166618991Y-112785222D01*
X166654729Y-112814552D01*
X166756186Y-112897814D01*
X166839448Y-112999271D01*
X166868778Y-113035009D01*
X166952443Y-113191534D01*
X167003963Y-113361373D01*
X167021359Y-113538000D01*
X167003963Y-113714627D01*
X166952443Y-113884466D01*
X166868778Y-114040991D01*
X166839448Y-114076729D01*
X166756186Y-114178186D01*
X166654729Y-114261448D01*
X166618991Y-114290778D01*
X166462466Y-114374443D01*
X166292627Y-114425963D01*
X166226443Y-114432481D01*
X166160260Y-114439000D01*
X166071740Y-114439000D01*
X166005557Y-114432481D01*
X165939373Y-114425963D01*
X165769534Y-114374443D01*
X165613009Y-114290778D01*
X165577271Y-114261448D01*
X165475814Y-114178186D01*
X165392552Y-114076729D01*
X165363222Y-114040991D01*
X165279557Y-113884466D01*
X165228037Y-113714627D01*
X165210641Y-113538000D01*
X165228037Y-113361373D01*
X165279557Y-113191534D01*
X165363222Y-113035009D01*
X165392552Y-112999271D01*
X165475814Y-112897814D01*
X165577271Y-112814552D01*
X165613009Y-112785222D01*
X165769534Y-112701557D01*
X165939373Y-112650037D01*
X166005557Y-112643519D01*
X166071740Y-112637000D01*
X166160260Y-112637000D01*
X166226443Y-112643519D01*
X166226443Y-112643519D01*
G37*
G36*
X127364442Y-110865518D02*
G01*
X127430627Y-110872037D01*
X127600466Y-110923557D01*
X127756991Y-111007222D01*
X127792729Y-111036552D01*
X127894186Y-111119814D01*
X127977448Y-111221271D01*
X128006778Y-111257009D01*
X128090443Y-111413534D01*
X128141963Y-111583373D01*
X128159359Y-111760000D01*
X128141963Y-111936627D01*
X128090443Y-112106466D01*
X128006778Y-112262991D01*
X127977448Y-112298729D01*
X127894186Y-112400186D01*
X127792729Y-112483448D01*
X127756991Y-112512778D01*
X127600466Y-112596443D01*
X127430627Y-112647963D01*
X127364442Y-112654482D01*
X127298260Y-112661000D01*
X127209740Y-112661000D01*
X127143558Y-112654482D01*
X127077373Y-112647963D01*
X126907534Y-112596443D01*
X126751009Y-112512778D01*
X126715271Y-112483448D01*
X126613814Y-112400186D01*
X126530552Y-112298729D01*
X126501222Y-112262991D01*
X126417557Y-112106466D01*
X126366037Y-111936627D01*
X126348641Y-111760000D01*
X126366037Y-111583373D01*
X126417557Y-111413534D01*
X126501222Y-111257009D01*
X126530552Y-111221271D01*
X126613814Y-111119814D01*
X126715271Y-111036552D01*
X126751009Y-111007222D01*
X126907534Y-110923557D01*
X127077373Y-110872037D01*
X127143558Y-110865518D01*
X127209740Y-110859000D01*
X127298260Y-110859000D01*
X127364442Y-110865518D01*
X127364442Y-110865518D01*
G37*
G36*
X140855000Y-112661000D02*
G01*
X139053000Y-112661000D01*
X139053000Y-110859000D01*
X140855000Y-110859000D01*
X140855000Y-112661000D01*
X140855000Y-112661000D01*
G37*
G36*
X124824442Y-110865518D02*
G01*
X124890627Y-110872037D01*
X125060466Y-110923557D01*
X125216991Y-111007222D01*
X125252729Y-111036552D01*
X125354186Y-111119814D01*
X125437448Y-111221271D01*
X125466778Y-111257009D01*
X125550443Y-111413534D01*
X125601963Y-111583373D01*
X125619359Y-111760000D01*
X125601963Y-111936627D01*
X125550443Y-112106466D01*
X125466778Y-112262991D01*
X125437448Y-112298729D01*
X125354186Y-112400186D01*
X125252729Y-112483448D01*
X125216991Y-112512778D01*
X125060466Y-112596443D01*
X124890627Y-112647963D01*
X124824442Y-112654482D01*
X124758260Y-112661000D01*
X124669740Y-112661000D01*
X124603558Y-112654482D01*
X124537373Y-112647963D01*
X124367534Y-112596443D01*
X124211009Y-112512778D01*
X124175271Y-112483448D01*
X124073814Y-112400186D01*
X123990552Y-112298729D01*
X123961222Y-112262991D01*
X123877557Y-112106466D01*
X123826037Y-111936627D01*
X123808641Y-111760000D01*
X123826037Y-111583373D01*
X123877557Y-111413534D01*
X123961222Y-111257009D01*
X123990552Y-111221271D01*
X124073814Y-111119814D01*
X124175271Y-111036552D01*
X124211009Y-111007222D01*
X124367534Y-110923557D01*
X124537373Y-110872037D01*
X124603558Y-110865518D01*
X124669740Y-110859000D01*
X124758260Y-110859000D01*
X124824442Y-110865518D01*
X124824442Y-110865518D01*
G37*
G36*
X129904442Y-110865518D02*
G01*
X129970627Y-110872037D01*
X130140466Y-110923557D01*
X130296991Y-111007222D01*
X130332729Y-111036552D01*
X130434186Y-111119814D01*
X130517448Y-111221271D01*
X130546778Y-111257009D01*
X130630443Y-111413534D01*
X130681963Y-111583373D01*
X130699359Y-111760000D01*
X130681963Y-111936627D01*
X130630443Y-112106466D01*
X130546778Y-112262991D01*
X130517448Y-112298729D01*
X130434186Y-112400186D01*
X130332729Y-112483448D01*
X130296991Y-112512778D01*
X130140466Y-112596443D01*
X129970627Y-112647963D01*
X129904442Y-112654482D01*
X129838260Y-112661000D01*
X129749740Y-112661000D01*
X129683558Y-112654482D01*
X129617373Y-112647963D01*
X129447534Y-112596443D01*
X129291009Y-112512778D01*
X129255271Y-112483448D01*
X129153814Y-112400186D01*
X129070552Y-112298729D01*
X129041222Y-112262991D01*
X128957557Y-112106466D01*
X128906037Y-111936627D01*
X128888641Y-111760000D01*
X128906037Y-111583373D01*
X128957557Y-111413534D01*
X129041222Y-111257009D01*
X129070552Y-111221271D01*
X129153814Y-111119814D01*
X129255271Y-111036552D01*
X129291009Y-111007222D01*
X129447534Y-110923557D01*
X129617373Y-110872037D01*
X129683558Y-110865518D01*
X129749740Y-110859000D01*
X129838260Y-110859000D01*
X129904442Y-110865518D01*
X129904442Y-110865518D01*
G37*
G36*
X137524442Y-110865518D02*
G01*
X137590627Y-110872037D01*
X137760466Y-110923557D01*
X137916991Y-111007222D01*
X137952729Y-111036552D01*
X138054186Y-111119814D01*
X138137448Y-111221271D01*
X138166778Y-111257009D01*
X138250443Y-111413534D01*
X138301963Y-111583373D01*
X138319359Y-111760000D01*
X138301963Y-111936627D01*
X138250443Y-112106466D01*
X138166778Y-112262991D01*
X138137448Y-112298729D01*
X138054186Y-112400186D01*
X137952729Y-112483448D01*
X137916991Y-112512778D01*
X137760466Y-112596443D01*
X137590627Y-112647963D01*
X137524442Y-112654482D01*
X137458260Y-112661000D01*
X137369740Y-112661000D01*
X137303558Y-112654482D01*
X137237373Y-112647963D01*
X137067534Y-112596443D01*
X136911009Y-112512778D01*
X136875271Y-112483448D01*
X136773814Y-112400186D01*
X136690552Y-112298729D01*
X136661222Y-112262991D01*
X136577557Y-112106466D01*
X136526037Y-111936627D01*
X136508641Y-111760000D01*
X136526037Y-111583373D01*
X136577557Y-111413534D01*
X136661222Y-111257009D01*
X136690552Y-111221271D01*
X136773814Y-111119814D01*
X136875271Y-111036552D01*
X136911009Y-111007222D01*
X137067534Y-110923557D01*
X137237373Y-110872037D01*
X137303558Y-110865518D01*
X137369740Y-110859000D01*
X137458260Y-110859000D01*
X137524442Y-110865518D01*
X137524442Y-110865518D01*
G37*
G36*
X134984442Y-110865518D02*
G01*
X135050627Y-110872037D01*
X135220466Y-110923557D01*
X135376991Y-111007222D01*
X135412729Y-111036552D01*
X135514186Y-111119814D01*
X135597448Y-111221271D01*
X135626778Y-111257009D01*
X135710443Y-111413534D01*
X135761963Y-111583373D01*
X135779359Y-111760000D01*
X135761963Y-111936627D01*
X135710443Y-112106466D01*
X135626778Y-112262991D01*
X135597448Y-112298729D01*
X135514186Y-112400186D01*
X135412729Y-112483448D01*
X135376991Y-112512778D01*
X135220466Y-112596443D01*
X135050627Y-112647963D01*
X134984442Y-112654482D01*
X134918260Y-112661000D01*
X134829740Y-112661000D01*
X134763558Y-112654482D01*
X134697373Y-112647963D01*
X134527534Y-112596443D01*
X134371009Y-112512778D01*
X134335271Y-112483448D01*
X134233814Y-112400186D01*
X134150552Y-112298729D01*
X134121222Y-112262991D01*
X134037557Y-112106466D01*
X133986037Y-111936627D01*
X133968641Y-111760000D01*
X133986037Y-111583373D01*
X134037557Y-111413534D01*
X134121222Y-111257009D01*
X134150552Y-111221271D01*
X134233814Y-111119814D01*
X134335271Y-111036552D01*
X134371009Y-111007222D01*
X134527534Y-110923557D01*
X134697373Y-110872037D01*
X134763558Y-110865518D01*
X134829740Y-110859000D01*
X134918260Y-110859000D01*
X134984442Y-110865518D01*
X134984442Y-110865518D01*
G37*
G36*
X132444442Y-110865518D02*
G01*
X132510627Y-110872037D01*
X132680466Y-110923557D01*
X132836991Y-111007222D01*
X132872729Y-111036552D01*
X132974186Y-111119814D01*
X133057448Y-111221271D01*
X133086778Y-111257009D01*
X133170443Y-111413534D01*
X133221963Y-111583373D01*
X133239359Y-111760000D01*
X133221963Y-111936627D01*
X133170443Y-112106466D01*
X133086778Y-112262991D01*
X133057448Y-112298729D01*
X132974186Y-112400186D01*
X132872729Y-112483448D01*
X132836991Y-112512778D01*
X132680466Y-112596443D01*
X132510627Y-112647963D01*
X132444442Y-112654482D01*
X132378260Y-112661000D01*
X132289740Y-112661000D01*
X132223558Y-112654482D01*
X132157373Y-112647963D01*
X131987534Y-112596443D01*
X131831009Y-112512778D01*
X131795271Y-112483448D01*
X131693814Y-112400186D01*
X131610552Y-112298729D01*
X131581222Y-112262991D01*
X131497557Y-112106466D01*
X131446037Y-111936627D01*
X131428641Y-111760000D01*
X131446037Y-111583373D01*
X131497557Y-111413534D01*
X131581222Y-111257009D01*
X131610552Y-111221271D01*
X131693814Y-111119814D01*
X131795271Y-111036552D01*
X131831009Y-111007222D01*
X131987534Y-110923557D01*
X132157373Y-110872037D01*
X132223558Y-110865518D01*
X132289740Y-110859000D01*
X132378260Y-110859000D01*
X132444442Y-110865518D01*
X132444442Y-110865518D01*
G37*
G36*
X166226443Y-110103519D02*
G01*
X166292627Y-110110037D01*
X166462466Y-110161557D01*
X166618991Y-110245222D01*
X166654729Y-110274552D01*
X166756186Y-110357814D01*
X166839448Y-110459271D01*
X166868778Y-110495009D01*
X166952443Y-110651534D01*
X167003963Y-110821373D01*
X167021359Y-110998000D01*
X167003963Y-111174627D01*
X166952443Y-111344466D01*
X166868778Y-111500991D01*
X166839448Y-111536729D01*
X166756186Y-111638186D01*
X166654729Y-111721448D01*
X166618991Y-111750778D01*
X166462466Y-111834443D01*
X166292627Y-111885963D01*
X166226442Y-111892482D01*
X166160260Y-111899000D01*
X166071740Y-111899000D01*
X166005558Y-111892482D01*
X165939373Y-111885963D01*
X165769534Y-111834443D01*
X165613009Y-111750778D01*
X165577271Y-111721448D01*
X165475814Y-111638186D01*
X165392552Y-111536729D01*
X165363222Y-111500991D01*
X165279557Y-111344466D01*
X165228037Y-111174627D01*
X165210641Y-110998000D01*
X165228037Y-110821373D01*
X165279557Y-110651534D01*
X165363222Y-110495009D01*
X165392552Y-110459271D01*
X165475814Y-110357814D01*
X165577271Y-110274552D01*
X165613009Y-110245222D01*
X165769534Y-110161557D01*
X165939373Y-110110037D01*
X166005557Y-110103519D01*
X166071740Y-110097000D01*
X166160260Y-110097000D01*
X166226443Y-110103519D01*
X166226443Y-110103519D01*
G37*
G36*
X163686443Y-110103519D02*
G01*
X163752627Y-110110037D01*
X163922466Y-110161557D01*
X164078991Y-110245222D01*
X164114729Y-110274552D01*
X164216186Y-110357814D01*
X164299448Y-110459271D01*
X164328778Y-110495009D01*
X164412443Y-110651534D01*
X164463963Y-110821373D01*
X164481359Y-110998000D01*
X164463963Y-111174627D01*
X164412443Y-111344466D01*
X164328778Y-111500991D01*
X164299448Y-111536729D01*
X164216186Y-111638186D01*
X164114729Y-111721448D01*
X164078991Y-111750778D01*
X163922466Y-111834443D01*
X163752627Y-111885963D01*
X163686442Y-111892482D01*
X163620260Y-111899000D01*
X163531740Y-111899000D01*
X163465558Y-111892482D01*
X163399373Y-111885963D01*
X163229534Y-111834443D01*
X163073009Y-111750778D01*
X163037271Y-111721448D01*
X162935814Y-111638186D01*
X162852552Y-111536729D01*
X162823222Y-111500991D01*
X162739557Y-111344466D01*
X162688037Y-111174627D01*
X162670641Y-110998000D01*
X162688037Y-110821373D01*
X162739557Y-110651534D01*
X162823222Y-110495009D01*
X162852552Y-110459271D01*
X162935814Y-110357814D01*
X163037271Y-110274552D01*
X163073009Y-110245222D01*
X163229534Y-110161557D01*
X163399373Y-110110037D01*
X163465557Y-110103519D01*
X163531740Y-110097000D01*
X163620260Y-110097000D01*
X163686443Y-110103519D01*
X163686443Y-110103519D01*
G37*
G36*
X163686443Y-107563519D02*
G01*
X163752627Y-107570037D01*
X163922466Y-107621557D01*
X164078991Y-107705222D01*
X164114729Y-107734552D01*
X164216186Y-107817814D01*
X164299448Y-107919271D01*
X164328778Y-107955009D01*
X164412443Y-108111534D01*
X164463963Y-108281373D01*
X164481359Y-108458000D01*
X164463963Y-108634627D01*
X164412443Y-108804466D01*
X164328778Y-108960991D01*
X164299448Y-108996729D01*
X164216186Y-109098186D01*
X164114729Y-109181448D01*
X164078991Y-109210778D01*
X163922466Y-109294443D01*
X163752627Y-109345963D01*
X163686443Y-109352481D01*
X163620260Y-109359000D01*
X163531740Y-109359000D01*
X163465557Y-109352481D01*
X163399373Y-109345963D01*
X163229534Y-109294443D01*
X163073009Y-109210778D01*
X163037271Y-109181448D01*
X162935814Y-109098186D01*
X162852552Y-108996729D01*
X162823222Y-108960991D01*
X162739557Y-108804466D01*
X162688037Y-108634627D01*
X162670641Y-108458000D01*
X162688037Y-108281373D01*
X162739557Y-108111534D01*
X162823222Y-107955009D01*
X162852552Y-107919271D01*
X162935814Y-107817814D01*
X163037271Y-107734552D01*
X163073009Y-107705222D01*
X163229534Y-107621557D01*
X163399373Y-107570037D01*
X163465557Y-107563519D01*
X163531740Y-107557000D01*
X163620260Y-107557000D01*
X163686443Y-107563519D01*
X163686443Y-107563519D01*
G37*
G36*
X166226443Y-107563519D02*
G01*
X166292627Y-107570037D01*
X166462466Y-107621557D01*
X166618991Y-107705222D01*
X166654729Y-107734552D01*
X166756186Y-107817814D01*
X166839448Y-107919271D01*
X166868778Y-107955009D01*
X166952443Y-108111534D01*
X167003963Y-108281373D01*
X167021359Y-108458000D01*
X167003963Y-108634627D01*
X166952443Y-108804466D01*
X166868778Y-108960991D01*
X166839448Y-108996729D01*
X166756186Y-109098186D01*
X166654729Y-109181448D01*
X166618991Y-109210778D01*
X166462466Y-109294443D01*
X166292627Y-109345963D01*
X166226443Y-109352481D01*
X166160260Y-109359000D01*
X166071740Y-109359000D01*
X166005557Y-109352481D01*
X165939373Y-109345963D01*
X165769534Y-109294443D01*
X165613009Y-109210778D01*
X165577271Y-109181448D01*
X165475814Y-109098186D01*
X165392552Y-108996729D01*
X165363222Y-108960991D01*
X165279557Y-108804466D01*
X165228037Y-108634627D01*
X165210641Y-108458000D01*
X165228037Y-108281373D01*
X165279557Y-108111534D01*
X165363222Y-107955009D01*
X165392552Y-107919271D01*
X165475814Y-107817814D01*
X165577271Y-107734552D01*
X165613009Y-107705222D01*
X165769534Y-107621557D01*
X165939373Y-107570037D01*
X166005557Y-107563519D01*
X166071740Y-107557000D01*
X166160260Y-107557000D01*
X166226443Y-107563519D01*
X166226443Y-107563519D01*
G37*
G36*
X114461242Y-105836318D02*
G01*
X114527427Y-105842837D01*
X114697266Y-105894357D01*
X114853791Y-105978022D01*
X114889529Y-106007352D01*
X114990986Y-106090614D01*
X115074248Y-106192071D01*
X115103578Y-106227809D01*
X115187243Y-106384334D01*
X115238763Y-106554173D01*
X115256159Y-106730800D01*
X115238763Y-106907427D01*
X115187243Y-107077266D01*
X115103578Y-107233791D01*
X115074248Y-107269529D01*
X114990986Y-107370986D01*
X114889529Y-107454248D01*
X114853791Y-107483578D01*
X114697266Y-107567243D01*
X114527427Y-107618763D01*
X114461243Y-107625281D01*
X114395060Y-107631800D01*
X114306540Y-107631800D01*
X114240357Y-107625281D01*
X114174173Y-107618763D01*
X114004334Y-107567243D01*
X113847809Y-107483578D01*
X113812071Y-107454248D01*
X113710614Y-107370986D01*
X113627352Y-107269529D01*
X113598022Y-107233791D01*
X113514357Y-107077266D01*
X113462837Y-106907427D01*
X113445441Y-106730800D01*
X113462837Y-106554173D01*
X113514357Y-106384334D01*
X113598022Y-106227809D01*
X113627352Y-106192071D01*
X113710614Y-106090614D01*
X113812071Y-106007352D01*
X113847809Y-105978022D01*
X114004334Y-105894357D01*
X114174173Y-105842837D01*
X114240358Y-105836318D01*
X114306540Y-105829800D01*
X114395060Y-105829800D01*
X114461242Y-105836318D01*
X114461242Y-105836318D01*
G37*
G36*
X106841242Y-105836318D02*
G01*
X106907427Y-105842837D01*
X107077266Y-105894357D01*
X107233791Y-105978022D01*
X107269529Y-106007352D01*
X107370986Y-106090614D01*
X107454248Y-106192071D01*
X107483578Y-106227809D01*
X107567243Y-106384334D01*
X107618763Y-106554173D01*
X107636159Y-106730800D01*
X107618763Y-106907427D01*
X107567243Y-107077266D01*
X107483578Y-107233791D01*
X107454248Y-107269529D01*
X107370986Y-107370986D01*
X107269529Y-107454248D01*
X107233791Y-107483578D01*
X107077266Y-107567243D01*
X106907427Y-107618763D01*
X106841243Y-107625281D01*
X106775060Y-107631800D01*
X106686540Y-107631800D01*
X106620357Y-107625281D01*
X106554173Y-107618763D01*
X106384334Y-107567243D01*
X106227809Y-107483578D01*
X106192071Y-107454248D01*
X106090614Y-107370986D01*
X106007352Y-107269529D01*
X105978022Y-107233791D01*
X105894357Y-107077266D01*
X105842837Y-106907427D01*
X105825441Y-106730800D01*
X105842837Y-106554173D01*
X105894357Y-106384334D01*
X105978022Y-106227809D01*
X106007352Y-106192071D01*
X106090614Y-106090614D01*
X106192071Y-106007352D01*
X106227809Y-105978022D01*
X106384334Y-105894357D01*
X106554173Y-105842837D01*
X106620358Y-105836318D01*
X106686540Y-105829800D01*
X106775060Y-105829800D01*
X106841242Y-105836318D01*
X106841242Y-105836318D01*
G37*
G36*
X106841242Y-103296318D02*
G01*
X106907427Y-103302837D01*
X107077266Y-103354357D01*
X107233791Y-103438022D01*
X107269529Y-103467352D01*
X107370986Y-103550614D01*
X107454248Y-103652071D01*
X107483578Y-103687809D01*
X107567243Y-103844334D01*
X107618763Y-104014173D01*
X107636159Y-104190800D01*
X107618763Y-104367427D01*
X107567243Y-104537266D01*
X107483578Y-104693791D01*
X107454248Y-104729529D01*
X107370986Y-104830986D01*
X107269529Y-104914248D01*
X107233791Y-104943578D01*
X107077266Y-105027243D01*
X106907427Y-105078763D01*
X106841242Y-105085282D01*
X106775060Y-105091800D01*
X106686540Y-105091800D01*
X106620358Y-105085282D01*
X106554173Y-105078763D01*
X106384334Y-105027243D01*
X106227809Y-104943578D01*
X106192071Y-104914248D01*
X106090614Y-104830986D01*
X106007352Y-104729529D01*
X105978022Y-104693791D01*
X105894357Y-104537266D01*
X105842837Y-104367427D01*
X105825441Y-104190800D01*
X105842837Y-104014173D01*
X105894357Y-103844334D01*
X105978022Y-103687809D01*
X106007352Y-103652071D01*
X106090614Y-103550614D01*
X106192071Y-103467352D01*
X106227809Y-103438022D01*
X106384334Y-103354357D01*
X106554173Y-103302837D01*
X106620358Y-103296318D01*
X106686540Y-103289800D01*
X106775060Y-103289800D01*
X106841242Y-103296318D01*
X106841242Y-103296318D01*
G37*
G36*
X114461242Y-103296318D02*
G01*
X114527427Y-103302837D01*
X114697266Y-103354357D01*
X114853791Y-103438022D01*
X114889529Y-103467352D01*
X114990986Y-103550614D01*
X115074248Y-103652071D01*
X115103578Y-103687809D01*
X115187243Y-103844334D01*
X115238763Y-104014173D01*
X115256159Y-104190800D01*
X115238763Y-104367427D01*
X115187243Y-104537266D01*
X115103578Y-104693791D01*
X115074248Y-104729529D01*
X114990986Y-104830986D01*
X114889529Y-104914248D01*
X114853791Y-104943578D01*
X114697266Y-105027243D01*
X114527427Y-105078763D01*
X114461242Y-105085282D01*
X114395060Y-105091800D01*
X114306540Y-105091800D01*
X114240358Y-105085282D01*
X114174173Y-105078763D01*
X114004334Y-105027243D01*
X113847809Y-104943578D01*
X113812071Y-104914248D01*
X113710614Y-104830986D01*
X113627352Y-104729529D01*
X113598022Y-104693791D01*
X113514357Y-104537266D01*
X113462837Y-104367427D01*
X113445441Y-104190800D01*
X113462837Y-104014173D01*
X113514357Y-103844334D01*
X113598022Y-103687809D01*
X113627352Y-103652071D01*
X113710614Y-103550614D01*
X113812071Y-103467352D01*
X113847809Y-103438022D01*
X114004334Y-103354357D01*
X114174173Y-103302837D01*
X114240358Y-103296318D01*
X114306540Y-103289800D01*
X114395060Y-103289800D01*
X114461242Y-103296318D01*
X114461242Y-103296318D01*
G37*
G36*
X156320442Y-101213518D02*
G01*
X156386627Y-101220037D01*
X156556466Y-101271557D01*
X156712991Y-101355222D01*
X156748729Y-101384552D01*
X156850186Y-101467814D01*
X156933448Y-101569271D01*
X156962778Y-101605009D01*
X157046443Y-101761534D01*
X157097963Y-101931373D01*
X157115359Y-102108000D01*
X157097963Y-102284627D01*
X157046443Y-102454466D01*
X156962778Y-102610991D01*
X156933448Y-102646729D01*
X156850186Y-102748186D01*
X156748729Y-102831448D01*
X156712991Y-102860778D01*
X156556466Y-102944443D01*
X156386627Y-102995963D01*
X156320443Y-103002481D01*
X156254260Y-103009000D01*
X156165740Y-103009000D01*
X156099558Y-103002482D01*
X156033373Y-102995963D01*
X155863534Y-102944443D01*
X155707009Y-102860778D01*
X155671271Y-102831448D01*
X155569814Y-102748186D01*
X155486552Y-102646729D01*
X155457222Y-102610991D01*
X155373557Y-102454466D01*
X155322037Y-102284627D01*
X155304641Y-102108000D01*
X155322037Y-101931373D01*
X155373557Y-101761534D01*
X155457222Y-101605009D01*
X155486552Y-101569271D01*
X155569814Y-101467814D01*
X155671271Y-101384552D01*
X155707009Y-101355222D01*
X155863534Y-101271557D01*
X156033373Y-101220037D01*
X156099557Y-101213519D01*
X156165740Y-101207000D01*
X156254260Y-101207000D01*
X156320442Y-101213518D01*
X156320442Y-101213518D01*
G37*
G36*
X148700442Y-101213518D02*
G01*
X148766627Y-101220037D01*
X148936466Y-101271557D01*
X149092991Y-101355222D01*
X149128729Y-101384552D01*
X149230186Y-101467814D01*
X149313448Y-101569271D01*
X149342778Y-101605009D01*
X149426443Y-101761534D01*
X149477963Y-101931373D01*
X149495359Y-102108000D01*
X149477963Y-102284627D01*
X149426443Y-102454466D01*
X149342778Y-102610991D01*
X149313448Y-102646729D01*
X149230186Y-102748186D01*
X149128729Y-102831448D01*
X149092991Y-102860778D01*
X148936466Y-102944443D01*
X148766627Y-102995963D01*
X148700443Y-103002481D01*
X148634260Y-103009000D01*
X148545740Y-103009000D01*
X148479558Y-103002482D01*
X148413373Y-102995963D01*
X148243534Y-102944443D01*
X148087009Y-102860778D01*
X148051271Y-102831448D01*
X147949814Y-102748186D01*
X147866552Y-102646729D01*
X147837222Y-102610991D01*
X147753557Y-102454466D01*
X147702037Y-102284627D01*
X147684641Y-102108000D01*
X147702037Y-101931373D01*
X147753557Y-101761534D01*
X147837222Y-101605009D01*
X147866552Y-101569271D01*
X147949814Y-101467814D01*
X148051271Y-101384552D01*
X148087009Y-101355222D01*
X148243534Y-101271557D01*
X148413373Y-101220037D01*
X148479557Y-101213519D01*
X148545740Y-101207000D01*
X148634260Y-101207000D01*
X148700442Y-101213518D01*
X148700442Y-101213518D01*
G37*
G36*
X115251800Y-102551800D02*
G01*
X113449800Y-102551800D01*
X113449800Y-100749800D01*
X115251800Y-100749800D01*
X115251800Y-102551800D01*
X115251800Y-102551800D01*
G37*
G36*
X107631800Y-102551800D02*
G01*
X105829800Y-102551800D01*
X105829800Y-100749800D01*
X107631800Y-100749800D01*
X107631800Y-102551800D01*
X107631800Y-102551800D01*
G37*
G36*
X164477000Y-102247000D02*
G01*
X162675000Y-102247000D01*
X162675000Y-100445000D01*
X164477000Y-100445000D01*
X164477000Y-102247000D01*
X164477000Y-102247000D01*
G37*
G36*
X166226443Y-100451519D02*
G01*
X166292627Y-100458037D01*
X166462466Y-100509557D01*
X166618991Y-100593222D01*
X166654729Y-100622552D01*
X166756186Y-100705814D01*
X166839448Y-100807271D01*
X166868778Y-100843009D01*
X166952443Y-100999534D01*
X167003963Y-101169373D01*
X167021359Y-101346000D01*
X167003963Y-101522627D01*
X166952443Y-101692466D01*
X166868778Y-101848991D01*
X166839448Y-101884729D01*
X166756186Y-101986186D01*
X166654729Y-102069448D01*
X166618991Y-102098778D01*
X166462466Y-102182443D01*
X166292627Y-102233963D01*
X166226443Y-102240481D01*
X166160260Y-102247000D01*
X166071740Y-102247000D01*
X166005557Y-102240481D01*
X165939373Y-102233963D01*
X165769534Y-102182443D01*
X165613009Y-102098778D01*
X165577271Y-102069448D01*
X165475814Y-101986186D01*
X165392552Y-101884729D01*
X165363222Y-101848991D01*
X165279557Y-101692466D01*
X165228037Y-101522627D01*
X165210641Y-101346000D01*
X165228037Y-101169373D01*
X165279557Y-100999534D01*
X165363222Y-100843009D01*
X165392552Y-100807271D01*
X165475814Y-100705814D01*
X165577271Y-100622552D01*
X165613009Y-100593222D01*
X165769534Y-100509557D01*
X165939373Y-100458037D01*
X166005557Y-100451519D01*
X166071740Y-100445000D01*
X166160260Y-100445000D01*
X166226443Y-100451519D01*
X166226443Y-100451519D01*
G37*
G36*
X156320442Y-98673518D02*
G01*
X156386627Y-98680037D01*
X156556466Y-98731557D01*
X156712991Y-98815222D01*
X156748729Y-98844552D01*
X156850186Y-98927814D01*
X156933448Y-99029271D01*
X156962778Y-99065009D01*
X157046443Y-99221534D01*
X157097963Y-99391373D01*
X157115359Y-99568000D01*
X157097963Y-99744627D01*
X157046443Y-99914466D01*
X156962778Y-100070991D01*
X156933448Y-100106729D01*
X156850186Y-100208186D01*
X156748729Y-100291448D01*
X156712991Y-100320778D01*
X156556466Y-100404443D01*
X156386627Y-100455963D01*
X156320442Y-100462482D01*
X156254260Y-100469000D01*
X156165740Y-100469000D01*
X156099557Y-100462481D01*
X156033373Y-100455963D01*
X155863534Y-100404443D01*
X155707009Y-100320778D01*
X155671271Y-100291448D01*
X155569814Y-100208186D01*
X155486552Y-100106729D01*
X155457222Y-100070991D01*
X155373557Y-99914466D01*
X155322037Y-99744627D01*
X155304641Y-99568000D01*
X155322037Y-99391373D01*
X155373557Y-99221534D01*
X155457222Y-99065009D01*
X155486552Y-99029271D01*
X155569814Y-98927814D01*
X155671271Y-98844552D01*
X155707009Y-98815222D01*
X155863534Y-98731557D01*
X156033373Y-98680037D01*
X156099558Y-98673518D01*
X156165740Y-98667000D01*
X156254260Y-98667000D01*
X156320442Y-98673518D01*
X156320442Y-98673518D01*
G37*
G36*
X148700442Y-98673518D02*
G01*
X148766627Y-98680037D01*
X148936466Y-98731557D01*
X149092991Y-98815222D01*
X149128729Y-98844552D01*
X149230186Y-98927814D01*
X149313448Y-99029271D01*
X149342778Y-99065009D01*
X149426443Y-99221534D01*
X149477963Y-99391373D01*
X149495359Y-99568000D01*
X149477963Y-99744627D01*
X149426443Y-99914466D01*
X149342778Y-100070991D01*
X149313448Y-100106729D01*
X149230186Y-100208186D01*
X149128729Y-100291448D01*
X149092991Y-100320778D01*
X148936466Y-100404443D01*
X148766627Y-100455963D01*
X148700442Y-100462482D01*
X148634260Y-100469000D01*
X148545740Y-100469000D01*
X148479557Y-100462481D01*
X148413373Y-100455963D01*
X148243534Y-100404443D01*
X148087009Y-100320778D01*
X148051271Y-100291448D01*
X147949814Y-100208186D01*
X147866552Y-100106729D01*
X147837222Y-100070991D01*
X147753557Y-99914466D01*
X147702037Y-99744627D01*
X147684641Y-99568000D01*
X147702037Y-99391373D01*
X147753557Y-99221534D01*
X147837222Y-99065009D01*
X147866552Y-99029271D01*
X147949814Y-98927814D01*
X148051271Y-98844552D01*
X148087009Y-98815222D01*
X148243534Y-98731557D01*
X148413373Y-98680037D01*
X148479558Y-98673518D01*
X148545740Y-98667000D01*
X148634260Y-98667000D01*
X148700442Y-98673518D01*
X148700442Y-98673518D01*
G37*
G36*
X163686442Y-97911518D02*
G01*
X163752627Y-97918037D01*
X163922466Y-97969557D01*
X164078991Y-98053222D01*
X164114729Y-98082552D01*
X164216186Y-98165814D01*
X164299448Y-98267271D01*
X164328778Y-98303009D01*
X164412443Y-98459534D01*
X164463963Y-98629373D01*
X164481359Y-98806000D01*
X164463963Y-98982627D01*
X164412443Y-99152466D01*
X164328778Y-99308991D01*
X164299448Y-99344729D01*
X164216186Y-99446186D01*
X164114729Y-99529448D01*
X164078991Y-99558778D01*
X163922466Y-99642443D01*
X163752627Y-99693963D01*
X163686442Y-99700482D01*
X163620260Y-99707000D01*
X163531740Y-99707000D01*
X163465558Y-99700482D01*
X163399373Y-99693963D01*
X163229534Y-99642443D01*
X163073009Y-99558778D01*
X163037271Y-99529448D01*
X162935814Y-99446186D01*
X162852552Y-99344729D01*
X162823222Y-99308991D01*
X162739557Y-99152466D01*
X162688037Y-98982627D01*
X162670641Y-98806000D01*
X162688037Y-98629373D01*
X162739557Y-98459534D01*
X162823222Y-98303009D01*
X162852552Y-98267271D01*
X162935814Y-98165814D01*
X163037271Y-98082552D01*
X163073009Y-98053222D01*
X163229534Y-97969557D01*
X163399373Y-97918037D01*
X163465558Y-97911518D01*
X163531740Y-97905000D01*
X163620260Y-97905000D01*
X163686442Y-97911518D01*
X163686442Y-97911518D01*
G37*
G36*
X166226442Y-97911518D02*
G01*
X166292627Y-97918037D01*
X166462466Y-97969557D01*
X166618991Y-98053222D01*
X166654729Y-98082552D01*
X166756186Y-98165814D01*
X166839448Y-98267271D01*
X166868778Y-98303009D01*
X166952443Y-98459534D01*
X167003963Y-98629373D01*
X167021359Y-98806000D01*
X167003963Y-98982627D01*
X166952443Y-99152466D01*
X166868778Y-99308991D01*
X166839448Y-99344729D01*
X166756186Y-99446186D01*
X166654729Y-99529448D01*
X166618991Y-99558778D01*
X166462466Y-99642443D01*
X166292627Y-99693963D01*
X166226442Y-99700482D01*
X166160260Y-99707000D01*
X166071740Y-99707000D01*
X166005558Y-99700482D01*
X165939373Y-99693963D01*
X165769534Y-99642443D01*
X165613009Y-99558778D01*
X165577271Y-99529448D01*
X165475814Y-99446186D01*
X165392552Y-99344729D01*
X165363222Y-99308991D01*
X165279557Y-99152466D01*
X165228037Y-98982627D01*
X165210641Y-98806000D01*
X165228037Y-98629373D01*
X165279557Y-98459534D01*
X165363222Y-98303009D01*
X165392552Y-98267271D01*
X165475814Y-98165814D01*
X165577271Y-98082552D01*
X165613009Y-98053222D01*
X165769534Y-97969557D01*
X165939373Y-97918037D01*
X166005558Y-97911518D01*
X166071740Y-97905000D01*
X166160260Y-97905000D01*
X166226442Y-97911518D01*
X166226442Y-97911518D01*
G37*
G36*
X148700443Y-96133519D02*
G01*
X148766627Y-96140037D01*
X148936466Y-96191557D01*
X149092991Y-96275222D01*
X149128729Y-96304552D01*
X149230186Y-96387814D01*
X149313448Y-96489271D01*
X149342778Y-96525009D01*
X149426443Y-96681534D01*
X149477963Y-96851373D01*
X149495359Y-97028000D01*
X149477963Y-97204627D01*
X149426443Y-97374466D01*
X149342778Y-97530991D01*
X149313448Y-97566729D01*
X149230186Y-97668186D01*
X149128729Y-97751448D01*
X149092991Y-97780778D01*
X148936466Y-97864443D01*
X148766627Y-97915963D01*
X148700442Y-97922482D01*
X148634260Y-97929000D01*
X148545740Y-97929000D01*
X148479558Y-97922482D01*
X148413373Y-97915963D01*
X148243534Y-97864443D01*
X148087009Y-97780778D01*
X148051271Y-97751448D01*
X147949814Y-97668186D01*
X147866552Y-97566729D01*
X147837222Y-97530991D01*
X147753557Y-97374466D01*
X147702037Y-97204627D01*
X147684641Y-97028000D01*
X147702037Y-96851373D01*
X147753557Y-96681534D01*
X147837222Y-96525009D01*
X147866552Y-96489271D01*
X147949814Y-96387814D01*
X148051271Y-96304552D01*
X148087009Y-96275222D01*
X148243534Y-96191557D01*
X148413373Y-96140037D01*
X148479557Y-96133519D01*
X148545740Y-96127000D01*
X148634260Y-96127000D01*
X148700443Y-96133519D01*
X148700443Y-96133519D01*
G37*
G36*
X156320443Y-96133519D02*
G01*
X156386627Y-96140037D01*
X156556466Y-96191557D01*
X156712991Y-96275222D01*
X156748729Y-96304552D01*
X156850186Y-96387814D01*
X156933448Y-96489271D01*
X156962778Y-96525009D01*
X157046443Y-96681534D01*
X157097963Y-96851373D01*
X157115359Y-97028000D01*
X157097963Y-97204627D01*
X157046443Y-97374466D01*
X156962778Y-97530991D01*
X156933448Y-97566729D01*
X156850186Y-97668186D01*
X156748729Y-97751448D01*
X156712991Y-97780778D01*
X156556466Y-97864443D01*
X156386627Y-97915963D01*
X156320442Y-97922482D01*
X156254260Y-97929000D01*
X156165740Y-97929000D01*
X156099558Y-97922482D01*
X156033373Y-97915963D01*
X155863534Y-97864443D01*
X155707009Y-97780778D01*
X155671271Y-97751448D01*
X155569814Y-97668186D01*
X155486552Y-97566729D01*
X155457222Y-97530991D01*
X155373557Y-97374466D01*
X155322037Y-97204627D01*
X155304641Y-97028000D01*
X155322037Y-96851373D01*
X155373557Y-96681534D01*
X155457222Y-96525009D01*
X155486552Y-96489271D01*
X155569814Y-96387814D01*
X155671271Y-96304552D01*
X155707009Y-96275222D01*
X155863534Y-96191557D01*
X156033373Y-96140037D01*
X156099557Y-96133519D01*
X156165740Y-96127000D01*
X156254260Y-96127000D01*
X156320443Y-96133519D01*
X156320443Y-96133519D01*
G37*
G36*
X163686443Y-95371519D02*
G01*
X163752627Y-95378037D01*
X163922466Y-95429557D01*
X164078991Y-95513222D01*
X164114729Y-95542552D01*
X164216186Y-95625814D01*
X164299448Y-95727271D01*
X164328778Y-95763009D01*
X164412443Y-95919534D01*
X164463963Y-96089373D01*
X164481359Y-96266000D01*
X164463963Y-96442627D01*
X164412443Y-96612466D01*
X164328778Y-96768991D01*
X164299448Y-96804729D01*
X164216186Y-96906186D01*
X164114729Y-96989448D01*
X164078991Y-97018778D01*
X163922466Y-97102443D01*
X163752627Y-97153963D01*
X163686443Y-97160481D01*
X163620260Y-97167000D01*
X163531740Y-97167000D01*
X163465557Y-97160481D01*
X163399373Y-97153963D01*
X163229534Y-97102443D01*
X163073009Y-97018778D01*
X163037271Y-96989448D01*
X162935814Y-96906186D01*
X162852552Y-96804729D01*
X162823222Y-96768991D01*
X162739557Y-96612466D01*
X162688037Y-96442627D01*
X162670641Y-96266000D01*
X162688037Y-96089373D01*
X162739557Y-95919534D01*
X162823222Y-95763009D01*
X162852552Y-95727271D01*
X162935814Y-95625814D01*
X163037271Y-95542552D01*
X163073009Y-95513222D01*
X163229534Y-95429557D01*
X163399373Y-95378037D01*
X163465557Y-95371519D01*
X163531740Y-95365000D01*
X163620260Y-95365000D01*
X163686443Y-95371519D01*
X163686443Y-95371519D01*
G37*
G36*
X166226443Y-95371519D02*
G01*
X166292627Y-95378037D01*
X166462466Y-95429557D01*
X166618991Y-95513222D01*
X166654729Y-95542552D01*
X166756186Y-95625814D01*
X166839448Y-95727271D01*
X166868778Y-95763009D01*
X166952443Y-95919534D01*
X167003963Y-96089373D01*
X167021359Y-96266000D01*
X167003963Y-96442627D01*
X166952443Y-96612466D01*
X166868778Y-96768991D01*
X166839448Y-96804729D01*
X166756186Y-96906186D01*
X166654729Y-96989448D01*
X166618991Y-97018778D01*
X166462466Y-97102443D01*
X166292627Y-97153963D01*
X166226443Y-97160481D01*
X166160260Y-97167000D01*
X166071740Y-97167000D01*
X166005557Y-97160481D01*
X165939373Y-97153963D01*
X165769534Y-97102443D01*
X165613009Y-97018778D01*
X165577271Y-96989448D01*
X165475814Y-96906186D01*
X165392552Y-96804729D01*
X165363222Y-96768991D01*
X165279557Y-96612466D01*
X165228037Y-96442627D01*
X165210641Y-96266000D01*
X165228037Y-96089373D01*
X165279557Y-95919534D01*
X165363222Y-95763009D01*
X165392552Y-95727271D01*
X165475814Y-95625814D01*
X165577271Y-95542552D01*
X165613009Y-95513222D01*
X165769534Y-95429557D01*
X165939373Y-95378037D01*
X166005557Y-95371519D01*
X166071740Y-95365000D01*
X166160260Y-95365000D01*
X166226443Y-95371519D01*
X166226443Y-95371519D01*
G37*
G36*
X148700442Y-93593518D02*
G01*
X148766627Y-93600037D01*
X148936466Y-93651557D01*
X149092991Y-93735222D01*
X149128729Y-93764552D01*
X149230186Y-93847814D01*
X149313448Y-93949271D01*
X149342778Y-93985009D01*
X149426443Y-94141534D01*
X149477963Y-94311373D01*
X149495359Y-94488000D01*
X149477963Y-94664627D01*
X149426443Y-94834466D01*
X149342778Y-94990991D01*
X149313448Y-95026729D01*
X149230186Y-95128186D01*
X149128729Y-95211448D01*
X149092991Y-95240778D01*
X148936466Y-95324443D01*
X148766627Y-95375963D01*
X148700443Y-95382481D01*
X148634260Y-95389000D01*
X148545740Y-95389000D01*
X148479557Y-95382481D01*
X148413373Y-95375963D01*
X148243534Y-95324443D01*
X148087009Y-95240778D01*
X148051271Y-95211448D01*
X147949814Y-95128186D01*
X147866552Y-95026729D01*
X147837222Y-94990991D01*
X147753557Y-94834466D01*
X147702037Y-94664627D01*
X147684641Y-94488000D01*
X147702037Y-94311373D01*
X147753557Y-94141534D01*
X147837222Y-93985009D01*
X147866552Y-93949271D01*
X147949814Y-93847814D01*
X148051271Y-93764552D01*
X148087009Y-93735222D01*
X148243534Y-93651557D01*
X148413373Y-93600037D01*
X148479557Y-93593519D01*
X148545740Y-93587000D01*
X148634260Y-93587000D01*
X148700442Y-93593518D01*
X148700442Y-93593518D01*
G37*
G36*
X156320442Y-93593518D02*
G01*
X156386627Y-93600037D01*
X156556466Y-93651557D01*
X156712991Y-93735222D01*
X156748729Y-93764552D01*
X156850186Y-93847814D01*
X156933448Y-93949271D01*
X156962778Y-93985009D01*
X157046443Y-94141534D01*
X157097963Y-94311373D01*
X157115359Y-94488000D01*
X157097963Y-94664627D01*
X157046443Y-94834466D01*
X156962778Y-94990991D01*
X156933448Y-95026729D01*
X156850186Y-95128186D01*
X156748729Y-95211448D01*
X156712991Y-95240778D01*
X156556466Y-95324443D01*
X156386627Y-95375963D01*
X156320443Y-95382481D01*
X156254260Y-95389000D01*
X156165740Y-95389000D01*
X156099557Y-95382481D01*
X156033373Y-95375963D01*
X155863534Y-95324443D01*
X155707009Y-95240778D01*
X155671271Y-95211448D01*
X155569814Y-95128186D01*
X155486552Y-95026729D01*
X155457222Y-94990991D01*
X155373557Y-94834466D01*
X155322037Y-94664627D01*
X155304641Y-94488000D01*
X155322037Y-94311373D01*
X155373557Y-94141534D01*
X155457222Y-93985009D01*
X155486552Y-93949271D01*
X155569814Y-93847814D01*
X155671271Y-93764552D01*
X155707009Y-93735222D01*
X155863534Y-93651557D01*
X156033373Y-93600037D01*
X156099557Y-93593519D01*
X156165740Y-93587000D01*
X156254260Y-93587000D01*
X156320442Y-93593518D01*
X156320442Y-93593518D01*
G37*
G36*
X148700442Y-91053518D02*
G01*
X148766627Y-91060037D01*
X148936466Y-91111557D01*
X149092991Y-91195222D01*
X149128729Y-91224552D01*
X149230186Y-91307814D01*
X149313448Y-91409271D01*
X149342778Y-91445009D01*
X149426443Y-91601534D01*
X149477963Y-91771373D01*
X149495359Y-91948000D01*
X149477963Y-92124627D01*
X149426443Y-92294466D01*
X149342778Y-92450991D01*
X149313448Y-92486729D01*
X149230186Y-92588186D01*
X149128729Y-92671448D01*
X149092991Y-92700778D01*
X148936466Y-92784443D01*
X148766627Y-92835963D01*
X148700442Y-92842482D01*
X148634260Y-92849000D01*
X148545740Y-92849000D01*
X148479558Y-92842482D01*
X148413373Y-92835963D01*
X148243534Y-92784443D01*
X148087009Y-92700778D01*
X148051271Y-92671448D01*
X147949814Y-92588186D01*
X147866552Y-92486729D01*
X147837222Y-92450991D01*
X147753557Y-92294466D01*
X147702037Y-92124627D01*
X147684641Y-91948000D01*
X147702037Y-91771373D01*
X147753557Y-91601534D01*
X147837222Y-91445009D01*
X147866552Y-91409271D01*
X147949814Y-91307814D01*
X148051271Y-91224552D01*
X148087009Y-91195222D01*
X148243534Y-91111557D01*
X148413373Y-91060037D01*
X148479558Y-91053518D01*
X148545740Y-91047000D01*
X148634260Y-91047000D01*
X148700442Y-91053518D01*
X148700442Y-91053518D01*
G37*
G36*
X156320442Y-91053518D02*
G01*
X156386627Y-91060037D01*
X156556466Y-91111557D01*
X156712991Y-91195222D01*
X156748729Y-91224552D01*
X156850186Y-91307814D01*
X156933448Y-91409271D01*
X156962778Y-91445009D01*
X157046443Y-91601534D01*
X157097963Y-91771373D01*
X157115359Y-91948000D01*
X157097963Y-92124627D01*
X157046443Y-92294466D01*
X156962778Y-92450991D01*
X156933448Y-92486729D01*
X156850186Y-92588186D01*
X156748729Y-92671448D01*
X156712991Y-92700778D01*
X156556466Y-92784443D01*
X156386627Y-92835963D01*
X156320442Y-92842482D01*
X156254260Y-92849000D01*
X156165740Y-92849000D01*
X156099558Y-92842482D01*
X156033373Y-92835963D01*
X155863534Y-92784443D01*
X155707009Y-92700778D01*
X155671271Y-92671448D01*
X155569814Y-92588186D01*
X155486552Y-92486729D01*
X155457222Y-92450991D01*
X155373557Y-92294466D01*
X155322037Y-92124627D01*
X155304641Y-91948000D01*
X155322037Y-91771373D01*
X155373557Y-91601534D01*
X155457222Y-91445009D01*
X155486552Y-91409271D01*
X155569814Y-91307814D01*
X155671271Y-91224552D01*
X155707009Y-91195222D01*
X155863534Y-91111557D01*
X156033373Y-91060037D01*
X156099558Y-91053518D01*
X156165740Y-91047000D01*
X156254260Y-91047000D01*
X156320442Y-91053518D01*
X156320442Y-91053518D01*
G37*
G36*
X109406643Y-90799519D02*
G01*
X109472827Y-90806037D01*
X109642666Y-90857557D01*
X109799191Y-90941222D01*
X109834929Y-90970552D01*
X109936386Y-91053814D01*
X110019648Y-91155271D01*
X110048978Y-91191009D01*
X110132643Y-91347534D01*
X110184163Y-91517373D01*
X110201559Y-91694000D01*
X110184163Y-91870627D01*
X110132643Y-92040466D01*
X110048978Y-92196991D01*
X110019648Y-92232729D01*
X109936386Y-92334186D01*
X109834929Y-92417448D01*
X109799191Y-92446778D01*
X109642666Y-92530443D01*
X109472827Y-92581963D01*
X109409653Y-92588185D01*
X109340460Y-92595000D01*
X109251940Y-92595000D01*
X109182747Y-92588185D01*
X109119573Y-92581963D01*
X108949734Y-92530443D01*
X108793209Y-92446778D01*
X108757471Y-92417448D01*
X108656014Y-92334186D01*
X108572752Y-92232729D01*
X108543422Y-92196991D01*
X108459757Y-92040466D01*
X108408237Y-91870627D01*
X108390841Y-91694000D01*
X108408237Y-91517373D01*
X108459757Y-91347534D01*
X108543422Y-91191009D01*
X108572752Y-91155271D01*
X108656014Y-91053814D01*
X108757471Y-90970552D01*
X108793209Y-90941222D01*
X108949734Y-90857557D01*
X109119573Y-90806037D01*
X109185757Y-90799519D01*
X109251940Y-90793000D01*
X109340460Y-90793000D01*
X109406643Y-90799519D01*
X109406643Y-90799519D01*
G37*
G36*
X106866643Y-90799519D02*
G01*
X106932827Y-90806037D01*
X107102666Y-90857557D01*
X107259191Y-90941222D01*
X107294929Y-90970552D01*
X107396386Y-91053814D01*
X107479648Y-91155271D01*
X107508978Y-91191009D01*
X107592643Y-91347534D01*
X107644163Y-91517373D01*
X107661559Y-91694000D01*
X107644163Y-91870627D01*
X107592643Y-92040466D01*
X107508978Y-92196991D01*
X107479648Y-92232729D01*
X107396386Y-92334186D01*
X107294929Y-92417448D01*
X107259191Y-92446778D01*
X107102666Y-92530443D01*
X106932827Y-92581963D01*
X106869653Y-92588185D01*
X106800460Y-92595000D01*
X106711940Y-92595000D01*
X106642747Y-92588185D01*
X106579573Y-92581963D01*
X106409734Y-92530443D01*
X106253209Y-92446778D01*
X106217471Y-92417448D01*
X106116014Y-92334186D01*
X106032752Y-92232729D01*
X106003422Y-92196991D01*
X105919757Y-92040466D01*
X105868237Y-91870627D01*
X105850841Y-91694000D01*
X105868237Y-91517373D01*
X105919757Y-91347534D01*
X106003422Y-91191009D01*
X106032752Y-91155271D01*
X106116014Y-91053814D01*
X106217471Y-90970552D01*
X106253209Y-90941222D01*
X106409734Y-90857557D01*
X106579573Y-90806037D01*
X106645757Y-90799519D01*
X106711940Y-90793000D01*
X106800460Y-90793000D01*
X106866643Y-90799519D01*
X106866643Y-90799519D01*
G37*
G36*
X117817200Y-92595000D02*
G01*
X116015200Y-92595000D01*
X116015200Y-90793000D01*
X117817200Y-90793000D01*
X117817200Y-92595000D01*
X117817200Y-92595000D01*
G37*
G36*
X111946643Y-90799519D02*
G01*
X112012827Y-90806037D01*
X112182666Y-90857557D01*
X112339191Y-90941222D01*
X112374929Y-90970552D01*
X112476386Y-91053814D01*
X112559648Y-91155271D01*
X112588978Y-91191009D01*
X112672643Y-91347534D01*
X112724163Y-91517373D01*
X112741559Y-91694000D01*
X112724163Y-91870627D01*
X112672643Y-92040466D01*
X112588978Y-92196991D01*
X112559648Y-92232729D01*
X112476386Y-92334186D01*
X112374929Y-92417448D01*
X112339191Y-92446778D01*
X112182666Y-92530443D01*
X112012827Y-92581963D01*
X111949653Y-92588185D01*
X111880460Y-92595000D01*
X111791940Y-92595000D01*
X111722747Y-92588185D01*
X111659573Y-92581963D01*
X111489734Y-92530443D01*
X111333209Y-92446778D01*
X111297471Y-92417448D01*
X111196014Y-92334186D01*
X111112752Y-92232729D01*
X111083422Y-92196991D01*
X110999757Y-92040466D01*
X110948237Y-91870627D01*
X110930841Y-91694000D01*
X110948237Y-91517373D01*
X110999757Y-91347534D01*
X111083422Y-91191009D01*
X111112752Y-91155271D01*
X111196014Y-91053814D01*
X111297471Y-90970552D01*
X111333209Y-90941222D01*
X111489734Y-90857557D01*
X111659573Y-90806037D01*
X111725757Y-90799519D01*
X111791940Y-90793000D01*
X111880460Y-90793000D01*
X111946643Y-90799519D01*
X111946643Y-90799519D01*
G37*
G36*
X114486643Y-90799519D02*
G01*
X114552827Y-90806037D01*
X114722666Y-90857557D01*
X114879191Y-90941222D01*
X114914929Y-90970552D01*
X115016386Y-91053814D01*
X115099648Y-91155271D01*
X115128978Y-91191009D01*
X115212643Y-91347534D01*
X115264163Y-91517373D01*
X115281559Y-91694000D01*
X115264163Y-91870627D01*
X115212643Y-92040466D01*
X115128978Y-92196991D01*
X115099648Y-92232729D01*
X115016386Y-92334186D01*
X114914929Y-92417448D01*
X114879191Y-92446778D01*
X114722666Y-92530443D01*
X114552827Y-92581963D01*
X114489653Y-92588185D01*
X114420460Y-92595000D01*
X114331940Y-92595000D01*
X114262747Y-92588185D01*
X114199573Y-92581963D01*
X114029734Y-92530443D01*
X113873209Y-92446778D01*
X113837471Y-92417448D01*
X113736014Y-92334186D01*
X113652752Y-92232729D01*
X113623422Y-92196991D01*
X113539757Y-92040466D01*
X113488237Y-91870627D01*
X113470841Y-91694000D01*
X113488237Y-91517373D01*
X113539757Y-91347534D01*
X113623422Y-91191009D01*
X113652752Y-91155271D01*
X113736014Y-91053814D01*
X113837471Y-90970552D01*
X113873209Y-90941222D01*
X114029734Y-90857557D01*
X114199573Y-90806037D01*
X114265757Y-90799519D01*
X114331940Y-90793000D01*
X114420460Y-90793000D01*
X114486643Y-90799519D01*
X114486643Y-90799519D01*
G37*
G36*
X156320443Y-88513519D02*
G01*
X156386627Y-88520037D01*
X156556466Y-88571557D01*
X156712991Y-88655222D01*
X156748729Y-88684552D01*
X156850186Y-88767814D01*
X156933448Y-88869271D01*
X156962778Y-88905009D01*
X157046443Y-89061534D01*
X157097963Y-89231373D01*
X157115359Y-89408000D01*
X157097963Y-89584627D01*
X157046443Y-89754466D01*
X156962778Y-89910991D01*
X156933448Y-89946729D01*
X156850186Y-90048186D01*
X156748729Y-90131448D01*
X156712991Y-90160778D01*
X156556466Y-90244443D01*
X156386627Y-90295963D01*
X156320443Y-90302481D01*
X156254260Y-90309000D01*
X156165740Y-90309000D01*
X156099557Y-90302481D01*
X156033373Y-90295963D01*
X155863534Y-90244443D01*
X155707009Y-90160778D01*
X155671271Y-90131448D01*
X155569814Y-90048186D01*
X155486552Y-89946729D01*
X155457222Y-89910991D01*
X155373557Y-89754466D01*
X155322037Y-89584627D01*
X155304641Y-89408000D01*
X155322037Y-89231373D01*
X155373557Y-89061534D01*
X155457222Y-88905009D01*
X155486552Y-88869271D01*
X155569814Y-88767814D01*
X155671271Y-88684552D01*
X155707009Y-88655222D01*
X155863534Y-88571557D01*
X156033373Y-88520037D01*
X156099557Y-88513519D01*
X156165740Y-88507000D01*
X156254260Y-88507000D01*
X156320443Y-88513519D01*
X156320443Y-88513519D01*
G37*
G36*
X148700443Y-88513519D02*
G01*
X148766627Y-88520037D01*
X148936466Y-88571557D01*
X149092991Y-88655222D01*
X149128729Y-88684552D01*
X149230186Y-88767814D01*
X149313448Y-88869271D01*
X149342778Y-88905009D01*
X149426443Y-89061534D01*
X149477963Y-89231373D01*
X149495359Y-89408000D01*
X149477963Y-89584627D01*
X149426443Y-89754466D01*
X149342778Y-89910991D01*
X149313448Y-89946729D01*
X149230186Y-90048186D01*
X149128729Y-90131448D01*
X149092991Y-90160778D01*
X148936466Y-90244443D01*
X148766627Y-90295963D01*
X148700443Y-90302481D01*
X148634260Y-90309000D01*
X148545740Y-90309000D01*
X148479557Y-90302481D01*
X148413373Y-90295963D01*
X148243534Y-90244443D01*
X148087009Y-90160778D01*
X148051271Y-90131448D01*
X147949814Y-90048186D01*
X147866552Y-89946729D01*
X147837222Y-89910991D01*
X147753557Y-89754466D01*
X147702037Y-89584627D01*
X147684641Y-89408000D01*
X147702037Y-89231373D01*
X147753557Y-89061534D01*
X147837222Y-88905009D01*
X147866552Y-88869271D01*
X147949814Y-88767814D01*
X148051271Y-88684552D01*
X148087009Y-88655222D01*
X148243534Y-88571557D01*
X148413373Y-88520037D01*
X148479557Y-88513519D01*
X148545740Y-88507000D01*
X148634260Y-88507000D01*
X148700443Y-88513519D01*
X148700443Y-88513519D01*
G37*
G36*
X165972443Y-86989519D02*
G01*
X166038627Y-86996037D01*
X166208466Y-87047557D01*
X166364991Y-87131222D01*
X166400729Y-87160552D01*
X166502186Y-87243814D01*
X166585448Y-87345271D01*
X166614778Y-87381009D01*
X166698443Y-87537534D01*
X166749963Y-87707373D01*
X166767359Y-87884000D01*
X166749963Y-88060627D01*
X166698443Y-88230466D01*
X166614778Y-88386991D01*
X166585448Y-88422729D01*
X166502186Y-88524186D01*
X166400729Y-88607448D01*
X166364991Y-88636778D01*
X166208466Y-88720443D01*
X166038627Y-88771963D01*
X165972442Y-88778482D01*
X165906260Y-88785000D01*
X165817740Y-88785000D01*
X165751558Y-88778482D01*
X165685373Y-88771963D01*
X165515534Y-88720443D01*
X165359009Y-88636778D01*
X165323271Y-88607448D01*
X165221814Y-88524186D01*
X165138552Y-88422729D01*
X165109222Y-88386991D01*
X165025557Y-88230466D01*
X164974037Y-88060627D01*
X164956641Y-87884000D01*
X164974037Y-87707373D01*
X165025557Y-87537534D01*
X165109222Y-87381009D01*
X165138552Y-87345271D01*
X165221814Y-87243814D01*
X165323271Y-87160552D01*
X165359009Y-87131222D01*
X165515534Y-87047557D01*
X165685373Y-86996037D01*
X165751557Y-86989519D01*
X165817740Y-86983000D01*
X165906260Y-86983000D01*
X165972443Y-86989519D01*
X165972443Y-86989519D01*
G37*
G36*
X164223000Y-88785000D02*
G01*
X162421000Y-88785000D01*
X162421000Y-86983000D01*
X164223000Y-86983000D01*
X164223000Y-88785000D01*
X164223000Y-88785000D01*
G37*
G36*
X156320443Y-85973519D02*
G01*
X156386627Y-85980037D01*
X156556466Y-86031557D01*
X156712991Y-86115222D01*
X156748729Y-86144552D01*
X156850186Y-86227814D01*
X156933448Y-86329271D01*
X156962778Y-86365009D01*
X157046443Y-86521534D01*
X157097963Y-86691373D01*
X157115359Y-86868000D01*
X157097963Y-87044627D01*
X157046443Y-87214466D01*
X156962778Y-87370991D01*
X156933448Y-87406729D01*
X156850186Y-87508186D01*
X156748729Y-87591448D01*
X156712991Y-87620778D01*
X156556466Y-87704443D01*
X156386627Y-87755963D01*
X156320442Y-87762482D01*
X156254260Y-87769000D01*
X156165740Y-87769000D01*
X156099558Y-87762482D01*
X156033373Y-87755963D01*
X155863534Y-87704443D01*
X155707009Y-87620778D01*
X155671271Y-87591448D01*
X155569814Y-87508186D01*
X155486552Y-87406729D01*
X155457222Y-87370991D01*
X155373557Y-87214466D01*
X155322037Y-87044627D01*
X155304641Y-86868000D01*
X155322037Y-86691373D01*
X155373557Y-86521534D01*
X155457222Y-86365009D01*
X155486552Y-86329271D01*
X155569814Y-86227814D01*
X155671271Y-86144552D01*
X155707009Y-86115222D01*
X155863534Y-86031557D01*
X156033373Y-85980037D01*
X156099557Y-85973519D01*
X156165740Y-85967000D01*
X156254260Y-85967000D01*
X156320443Y-85973519D01*
X156320443Y-85973519D01*
G37*
G36*
X148700443Y-85973519D02*
G01*
X148766627Y-85980037D01*
X148936466Y-86031557D01*
X149092991Y-86115222D01*
X149128729Y-86144552D01*
X149230186Y-86227814D01*
X149313448Y-86329271D01*
X149342778Y-86365009D01*
X149426443Y-86521534D01*
X149477963Y-86691373D01*
X149495359Y-86868000D01*
X149477963Y-87044627D01*
X149426443Y-87214466D01*
X149342778Y-87370991D01*
X149313448Y-87406729D01*
X149230186Y-87508186D01*
X149128729Y-87591448D01*
X149092991Y-87620778D01*
X148936466Y-87704443D01*
X148766627Y-87755963D01*
X148700442Y-87762482D01*
X148634260Y-87769000D01*
X148545740Y-87769000D01*
X148479558Y-87762482D01*
X148413373Y-87755963D01*
X148243534Y-87704443D01*
X148087009Y-87620778D01*
X148051271Y-87591448D01*
X147949814Y-87508186D01*
X147866552Y-87406729D01*
X147837222Y-87370991D01*
X147753557Y-87214466D01*
X147702037Y-87044627D01*
X147684641Y-86868000D01*
X147702037Y-86691373D01*
X147753557Y-86521534D01*
X147837222Y-86365009D01*
X147866552Y-86329271D01*
X147949814Y-86227814D01*
X148051271Y-86144552D01*
X148087009Y-86115222D01*
X148243534Y-86031557D01*
X148413373Y-85980037D01*
X148479557Y-85973519D01*
X148545740Y-85967000D01*
X148634260Y-85967000D01*
X148700443Y-85973519D01*
X148700443Y-85973519D01*
G37*
G36*
X165972442Y-84449518D02*
G01*
X166038627Y-84456037D01*
X166208466Y-84507557D01*
X166364991Y-84591222D01*
X166400729Y-84620552D01*
X166502186Y-84703814D01*
X166585448Y-84805271D01*
X166614778Y-84841009D01*
X166698443Y-84997534D01*
X166749963Y-85167373D01*
X166767359Y-85344000D01*
X166749963Y-85520627D01*
X166698443Y-85690466D01*
X166614778Y-85846991D01*
X166585448Y-85882729D01*
X166502186Y-85984186D01*
X166400729Y-86067448D01*
X166364991Y-86096778D01*
X166208466Y-86180443D01*
X166038627Y-86231963D01*
X165972442Y-86238482D01*
X165906260Y-86245000D01*
X165817740Y-86245000D01*
X165751558Y-86238482D01*
X165685373Y-86231963D01*
X165515534Y-86180443D01*
X165359009Y-86096778D01*
X165323271Y-86067448D01*
X165221814Y-85984186D01*
X165138552Y-85882729D01*
X165109222Y-85846991D01*
X165025557Y-85690466D01*
X164974037Y-85520627D01*
X164956641Y-85344000D01*
X164974037Y-85167373D01*
X165025557Y-84997534D01*
X165109222Y-84841009D01*
X165138552Y-84805271D01*
X165221814Y-84703814D01*
X165323271Y-84620552D01*
X165359009Y-84591222D01*
X165515534Y-84507557D01*
X165685373Y-84456037D01*
X165751558Y-84449518D01*
X165817740Y-84443000D01*
X165906260Y-84443000D01*
X165972442Y-84449518D01*
X165972442Y-84449518D01*
G37*
G36*
X163432442Y-84449518D02*
G01*
X163498627Y-84456037D01*
X163668466Y-84507557D01*
X163824991Y-84591222D01*
X163860729Y-84620552D01*
X163962186Y-84703814D01*
X164045448Y-84805271D01*
X164074778Y-84841009D01*
X164158443Y-84997534D01*
X164209963Y-85167373D01*
X164227359Y-85344000D01*
X164209963Y-85520627D01*
X164158443Y-85690466D01*
X164074778Y-85846991D01*
X164045448Y-85882729D01*
X163962186Y-85984186D01*
X163860729Y-86067448D01*
X163824991Y-86096778D01*
X163668466Y-86180443D01*
X163498627Y-86231963D01*
X163432442Y-86238482D01*
X163366260Y-86245000D01*
X163277740Y-86245000D01*
X163211558Y-86238482D01*
X163145373Y-86231963D01*
X162975534Y-86180443D01*
X162819009Y-86096778D01*
X162783271Y-86067448D01*
X162681814Y-85984186D01*
X162598552Y-85882729D01*
X162569222Y-85846991D01*
X162485557Y-85690466D01*
X162434037Y-85520627D01*
X162416641Y-85344000D01*
X162434037Y-85167373D01*
X162485557Y-84997534D01*
X162569222Y-84841009D01*
X162598552Y-84805271D01*
X162681814Y-84703814D01*
X162783271Y-84620552D01*
X162819009Y-84591222D01*
X162975534Y-84507557D01*
X163145373Y-84456037D01*
X163211558Y-84449518D01*
X163277740Y-84443000D01*
X163366260Y-84443000D01*
X163432442Y-84449518D01*
X163432442Y-84449518D01*
G37*
G36*
X149491000Y-85229000D02*
G01*
X147689000Y-85229000D01*
X147689000Y-83427000D01*
X149491000Y-83427000D01*
X149491000Y-85229000D01*
X149491000Y-85229000D01*
G37*
G36*
X157111000Y-85229000D02*
G01*
X155309000Y-85229000D01*
X155309000Y-83427000D01*
X157111000Y-83427000D01*
X157111000Y-85229000D01*
X157111000Y-85229000D01*
G37*
G36*
X107806443Y-82417519D02*
G01*
X107872627Y-82424037D01*
X108042466Y-82475557D01*
X108198991Y-82559222D01*
X108234729Y-82588552D01*
X108336186Y-82671814D01*
X108419448Y-82773271D01*
X108448778Y-82809009D01*
X108532443Y-82965534D01*
X108583963Y-83135373D01*
X108601359Y-83312000D01*
X108583963Y-83488627D01*
X108532443Y-83658466D01*
X108448778Y-83814991D01*
X108419448Y-83850729D01*
X108336186Y-83952186D01*
X108234729Y-84035448D01*
X108198991Y-84064778D01*
X108042466Y-84148443D01*
X107872627Y-84199963D01*
X107806442Y-84206482D01*
X107740260Y-84213000D01*
X107651740Y-84213000D01*
X107585558Y-84206482D01*
X107519373Y-84199963D01*
X107349534Y-84148443D01*
X107193009Y-84064778D01*
X107157271Y-84035448D01*
X107055814Y-83952186D01*
X106972552Y-83850729D01*
X106943222Y-83814991D01*
X106859557Y-83658466D01*
X106808037Y-83488627D01*
X106790641Y-83312000D01*
X106808037Y-83135373D01*
X106859557Y-82965534D01*
X106943222Y-82809009D01*
X106972552Y-82773271D01*
X107055814Y-82671814D01*
X107157271Y-82588552D01*
X107193009Y-82559222D01*
X107349534Y-82475557D01*
X107519373Y-82424037D01*
X107585557Y-82417519D01*
X107651740Y-82411000D01*
X107740260Y-82411000D01*
X107806443Y-82417519D01*
X107806443Y-82417519D01*
G37*
G36*
X111845043Y-82417519D02*
G01*
X111911227Y-82424037D01*
X112081066Y-82475557D01*
X112237591Y-82559222D01*
X112273329Y-82588552D01*
X112374786Y-82671814D01*
X112458048Y-82773271D01*
X112487378Y-82809009D01*
X112571043Y-82965534D01*
X112622563Y-83135373D01*
X112639959Y-83312000D01*
X112622563Y-83488627D01*
X112571043Y-83658466D01*
X112487378Y-83814991D01*
X112458048Y-83850729D01*
X112374786Y-83952186D01*
X112273329Y-84035448D01*
X112237591Y-84064778D01*
X112081066Y-84148443D01*
X111911227Y-84199963D01*
X111845042Y-84206482D01*
X111778860Y-84213000D01*
X111690340Y-84213000D01*
X111624158Y-84206482D01*
X111557973Y-84199963D01*
X111388134Y-84148443D01*
X111231609Y-84064778D01*
X111195871Y-84035448D01*
X111094414Y-83952186D01*
X111011152Y-83850729D01*
X110981822Y-83814991D01*
X110898157Y-83658466D01*
X110846637Y-83488627D01*
X110829241Y-83312000D01*
X110846637Y-83135373D01*
X110898157Y-82965534D01*
X110981822Y-82809009D01*
X111011152Y-82773271D01*
X111094414Y-82671814D01*
X111195871Y-82588552D01*
X111231609Y-82559222D01*
X111388134Y-82475557D01*
X111557973Y-82424037D01*
X111624157Y-82417519D01*
X111690340Y-82411000D01*
X111778860Y-82411000D01*
X111845043Y-82417519D01*
X111845043Y-82417519D01*
G37*
G36*
X163432442Y-81909518D02*
G01*
X163498627Y-81916037D01*
X163668466Y-81967557D01*
X163824991Y-82051222D01*
X163860729Y-82080552D01*
X163962186Y-82163814D01*
X164045448Y-82265271D01*
X164074778Y-82301009D01*
X164158443Y-82457534D01*
X164209963Y-82627373D01*
X164227359Y-82804000D01*
X164209963Y-82980627D01*
X164158443Y-83150466D01*
X164074778Y-83306991D01*
X164070667Y-83312000D01*
X163962186Y-83444186D01*
X163860729Y-83527448D01*
X163824991Y-83556778D01*
X163668466Y-83640443D01*
X163498627Y-83691963D01*
X163432442Y-83698482D01*
X163366260Y-83705000D01*
X163277740Y-83705000D01*
X163211558Y-83698482D01*
X163145373Y-83691963D01*
X162975534Y-83640443D01*
X162819009Y-83556778D01*
X162783271Y-83527448D01*
X162681814Y-83444186D01*
X162573333Y-83312000D01*
X162569222Y-83306991D01*
X162485557Y-83150466D01*
X162434037Y-82980627D01*
X162416641Y-82804000D01*
X162434037Y-82627373D01*
X162485557Y-82457534D01*
X162569222Y-82301009D01*
X162598552Y-82265271D01*
X162681814Y-82163814D01*
X162783271Y-82080552D01*
X162819009Y-82051222D01*
X162975534Y-81967557D01*
X163145373Y-81916037D01*
X163211558Y-81909518D01*
X163277740Y-81903000D01*
X163366260Y-81903000D01*
X163432442Y-81909518D01*
X163432442Y-81909518D01*
G37*
G36*
X165972442Y-81909518D02*
G01*
X166038627Y-81916037D01*
X166208466Y-81967557D01*
X166364991Y-82051222D01*
X166400729Y-82080552D01*
X166502186Y-82163814D01*
X166585448Y-82265271D01*
X166614778Y-82301009D01*
X166698443Y-82457534D01*
X166749963Y-82627373D01*
X166767359Y-82804000D01*
X166749963Y-82980627D01*
X166698443Y-83150466D01*
X166614778Y-83306991D01*
X166610667Y-83312000D01*
X166502186Y-83444186D01*
X166400729Y-83527448D01*
X166364991Y-83556778D01*
X166208466Y-83640443D01*
X166038627Y-83691963D01*
X165972442Y-83698482D01*
X165906260Y-83705000D01*
X165817740Y-83705000D01*
X165751558Y-83698482D01*
X165685373Y-83691963D01*
X165515534Y-83640443D01*
X165359009Y-83556778D01*
X165323271Y-83527448D01*
X165221814Y-83444186D01*
X165113333Y-83312000D01*
X165109222Y-83306991D01*
X165025557Y-83150466D01*
X164974037Y-82980627D01*
X164956641Y-82804000D01*
X164974037Y-82627373D01*
X165025557Y-82457534D01*
X165109222Y-82301009D01*
X165138552Y-82265271D01*
X165221814Y-82163814D01*
X165323271Y-82080552D01*
X165359009Y-82051222D01*
X165515534Y-81967557D01*
X165685373Y-81916037D01*
X165751558Y-81909518D01*
X165817740Y-81903000D01*
X165906260Y-81903000D01*
X165972442Y-81909518D01*
X165972442Y-81909518D01*
G37*
G36*
X108597000Y-81673000D02*
G01*
X106795000Y-81673000D01*
X106795000Y-79871000D01*
X108597000Y-79871000D01*
X108597000Y-81673000D01*
X108597000Y-81673000D01*
G37*
G36*
X112635600Y-81673000D02*
G01*
X110833600Y-81673000D01*
X110833600Y-79871000D01*
X112635600Y-79871000D01*
X112635600Y-81673000D01*
X112635600Y-81673000D01*
G37*
G36*
X108802144Y-71605680D02*
G01*
X109302612Y-71812981D01*
X109753022Y-72113935D01*
X110136065Y-72496978D01*
X110437019Y-72947388D01*
X110644320Y-73447856D01*
X110750000Y-73979147D01*
X110750000Y-74520853D01*
X110644320Y-75052144D01*
X110437019Y-75552612D01*
X110136065Y-76003022D01*
X109753022Y-76386065D01*
X109302612Y-76687019D01*
X108802144Y-76894320D01*
X108270853Y-77000000D01*
X107729147Y-77000000D01*
X107197856Y-76894320D01*
X106697388Y-76687019D01*
X106246978Y-76386065D01*
X105863935Y-76003022D01*
X105562981Y-75552612D01*
X105355680Y-75052144D01*
X105250000Y-74520853D01*
X105250000Y-73979147D01*
X105355680Y-73447856D01*
X105562981Y-72947388D01*
X105863935Y-72496978D01*
X106246978Y-72113935D01*
X106697388Y-71812981D01*
X107197856Y-71605680D01*
X107729147Y-71500000D01*
X108270853Y-71500000D01*
X108802144Y-71605680D01*
X108802144Y-71605680D01*
G37*
G36*
X166802144Y-71605680D02*
G01*
X167302612Y-71812981D01*
X167753022Y-72113935D01*
X168136065Y-72496978D01*
X168437019Y-72947388D01*
X168644320Y-73447856D01*
X168750000Y-73979147D01*
X168750000Y-74520853D01*
X168644320Y-75052144D01*
X168437019Y-75552612D01*
X168136065Y-76003022D01*
X167753022Y-76386065D01*
X167302612Y-76687019D01*
X166802144Y-76894320D01*
X166270853Y-77000000D01*
X165729147Y-77000000D01*
X165197856Y-76894320D01*
X164697388Y-76687019D01*
X164246978Y-76386065D01*
X163863935Y-76003022D01*
X163562981Y-75552612D01*
X163355680Y-75052144D01*
X163250000Y-74520853D01*
X163250000Y-73979147D01*
X163355680Y-73447856D01*
X163562981Y-72947388D01*
X163863935Y-72496978D01*
X164246978Y-72113935D01*
X164697388Y-71812981D01*
X165197856Y-71605680D01*
X165729147Y-71500000D01*
X166270853Y-71500000D01*
X166802144Y-71605680D01*
X166802144Y-71605680D01*
G37*
G36*
X143366443Y-74543519D02*
G01*
X143432627Y-74550037D01*
X143602466Y-74601557D01*
X143758991Y-74685222D01*
X143794729Y-74714552D01*
X143896186Y-74797814D01*
X143979448Y-74899271D01*
X144008778Y-74935009D01*
X144092443Y-75091534D01*
X144143963Y-75261373D01*
X144161359Y-75438000D01*
X144143963Y-75614627D01*
X144092443Y-75784466D01*
X144008778Y-75940991D01*
X143979448Y-75976729D01*
X143896186Y-76078186D01*
X143794729Y-76161448D01*
X143758991Y-76190778D01*
X143602466Y-76274443D01*
X143432627Y-76325963D01*
X143366442Y-76332482D01*
X143300260Y-76339000D01*
X143211740Y-76339000D01*
X143145558Y-76332482D01*
X143079373Y-76325963D01*
X142909534Y-76274443D01*
X142753009Y-76190778D01*
X142717271Y-76161448D01*
X142615814Y-76078186D01*
X142532552Y-75976729D01*
X142503222Y-75940991D01*
X142419557Y-75784466D01*
X142368037Y-75614627D01*
X142350641Y-75438000D01*
X142368037Y-75261373D01*
X142419557Y-75091534D01*
X142503222Y-74935009D01*
X142532552Y-74899271D01*
X142615814Y-74797814D01*
X142717271Y-74714552D01*
X142753009Y-74685222D01*
X142909534Y-74601557D01*
X143079373Y-74550037D01*
X143145557Y-74543519D01*
X143211740Y-74537000D01*
X143300260Y-74537000D01*
X143366443Y-74543519D01*
X143366443Y-74543519D01*
G37*
G36*
X156066443Y-74543519D02*
G01*
X156132627Y-74550037D01*
X156302466Y-74601557D01*
X156458991Y-74685222D01*
X156494729Y-74714552D01*
X156596186Y-74797814D01*
X156679448Y-74899271D01*
X156708778Y-74935009D01*
X156792443Y-75091534D01*
X156843963Y-75261373D01*
X156861359Y-75438000D01*
X156843963Y-75614627D01*
X156792443Y-75784466D01*
X156708778Y-75940991D01*
X156679448Y-75976729D01*
X156596186Y-76078186D01*
X156494729Y-76161448D01*
X156458991Y-76190778D01*
X156302466Y-76274443D01*
X156132627Y-76325963D01*
X156066442Y-76332482D01*
X156000260Y-76339000D01*
X155911740Y-76339000D01*
X155845558Y-76332482D01*
X155779373Y-76325963D01*
X155609534Y-76274443D01*
X155453009Y-76190778D01*
X155417271Y-76161448D01*
X155315814Y-76078186D01*
X155232552Y-75976729D01*
X155203222Y-75940991D01*
X155119557Y-75784466D01*
X155068037Y-75614627D01*
X155050641Y-75438000D01*
X155068037Y-75261373D01*
X155119557Y-75091534D01*
X155203222Y-74935009D01*
X155232552Y-74899271D01*
X155315814Y-74797814D01*
X155417271Y-74714552D01*
X155453009Y-74685222D01*
X155609534Y-74601557D01*
X155779373Y-74550037D01*
X155845557Y-74543519D01*
X155911740Y-74537000D01*
X156000260Y-74537000D01*
X156066443Y-74543519D01*
X156066443Y-74543519D01*
G37*
G36*
X158606443Y-74543519D02*
G01*
X158672627Y-74550037D01*
X158842466Y-74601557D01*
X158998991Y-74685222D01*
X159034729Y-74714552D01*
X159136186Y-74797814D01*
X159219448Y-74899271D01*
X159248778Y-74935009D01*
X159332443Y-75091534D01*
X159383963Y-75261373D01*
X159401359Y-75438000D01*
X159383963Y-75614627D01*
X159332443Y-75784466D01*
X159248778Y-75940991D01*
X159219448Y-75976729D01*
X159136186Y-76078186D01*
X159034729Y-76161448D01*
X158998991Y-76190778D01*
X158842466Y-76274443D01*
X158672627Y-76325963D01*
X158606442Y-76332482D01*
X158540260Y-76339000D01*
X158451740Y-76339000D01*
X158385558Y-76332482D01*
X158319373Y-76325963D01*
X158149534Y-76274443D01*
X157993009Y-76190778D01*
X157957271Y-76161448D01*
X157855814Y-76078186D01*
X157772552Y-75976729D01*
X157743222Y-75940991D01*
X157659557Y-75784466D01*
X157608037Y-75614627D01*
X157590641Y-75438000D01*
X157608037Y-75261373D01*
X157659557Y-75091534D01*
X157743222Y-74935009D01*
X157772552Y-74899271D01*
X157855814Y-74797814D01*
X157957271Y-74714552D01*
X157993009Y-74685222D01*
X158149534Y-74601557D01*
X158319373Y-74550037D01*
X158385557Y-74543519D01*
X158451740Y-74537000D01*
X158540260Y-74537000D01*
X158606443Y-74543519D01*
X158606443Y-74543519D01*
G37*
G36*
X112886443Y-74543519D02*
G01*
X112952627Y-74550037D01*
X113122466Y-74601557D01*
X113278991Y-74685222D01*
X113314729Y-74714552D01*
X113416186Y-74797814D01*
X113499448Y-74899271D01*
X113528778Y-74935009D01*
X113612443Y-75091534D01*
X113663963Y-75261373D01*
X113681359Y-75438000D01*
X113663963Y-75614627D01*
X113612443Y-75784466D01*
X113528778Y-75940991D01*
X113499448Y-75976729D01*
X113416186Y-76078186D01*
X113314729Y-76161448D01*
X113278991Y-76190778D01*
X113122466Y-76274443D01*
X112952627Y-76325963D01*
X112886442Y-76332482D01*
X112820260Y-76339000D01*
X112731740Y-76339000D01*
X112665558Y-76332482D01*
X112599373Y-76325963D01*
X112429534Y-76274443D01*
X112273009Y-76190778D01*
X112237271Y-76161448D01*
X112135814Y-76078186D01*
X112052552Y-75976729D01*
X112023222Y-75940991D01*
X111939557Y-75784466D01*
X111888037Y-75614627D01*
X111870641Y-75438000D01*
X111888037Y-75261373D01*
X111939557Y-75091534D01*
X112023222Y-74935009D01*
X112052552Y-74899271D01*
X112135814Y-74797814D01*
X112237271Y-74714552D01*
X112273009Y-74685222D01*
X112429534Y-74601557D01*
X112599373Y-74550037D01*
X112665557Y-74543519D01*
X112731740Y-74537000D01*
X112820260Y-74537000D01*
X112886443Y-74543519D01*
X112886443Y-74543519D01*
G37*
G36*
X135746443Y-74543519D02*
G01*
X135812627Y-74550037D01*
X135982466Y-74601557D01*
X136138991Y-74685222D01*
X136174729Y-74714552D01*
X136276186Y-74797814D01*
X136359448Y-74899271D01*
X136388778Y-74935009D01*
X136472443Y-75091534D01*
X136523963Y-75261373D01*
X136541359Y-75438000D01*
X136523963Y-75614627D01*
X136472443Y-75784466D01*
X136388778Y-75940991D01*
X136359448Y-75976729D01*
X136276186Y-76078186D01*
X136174729Y-76161448D01*
X136138991Y-76190778D01*
X135982466Y-76274443D01*
X135812627Y-76325963D01*
X135746442Y-76332482D01*
X135680260Y-76339000D01*
X135591740Y-76339000D01*
X135525558Y-76332482D01*
X135459373Y-76325963D01*
X135289534Y-76274443D01*
X135133009Y-76190778D01*
X135097271Y-76161448D01*
X134995814Y-76078186D01*
X134912552Y-75976729D01*
X134883222Y-75940991D01*
X134799557Y-75784466D01*
X134748037Y-75614627D01*
X134730641Y-75438000D01*
X134748037Y-75261373D01*
X134799557Y-75091534D01*
X134883222Y-74935009D01*
X134912552Y-74899271D01*
X134995814Y-74797814D01*
X135097271Y-74714552D01*
X135133009Y-74685222D01*
X135289534Y-74601557D01*
X135459373Y-74550037D01*
X135525557Y-74543519D01*
X135591740Y-74537000D01*
X135680260Y-74537000D01*
X135746443Y-74543519D01*
X135746443Y-74543519D01*
G37*
G36*
X125586443Y-74543519D02*
G01*
X125652627Y-74550037D01*
X125822466Y-74601557D01*
X125978991Y-74685222D01*
X126014729Y-74714552D01*
X126116186Y-74797814D01*
X126199448Y-74899271D01*
X126228778Y-74935009D01*
X126312443Y-75091534D01*
X126363963Y-75261373D01*
X126381359Y-75438000D01*
X126363963Y-75614627D01*
X126312443Y-75784466D01*
X126228778Y-75940991D01*
X126199448Y-75976729D01*
X126116186Y-76078186D01*
X126014729Y-76161448D01*
X125978991Y-76190778D01*
X125822466Y-76274443D01*
X125652627Y-76325963D01*
X125586442Y-76332482D01*
X125520260Y-76339000D01*
X125431740Y-76339000D01*
X125365558Y-76332482D01*
X125299373Y-76325963D01*
X125129534Y-76274443D01*
X124973009Y-76190778D01*
X124937271Y-76161448D01*
X124835814Y-76078186D01*
X124752552Y-75976729D01*
X124723222Y-75940991D01*
X124639557Y-75784466D01*
X124588037Y-75614627D01*
X124570641Y-75438000D01*
X124588037Y-75261373D01*
X124639557Y-75091534D01*
X124723222Y-74935009D01*
X124752552Y-74899271D01*
X124835814Y-74797814D01*
X124937271Y-74714552D01*
X124973009Y-74685222D01*
X125129534Y-74601557D01*
X125299373Y-74550037D01*
X125365557Y-74543519D01*
X125431740Y-74537000D01*
X125520260Y-74537000D01*
X125586443Y-74543519D01*
X125586443Y-74543519D01*
G37*
G36*
X153526443Y-74543519D02*
G01*
X153592627Y-74550037D01*
X153762466Y-74601557D01*
X153918991Y-74685222D01*
X153954729Y-74714552D01*
X154056186Y-74797814D01*
X154139448Y-74899271D01*
X154168778Y-74935009D01*
X154252443Y-75091534D01*
X154303963Y-75261373D01*
X154321359Y-75438000D01*
X154303963Y-75614627D01*
X154252443Y-75784466D01*
X154168778Y-75940991D01*
X154139448Y-75976729D01*
X154056186Y-76078186D01*
X153954729Y-76161448D01*
X153918991Y-76190778D01*
X153762466Y-76274443D01*
X153592627Y-76325963D01*
X153526442Y-76332482D01*
X153460260Y-76339000D01*
X153371740Y-76339000D01*
X153305558Y-76332482D01*
X153239373Y-76325963D01*
X153069534Y-76274443D01*
X152913009Y-76190778D01*
X152877271Y-76161448D01*
X152775814Y-76078186D01*
X152692552Y-75976729D01*
X152663222Y-75940991D01*
X152579557Y-75784466D01*
X152528037Y-75614627D01*
X152510641Y-75438000D01*
X152528037Y-75261373D01*
X152579557Y-75091534D01*
X152663222Y-74935009D01*
X152692552Y-74899271D01*
X152775814Y-74797814D01*
X152877271Y-74714552D01*
X152913009Y-74685222D01*
X153069534Y-74601557D01*
X153239373Y-74550037D01*
X153305557Y-74543519D01*
X153371740Y-74537000D01*
X153460260Y-74537000D01*
X153526443Y-74543519D01*
X153526443Y-74543519D01*
G37*
G36*
X123046443Y-74543519D02*
G01*
X123112627Y-74550037D01*
X123282466Y-74601557D01*
X123438991Y-74685222D01*
X123474729Y-74714552D01*
X123576186Y-74797814D01*
X123659448Y-74899271D01*
X123688778Y-74935009D01*
X123772443Y-75091534D01*
X123823963Y-75261373D01*
X123841359Y-75438000D01*
X123823963Y-75614627D01*
X123772443Y-75784466D01*
X123688778Y-75940991D01*
X123659448Y-75976729D01*
X123576186Y-76078186D01*
X123474729Y-76161448D01*
X123438991Y-76190778D01*
X123282466Y-76274443D01*
X123112627Y-76325963D01*
X123046442Y-76332482D01*
X122980260Y-76339000D01*
X122891740Y-76339000D01*
X122825558Y-76332482D01*
X122759373Y-76325963D01*
X122589534Y-76274443D01*
X122433009Y-76190778D01*
X122397271Y-76161448D01*
X122295814Y-76078186D01*
X122212552Y-75976729D01*
X122183222Y-75940991D01*
X122099557Y-75784466D01*
X122048037Y-75614627D01*
X122030641Y-75438000D01*
X122048037Y-75261373D01*
X122099557Y-75091534D01*
X122183222Y-74935009D01*
X122212552Y-74899271D01*
X122295814Y-74797814D01*
X122397271Y-74714552D01*
X122433009Y-74685222D01*
X122589534Y-74601557D01*
X122759373Y-74550037D01*
X122825557Y-74543519D01*
X122891740Y-74537000D01*
X122980260Y-74537000D01*
X123046443Y-74543519D01*
X123046443Y-74543519D01*
G37*
G36*
X140826443Y-74543519D02*
G01*
X140892627Y-74550037D01*
X141062466Y-74601557D01*
X141218991Y-74685222D01*
X141254729Y-74714552D01*
X141356186Y-74797814D01*
X141439448Y-74899271D01*
X141468778Y-74935009D01*
X141552443Y-75091534D01*
X141603963Y-75261373D01*
X141621359Y-75438000D01*
X141603963Y-75614627D01*
X141552443Y-75784466D01*
X141468778Y-75940991D01*
X141439448Y-75976729D01*
X141356186Y-76078186D01*
X141254729Y-76161448D01*
X141218991Y-76190778D01*
X141062466Y-76274443D01*
X140892627Y-76325963D01*
X140826442Y-76332482D01*
X140760260Y-76339000D01*
X140671740Y-76339000D01*
X140605558Y-76332482D01*
X140539373Y-76325963D01*
X140369534Y-76274443D01*
X140213009Y-76190778D01*
X140177271Y-76161448D01*
X140075814Y-76078186D01*
X139992552Y-75976729D01*
X139963222Y-75940991D01*
X139879557Y-75784466D01*
X139828037Y-75614627D01*
X139810641Y-75438000D01*
X139828037Y-75261373D01*
X139879557Y-75091534D01*
X139963222Y-74935009D01*
X139992552Y-74899271D01*
X140075814Y-74797814D01*
X140177271Y-74714552D01*
X140213009Y-74685222D01*
X140369534Y-74601557D01*
X140539373Y-74550037D01*
X140605557Y-74543519D01*
X140671740Y-74537000D01*
X140760260Y-74537000D01*
X140826443Y-74543519D01*
X140826443Y-74543519D01*
G37*
G36*
X130666443Y-74543519D02*
G01*
X130732627Y-74550037D01*
X130902466Y-74601557D01*
X131058991Y-74685222D01*
X131094729Y-74714552D01*
X131196186Y-74797814D01*
X131279448Y-74899271D01*
X131308778Y-74935009D01*
X131392443Y-75091534D01*
X131443963Y-75261373D01*
X131461359Y-75438000D01*
X131443963Y-75614627D01*
X131392443Y-75784466D01*
X131308778Y-75940991D01*
X131279448Y-75976729D01*
X131196186Y-76078186D01*
X131094729Y-76161448D01*
X131058991Y-76190778D01*
X130902466Y-76274443D01*
X130732627Y-76325963D01*
X130666442Y-76332482D01*
X130600260Y-76339000D01*
X130511740Y-76339000D01*
X130445558Y-76332482D01*
X130379373Y-76325963D01*
X130209534Y-76274443D01*
X130053009Y-76190778D01*
X130017271Y-76161448D01*
X129915814Y-76078186D01*
X129832552Y-75976729D01*
X129803222Y-75940991D01*
X129719557Y-75784466D01*
X129668037Y-75614627D01*
X129650641Y-75438000D01*
X129668037Y-75261373D01*
X129719557Y-75091534D01*
X129803222Y-74935009D01*
X129832552Y-74899271D01*
X129915814Y-74797814D01*
X130017271Y-74714552D01*
X130053009Y-74685222D01*
X130209534Y-74601557D01*
X130379373Y-74550037D01*
X130445557Y-74543519D01*
X130511740Y-74537000D01*
X130600260Y-74537000D01*
X130666443Y-74543519D01*
X130666443Y-74543519D01*
G37*
G36*
X148446443Y-74543519D02*
G01*
X148512627Y-74550037D01*
X148682466Y-74601557D01*
X148838991Y-74685222D01*
X148874729Y-74714552D01*
X148976186Y-74797814D01*
X149059448Y-74899271D01*
X149088778Y-74935009D01*
X149172443Y-75091534D01*
X149223963Y-75261373D01*
X149241359Y-75438000D01*
X149223963Y-75614627D01*
X149172443Y-75784466D01*
X149088778Y-75940991D01*
X149059448Y-75976729D01*
X148976186Y-76078186D01*
X148874729Y-76161448D01*
X148838991Y-76190778D01*
X148682466Y-76274443D01*
X148512627Y-76325963D01*
X148446442Y-76332482D01*
X148380260Y-76339000D01*
X148291740Y-76339000D01*
X148225558Y-76332482D01*
X148159373Y-76325963D01*
X147989534Y-76274443D01*
X147833009Y-76190778D01*
X147797271Y-76161448D01*
X147695814Y-76078186D01*
X147612552Y-75976729D01*
X147583222Y-75940991D01*
X147499557Y-75784466D01*
X147448037Y-75614627D01*
X147430641Y-75438000D01*
X147448037Y-75261373D01*
X147499557Y-75091534D01*
X147583222Y-74935009D01*
X147612552Y-74899271D01*
X147695814Y-74797814D01*
X147797271Y-74714552D01*
X147833009Y-74685222D01*
X147989534Y-74601557D01*
X148159373Y-74550037D01*
X148225557Y-74543519D01*
X148291740Y-74537000D01*
X148380260Y-74537000D01*
X148446443Y-74543519D01*
X148446443Y-74543519D01*
G37*
G36*
X133206443Y-74543519D02*
G01*
X133272627Y-74550037D01*
X133442466Y-74601557D01*
X133598991Y-74685222D01*
X133634729Y-74714552D01*
X133736186Y-74797814D01*
X133819448Y-74899271D01*
X133848778Y-74935009D01*
X133932443Y-75091534D01*
X133983963Y-75261373D01*
X134001359Y-75438000D01*
X133983963Y-75614627D01*
X133932443Y-75784466D01*
X133848778Y-75940991D01*
X133819448Y-75976729D01*
X133736186Y-76078186D01*
X133634729Y-76161448D01*
X133598991Y-76190778D01*
X133442466Y-76274443D01*
X133272627Y-76325963D01*
X133206442Y-76332482D01*
X133140260Y-76339000D01*
X133051740Y-76339000D01*
X132985558Y-76332482D01*
X132919373Y-76325963D01*
X132749534Y-76274443D01*
X132593009Y-76190778D01*
X132557271Y-76161448D01*
X132455814Y-76078186D01*
X132372552Y-75976729D01*
X132343222Y-75940991D01*
X132259557Y-75784466D01*
X132208037Y-75614627D01*
X132190641Y-75438000D01*
X132208037Y-75261373D01*
X132259557Y-75091534D01*
X132343222Y-74935009D01*
X132372552Y-74899271D01*
X132455814Y-74797814D01*
X132557271Y-74714552D01*
X132593009Y-74685222D01*
X132749534Y-74601557D01*
X132919373Y-74550037D01*
X132985557Y-74543519D01*
X133051740Y-74537000D01*
X133140260Y-74537000D01*
X133206443Y-74543519D01*
X133206443Y-74543519D01*
G37*
G36*
X161937000Y-76339000D02*
G01*
X160135000Y-76339000D01*
X160135000Y-74537000D01*
X161937000Y-74537000D01*
X161937000Y-76339000D01*
X161937000Y-76339000D01*
G37*
G36*
X117966443Y-74543519D02*
G01*
X118032627Y-74550037D01*
X118202466Y-74601557D01*
X118358991Y-74685222D01*
X118394729Y-74714552D01*
X118496186Y-74797814D01*
X118579448Y-74899271D01*
X118608778Y-74935009D01*
X118692443Y-75091534D01*
X118743963Y-75261373D01*
X118761359Y-75438000D01*
X118743963Y-75614627D01*
X118692443Y-75784466D01*
X118608778Y-75940991D01*
X118579448Y-75976729D01*
X118496186Y-76078186D01*
X118394729Y-76161448D01*
X118358991Y-76190778D01*
X118202466Y-76274443D01*
X118032627Y-76325963D01*
X117966442Y-76332482D01*
X117900260Y-76339000D01*
X117811740Y-76339000D01*
X117745558Y-76332482D01*
X117679373Y-76325963D01*
X117509534Y-76274443D01*
X117353009Y-76190778D01*
X117317271Y-76161448D01*
X117215814Y-76078186D01*
X117132552Y-75976729D01*
X117103222Y-75940991D01*
X117019557Y-75784466D01*
X116968037Y-75614627D01*
X116950641Y-75438000D01*
X116968037Y-75261373D01*
X117019557Y-75091534D01*
X117103222Y-74935009D01*
X117132552Y-74899271D01*
X117215814Y-74797814D01*
X117317271Y-74714552D01*
X117353009Y-74685222D01*
X117509534Y-74601557D01*
X117679373Y-74550037D01*
X117745557Y-74543519D01*
X117811740Y-74537000D01*
X117900260Y-74537000D01*
X117966443Y-74543519D01*
X117966443Y-74543519D01*
G37*
G36*
X120506443Y-74543519D02*
G01*
X120572627Y-74550037D01*
X120742466Y-74601557D01*
X120898991Y-74685222D01*
X120934729Y-74714552D01*
X121036186Y-74797814D01*
X121119448Y-74899271D01*
X121148778Y-74935009D01*
X121232443Y-75091534D01*
X121283963Y-75261373D01*
X121301359Y-75438000D01*
X121283963Y-75614627D01*
X121232443Y-75784466D01*
X121148778Y-75940991D01*
X121119448Y-75976729D01*
X121036186Y-76078186D01*
X120934729Y-76161448D01*
X120898991Y-76190778D01*
X120742466Y-76274443D01*
X120572627Y-76325963D01*
X120506442Y-76332482D01*
X120440260Y-76339000D01*
X120351740Y-76339000D01*
X120285558Y-76332482D01*
X120219373Y-76325963D01*
X120049534Y-76274443D01*
X119893009Y-76190778D01*
X119857271Y-76161448D01*
X119755814Y-76078186D01*
X119672552Y-75976729D01*
X119643222Y-75940991D01*
X119559557Y-75784466D01*
X119508037Y-75614627D01*
X119490641Y-75438000D01*
X119508037Y-75261373D01*
X119559557Y-75091534D01*
X119643222Y-74935009D01*
X119672552Y-74899271D01*
X119755814Y-74797814D01*
X119857271Y-74714552D01*
X119893009Y-74685222D01*
X120049534Y-74601557D01*
X120219373Y-74550037D01*
X120285557Y-74543519D01*
X120351740Y-74537000D01*
X120440260Y-74537000D01*
X120506443Y-74543519D01*
X120506443Y-74543519D01*
G37*
G36*
X115426443Y-74543519D02*
G01*
X115492627Y-74550037D01*
X115662466Y-74601557D01*
X115818991Y-74685222D01*
X115854729Y-74714552D01*
X115956186Y-74797814D01*
X116039448Y-74899271D01*
X116068778Y-74935009D01*
X116152443Y-75091534D01*
X116203963Y-75261373D01*
X116221359Y-75438000D01*
X116203963Y-75614627D01*
X116152443Y-75784466D01*
X116068778Y-75940991D01*
X116039448Y-75976729D01*
X115956186Y-76078186D01*
X115854729Y-76161448D01*
X115818991Y-76190778D01*
X115662466Y-76274443D01*
X115492627Y-76325963D01*
X115426442Y-76332482D01*
X115360260Y-76339000D01*
X115271740Y-76339000D01*
X115205558Y-76332482D01*
X115139373Y-76325963D01*
X114969534Y-76274443D01*
X114813009Y-76190778D01*
X114777271Y-76161448D01*
X114675814Y-76078186D01*
X114592552Y-75976729D01*
X114563222Y-75940991D01*
X114479557Y-75784466D01*
X114428037Y-75614627D01*
X114410641Y-75438000D01*
X114428037Y-75261373D01*
X114479557Y-75091534D01*
X114563222Y-74935009D01*
X114592552Y-74899271D01*
X114675814Y-74797814D01*
X114777271Y-74714552D01*
X114813009Y-74685222D01*
X114969534Y-74601557D01*
X115139373Y-74550037D01*
X115205557Y-74543519D01*
X115271740Y-74537000D01*
X115360260Y-74537000D01*
X115426443Y-74543519D01*
X115426443Y-74543519D01*
G37*
G36*
X138286443Y-74543519D02*
G01*
X138352627Y-74550037D01*
X138522466Y-74601557D01*
X138678991Y-74685222D01*
X138714729Y-74714552D01*
X138816186Y-74797814D01*
X138899448Y-74899271D01*
X138928778Y-74935009D01*
X139012443Y-75091534D01*
X139063963Y-75261373D01*
X139081359Y-75438000D01*
X139063963Y-75614627D01*
X139012443Y-75784466D01*
X138928778Y-75940991D01*
X138899448Y-75976729D01*
X138816186Y-76078186D01*
X138714729Y-76161448D01*
X138678991Y-76190778D01*
X138522466Y-76274443D01*
X138352627Y-76325963D01*
X138286442Y-76332482D01*
X138220260Y-76339000D01*
X138131740Y-76339000D01*
X138065558Y-76332482D01*
X137999373Y-76325963D01*
X137829534Y-76274443D01*
X137673009Y-76190778D01*
X137637271Y-76161448D01*
X137535814Y-76078186D01*
X137452552Y-75976729D01*
X137423222Y-75940991D01*
X137339557Y-75784466D01*
X137288037Y-75614627D01*
X137270641Y-75438000D01*
X137288037Y-75261373D01*
X137339557Y-75091534D01*
X137423222Y-74935009D01*
X137452552Y-74899271D01*
X137535814Y-74797814D01*
X137637271Y-74714552D01*
X137673009Y-74685222D01*
X137829534Y-74601557D01*
X137999373Y-74550037D01*
X138065557Y-74543519D01*
X138131740Y-74537000D01*
X138220260Y-74537000D01*
X138286443Y-74543519D01*
X138286443Y-74543519D01*
G37*
G36*
X150986443Y-74543519D02*
G01*
X151052627Y-74550037D01*
X151222466Y-74601557D01*
X151378991Y-74685222D01*
X151414729Y-74714552D01*
X151516186Y-74797814D01*
X151599448Y-74899271D01*
X151628778Y-74935009D01*
X151712443Y-75091534D01*
X151763963Y-75261373D01*
X151781359Y-75438000D01*
X151763963Y-75614627D01*
X151712443Y-75784466D01*
X151628778Y-75940991D01*
X151599448Y-75976729D01*
X151516186Y-76078186D01*
X151414729Y-76161448D01*
X151378991Y-76190778D01*
X151222466Y-76274443D01*
X151052627Y-76325963D01*
X150986442Y-76332482D01*
X150920260Y-76339000D01*
X150831740Y-76339000D01*
X150765558Y-76332482D01*
X150699373Y-76325963D01*
X150529534Y-76274443D01*
X150373009Y-76190778D01*
X150337271Y-76161448D01*
X150235814Y-76078186D01*
X150152552Y-75976729D01*
X150123222Y-75940991D01*
X150039557Y-75784466D01*
X149988037Y-75614627D01*
X149970641Y-75438000D01*
X149988037Y-75261373D01*
X150039557Y-75091534D01*
X150123222Y-74935009D01*
X150152552Y-74899271D01*
X150235814Y-74797814D01*
X150337271Y-74714552D01*
X150373009Y-74685222D01*
X150529534Y-74601557D01*
X150699373Y-74550037D01*
X150765557Y-74543519D01*
X150831740Y-74537000D01*
X150920260Y-74537000D01*
X150986443Y-74543519D01*
X150986443Y-74543519D01*
G37*
G36*
X145906443Y-74543519D02*
G01*
X145972627Y-74550037D01*
X146142466Y-74601557D01*
X146298991Y-74685222D01*
X146334729Y-74714552D01*
X146436186Y-74797814D01*
X146519448Y-74899271D01*
X146548778Y-74935009D01*
X146632443Y-75091534D01*
X146683963Y-75261373D01*
X146701359Y-75438000D01*
X146683963Y-75614627D01*
X146632443Y-75784466D01*
X146548778Y-75940991D01*
X146519448Y-75976729D01*
X146436186Y-76078186D01*
X146334729Y-76161448D01*
X146298991Y-76190778D01*
X146142466Y-76274443D01*
X145972627Y-76325963D01*
X145906442Y-76332482D01*
X145840260Y-76339000D01*
X145751740Y-76339000D01*
X145685558Y-76332482D01*
X145619373Y-76325963D01*
X145449534Y-76274443D01*
X145293009Y-76190778D01*
X145257271Y-76161448D01*
X145155814Y-76078186D01*
X145072552Y-75976729D01*
X145043222Y-75940991D01*
X144959557Y-75784466D01*
X144908037Y-75614627D01*
X144890641Y-75438000D01*
X144908037Y-75261373D01*
X144959557Y-75091534D01*
X145043222Y-74935009D01*
X145072552Y-74899271D01*
X145155814Y-74797814D01*
X145257271Y-74714552D01*
X145293009Y-74685222D01*
X145449534Y-74601557D01*
X145619373Y-74550037D01*
X145685557Y-74543519D01*
X145751740Y-74537000D01*
X145840260Y-74537000D01*
X145906443Y-74543519D01*
X145906443Y-74543519D01*
G37*
G36*
X128126443Y-74543519D02*
G01*
X128192627Y-74550037D01*
X128362466Y-74601557D01*
X128518991Y-74685222D01*
X128554729Y-74714552D01*
X128656186Y-74797814D01*
X128739448Y-74899271D01*
X128768778Y-74935009D01*
X128852443Y-75091534D01*
X128903963Y-75261373D01*
X128921359Y-75438000D01*
X128903963Y-75614627D01*
X128852443Y-75784466D01*
X128768778Y-75940991D01*
X128739448Y-75976729D01*
X128656186Y-76078186D01*
X128554729Y-76161448D01*
X128518991Y-76190778D01*
X128362466Y-76274443D01*
X128192627Y-76325963D01*
X128126442Y-76332482D01*
X128060260Y-76339000D01*
X127971740Y-76339000D01*
X127905558Y-76332482D01*
X127839373Y-76325963D01*
X127669534Y-76274443D01*
X127513009Y-76190778D01*
X127477271Y-76161448D01*
X127375814Y-76078186D01*
X127292552Y-75976729D01*
X127263222Y-75940991D01*
X127179557Y-75784466D01*
X127128037Y-75614627D01*
X127110641Y-75438000D01*
X127128037Y-75261373D01*
X127179557Y-75091534D01*
X127263222Y-74935009D01*
X127292552Y-74899271D01*
X127375814Y-74797814D01*
X127477271Y-74714552D01*
X127513009Y-74685222D01*
X127669534Y-74601557D01*
X127839373Y-74550037D01*
X127905557Y-74543519D01*
X127971740Y-74537000D01*
X128060260Y-74537000D01*
X128126443Y-74543519D01*
X128126443Y-74543519D01*
G37*
G36*
X130666443Y-72003519D02*
G01*
X130732627Y-72010037D01*
X130902466Y-72061557D01*
X131058991Y-72145222D01*
X131094729Y-72174552D01*
X131196186Y-72257814D01*
X131279448Y-72359271D01*
X131308778Y-72395009D01*
X131392443Y-72551534D01*
X131443963Y-72721373D01*
X131461359Y-72898000D01*
X131443963Y-73074627D01*
X131392443Y-73244466D01*
X131308778Y-73400991D01*
X131279448Y-73436729D01*
X131196186Y-73538186D01*
X131094729Y-73621448D01*
X131058991Y-73650778D01*
X130902466Y-73734443D01*
X130732627Y-73785963D01*
X130666443Y-73792481D01*
X130600260Y-73799000D01*
X130511740Y-73799000D01*
X130445557Y-73792481D01*
X130379373Y-73785963D01*
X130209534Y-73734443D01*
X130053009Y-73650778D01*
X130017271Y-73621448D01*
X129915814Y-73538186D01*
X129832552Y-73436729D01*
X129803222Y-73400991D01*
X129719557Y-73244466D01*
X129668037Y-73074627D01*
X129650641Y-72898000D01*
X129668037Y-72721373D01*
X129719557Y-72551534D01*
X129803222Y-72395009D01*
X129832552Y-72359271D01*
X129915814Y-72257814D01*
X130017271Y-72174552D01*
X130053009Y-72145222D01*
X130209534Y-72061557D01*
X130379373Y-72010037D01*
X130445557Y-72003519D01*
X130511740Y-71997000D01*
X130600260Y-71997000D01*
X130666443Y-72003519D01*
X130666443Y-72003519D01*
G37*
G36*
X117966443Y-72003519D02*
G01*
X118032627Y-72010037D01*
X118202466Y-72061557D01*
X118358991Y-72145222D01*
X118394729Y-72174552D01*
X118496186Y-72257814D01*
X118579448Y-72359271D01*
X118608778Y-72395009D01*
X118692443Y-72551534D01*
X118743963Y-72721373D01*
X118761359Y-72898000D01*
X118743963Y-73074627D01*
X118692443Y-73244466D01*
X118608778Y-73400991D01*
X118579448Y-73436729D01*
X118496186Y-73538186D01*
X118394729Y-73621448D01*
X118358991Y-73650778D01*
X118202466Y-73734443D01*
X118032627Y-73785963D01*
X117966443Y-73792481D01*
X117900260Y-73799000D01*
X117811740Y-73799000D01*
X117745557Y-73792481D01*
X117679373Y-73785963D01*
X117509534Y-73734443D01*
X117353009Y-73650778D01*
X117317271Y-73621448D01*
X117215814Y-73538186D01*
X117132552Y-73436729D01*
X117103222Y-73400991D01*
X117019557Y-73244466D01*
X116968037Y-73074627D01*
X116950641Y-72898000D01*
X116968037Y-72721373D01*
X117019557Y-72551534D01*
X117103222Y-72395009D01*
X117132552Y-72359271D01*
X117215814Y-72257814D01*
X117317271Y-72174552D01*
X117353009Y-72145222D01*
X117509534Y-72061557D01*
X117679373Y-72010037D01*
X117745557Y-72003519D01*
X117811740Y-71997000D01*
X117900260Y-71997000D01*
X117966443Y-72003519D01*
X117966443Y-72003519D01*
G37*
G36*
X120506443Y-72003519D02*
G01*
X120572627Y-72010037D01*
X120742466Y-72061557D01*
X120898991Y-72145222D01*
X120934729Y-72174552D01*
X121036186Y-72257814D01*
X121119448Y-72359271D01*
X121148778Y-72395009D01*
X121232443Y-72551534D01*
X121283963Y-72721373D01*
X121301359Y-72898000D01*
X121283963Y-73074627D01*
X121232443Y-73244466D01*
X121148778Y-73400991D01*
X121119448Y-73436729D01*
X121036186Y-73538186D01*
X120934729Y-73621448D01*
X120898991Y-73650778D01*
X120742466Y-73734443D01*
X120572627Y-73785963D01*
X120506443Y-73792481D01*
X120440260Y-73799000D01*
X120351740Y-73799000D01*
X120285557Y-73792481D01*
X120219373Y-73785963D01*
X120049534Y-73734443D01*
X119893009Y-73650778D01*
X119857271Y-73621448D01*
X119755814Y-73538186D01*
X119672552Y-73436729D01*
X119643222Y-73400991D01*
X119559557Y-73244466D01*
X119508037Y-73074627D01*
X119490641Y-72898000D01*
X119508037Y-72721373D01*
X119559557Y-72551534D01*
X119643222Y-72395009D01*
X119672552Y-72359271D01*
X119755814Y-72257814D01*
X119857271Y-72174552D01*
X119893009Y-72145222D01*
X120049534Y-72061557D01*
X120219373Y-72010037D01*
X120285557Y-72003519D01*
X120351740Y-71997000D01*
X120440260Y-71997000D01*
X120506443Y-72003519D01*
X120506443Y-72003519D01*
G37*
G36*
X123046443Y-72003519D02*
G01*
X123112627Y-72010037D01*
X123282466Y-72061557D01*
X123438991Y-72145222D01*
X123474729Y-72174552D01*
X123576186Y-72257814D01*
X123659448Y-72359271D01*
X123688778Y-72395009D01*
X123772443Y-72551534D01*
X123823963Y-72721373D01*
X123841359Y-72898000D01*
X123823963Y-73074627D01*
X123772443Y-73244466D01*
X123688778Y-73400991D01*
X123659448Y-73436729D01*
X123576186Y-73538186D01*
X123474729Y-73621448D01*
X123438991Y-73650778D01*
X123282466Y-73734443D01*
X123112627Y-73785963D01*
X123046443Y-73792481D01*
X122980260Y-73799000D01*
X122891740Y-73799000D01*
X122825557Y-73792481D01*
X122759373Y-73785963D01*
X122589534Y-73734443D01*
X122433009Y-73650778D01*
X122397271Y-73621448D01*
X122295814Y-73538186D01*
X122212552Y-73436729D01*
X122183222Y-73400991D01*
X122099557Y-73244466D01*
X122048037Y-73074627D01*
X122030641Y-72898000D01*
X122048037Y-72721373D01*
X122099557Y-72551534D01*
X122183222Y-72395009D01*
X122212552Y-72359271D01*
X122295814Y-72257814D01*
X122397271Y-72174552D01*
X122433009Y-72145222D01*
X122589534Y-72061557D01*
X122759373Y-72010037D01*
X122825557Y-72003519D01*
X122891740Y-71997000D01*
X122980260Y-71997000D01*
X123046443Y-72003519D01*
X123046443Y-72003519D01*
G37*
G36*
X115426443Y-72003519D02*
G01*
X115492627Y-72010037D01*
X115662466Y-72061557D01*
X115818991Y-72145222D01*
X115854729Y-72174552D01*
X115956186Y-72257814D01*
X116039448Y-72359271D01*
X116068778Y-72395009D01*
X116152443Y-72551534D01*
X116203963Y-72721373D01*
X116221359Y-72898000D01*
X116203963Y-73074627D01*
X116152443Y-73244466D01*
X116068778Y-73400991D01*
X116039448Y-73436729D01*
X115956186Y-73538186D01*
X115854729Y-73621448D01*
X115818991Y-73650778D01*
X115662466Y-73734443D01*
X115492627Y-73785963D01*
X115426443Y-73792481D01*
X115360260Y-73799000D01*
X115271740Y-73799000D01*
X115205557Y-73792481D01*
X115139373Y-73785963D01*
X114969534Y-73734443D01*
X114813009Y-73650778D01*
X114777271Y-73621448D01*
X114675814Y-73538186D01*
X114592552Y-73436729D01*
X114563222Y-73400991D01*
X114479557Y-73244466D01*
X114428037Y-73074627D01*
X114410641Y-72898000D01*
X114428037Y-72721373D01*
X114479557Y-72551534D01*
X114563222Y-72395009D01*
X114592552Y-72359271D01*
X114675814Y-72257814D01*
X114777271Y-72174552D01*
X114813009Y-72145222D01*
X114969534Y-72061557D01*
X115139373Y-72010037D01*
X115205557Y-72003519D01*
X115271740Y-71997000D01*
X115360260Y-71997000D01*
X115426443Y-72003519D01*
X115426443Y-72003519D01*
G37*
G36*
X125586443Y-72003519D02*
G01*
X125652627Y-72010037D01*
X125822466Y-72061557D01*
X125978991Y-72145222D01*
X126014729Y-72174552D01*
X126116186Y-72257814D01*
X126199448Y-72359271D01*
X126228778Y-72395009D01*
X126312443Y-72551534D01*
X126363963Y-72721373D01*
X126381359Y-72898000D01*
X126363963Y-73074627D01*
X126312443Y-73244466D01*
X126228778Y-73400991D01*
X126199448Y-73436729D01*
X126116186Y-73538186D01*
X126014729Y-73621448D01*
X125978991Y-73650778D01*
X125822466Y-73734443D01*
X125652627Y-73785963D01*
X125586443Y-73792481D01*
X125520260Y-73799000D01*
X125431740Y-73799000D01*
X125365557Y-73792481D01*
X125299373Y-73785963D01*
X125129534Y-73734443D01*
X124973009Y-73650778D01*
X124937271Y-73621448D01*
X124835814Y-73538186D01*
X124752552Y-73436729D01*
X124723222Y-73400991D01*
X124639557Y-73244466D01*
X124588037Y-73074627D01*
X124570641Y-72898000D01*
X124588037Y-72721373D01*
X124639557Y-72551534D01*
X124723222Y-72395009D01*
X124752552Y-72359271D01*
X124835814Y-72257814D01*
X124937271Y-72174552D01*
X124973009Y-72145222D01*
X125129534Y-72061557D01*
X125299373Y-72010037D01*
X125365557Y-72003519D01*
X125431740Y-71997000D01*
X125520260Y-71997000D01*
X125586443Y-72003519D01*
X125586443Y-72003519D01*
G37*
G36*
X112886443Y-72003519D02*
G01*
X112952627Y-72010037D01*
X113122466Y-72061557D01*
X113278991Y-72145222D01*
X113314729Y-72174552D01*
X113416186Y-72257814D01*
X113499448Y-72359271D01*
X113528778Y-72395009D01*
X113612443Y-72551534D01*
X113663963Y-72721373D01*
X113681359Y-72898000D01*
X113663963Y-73074627D01*
X113612443Y-73244466D01*
X113528778Y-73400991D01*
X113499448Y-73436729D01*
X113416186Y-73538186D01*
X113314729Y-73621448D01*
X113278991Y-73650778D01*
X113122466Y-73734443D01*
X112952627Y-73785963D01*
X112886443Y-73792481D01*
X112820260Y-73799000D01*
X112731740Y-73799000D01*
X112665557Y-73792481D01*
X112599373Y-73785963D01*
X112429534Y-73734443D01*
X112273009Y-73650778D01*
X112237271Y-73621448D01*
X112135814Y-73538186D01*
X112052552Y-73436729D01*
X112023222Y-73400991D01*
X111939557Y-73244466D01*
X111888037Y-73074627D01*
X111870641Y-72898000D01*
X111888037Y-72721373D01*
X111939557Y-72551534D01*
X112023222Y-72395009D01*
X112052552Y-72359271D01*
X112135814Y-72257814D01*
X112237271Y-72174552D01*
X112273009Y-72145222D01*
X112429534Y-72061557D01*
X112599373Y-72010037D01*
X112665557Y-72003519D01*
X112731740Y-71997000D01*
X112820260Y-71997000D01*
X112886443Y-72003519D01*
X112886443Y-72003519D01*
G37*
G36*
X161146443Y-72003519D02*
G01*
X161212627Y-72010037D01*
X161382466Y-72061557D01*
X161538991Y-72145222D01*
X161574729Y-72174552D01*
X161676186Y-72257814D01*
X161759448Y-72359271D01*
X161788778Y-72395009D01*
X161872443Y-72551534D01*
X161923963Y-72721373D01*
X161941359Y-72898000D01*
X161923963Y-73074627D01*
X161872443Y-73244466D01*
X161788778Y-73400991D01*
X161759448Y-73436729D01*
X161676186Y-73538186D01*
X161574729Y-73621448D01*
X161538991Y-73650778D01*
X161382466Y-73734443D01*
X161212627Y-73785963D01*
X161146443Y-73792481D01*
X161080260Y-73799000D01*
X160991740Y-73799000D01*
X160925557Y-73792481D01*
X160859373Y-73785963D01*
X160689534Y-73734443D01*
X160533009Y-73650778D01*
X160497271Y-73621448D01*
X160395814Y-73538186D01*
X160312552Y-73436729D01*
X160283222Y-73400991D01*
X160199557Y-73244466D01*
X160148037Y-73074627D01*
X160130641Y-72898000D01*
X160148037Y-72721373D01*
X160199557Y-72551534D01*
X160283222Y-72395009D01*
X160312552Y-72359271D01*
X160395814Y-72257814D01*
X160497271Y-72174552D01*
X160533009Y-72145222D01*
X160689534Y-72061557D01*
X160859373Y-72010037D01*
X160925557Y-72003519D01*
X160991740Y-71997000D01*
X161080260Y-71997000D01*
X161146443Y-72003519D01*
X161146443Y-72003519D01*
G37*
G36*
X158606443Y-72003519D02*
G01*
X158672627Y-72010037D01*
X158842466Y-72061557D01*
X158998991Y-72145222D01*
X159034729Y-72174552D01*
X159136186Y-72257814D01*
X159219448Y-72359271D01*
X159248778Y-72395009D01*
X159332443Y-72551534D01*
X159383963Y-72721373D01*
X159401359Y-72898000D01*
X159383963Y-73074627D01*
X159332443Y-73244466D01*
X159248778Y-73400991D01*
X159219448Y-73436729D01*
X159136186Y-73538186D01*
X159034729Y-73621448D01*
X158998991Y-73650778D01*
X158842466Y-73734443D01*
X158672627Y-73785963D01*
X158606443Y-73792481D01*
X158540260Y-73799000D01*
X158451740Y-73799000D01*
X158385557Y-73792481D01*
X158319373Y-73785963D01*
X158149534Y-73734443D01*
X157993009Y-73650778D01*
X157957271Y-73621448D01*
X157855814Y-73538186D01*
X157772552Y-73436729D01*
X157743222Y-73400991D01*
X157659557Y-73244466D01*
X157608037Y-73074627D01*
X157590641Y-72898000D01*
X157608037Y-72721373D01*
X157659557Y-72551534D01*
X157743222Y-72395009D01*
X157772552Y-72359271D01*
X157855814Y-72257814D01*
X157957271Y-72174552D01*
X157993009Y-72145222D01*
X158149534Y-72061557D01*
X158319373Y-72010037D01*
X158385557Y-72003519D01*
X158451740Y-71997000D01*
X158540260Y-71997000D01*
X158606443Y-72003519D01*
X158606443Y-72003519D01*
G37*
G36*
X156066443Y-72003519D02*
G01*
X156132627Y-72010037D01*
X156302466Y-72061557D01*
X156458991Y-72145222D01*
X156494729Y-72174552D01*
X156596186Y-72257814D01*
X156679448Y-72359271D01*
X156708778Y-72395009D01*
X156792443Y-72551534D01*
X156843963Y-72721373D01*
X156861359Y-72898000D01*
X156843963Y-73074627D01*
X156792443Y-73244466D01*
X156708778Y-73400991D01*
X156679448Y-73436729D01*
X156596186Y-73538186D01*
X156494729Y-73621448D01*
X156458991Y-73650778D01*
X156302466Y-73734443D01*
X156132627Y-73785963D01*
X156066443Y-73792481D01*
X156000260Y-73799000D01*
X155911740Y-73799000D01*
X155845557Y-73792481D01*
X155779373Y-73785963D01*
X155609534Y-73734443D01*
X155453009Y-73650778D01*
X155417271Y-73621448D01*
X155315814Y-73538186D01*
X155232552Y-73436729D01*
X155203222Y-73400991D01*
X155119557Y-73244466D01*
X155068037Y-73074627D01*
X155050641Y-72898000D01*
X155068037Y-72721373D01*
X155119557Y-72551534D01*
X155203222Y-72395009D01*
X155232552Y-72359271D01*
X155315814Y-72257814D01*
X155417271Y-72174552D01*
X155453009Y-72145222D01*
X155609534Y-72061557D01*
X155779373Y-72010037D01*
X155845557Y-72003519D01*
X155911740Y-71997000D01*
X156000260Y-71997000D01*
X156066443Y-72003519D01*
X156066443Y-72003519D01*
G37*
G36*
X153526443Y-72003519D02*
G01*
X153592627Y-72010037D01*
X153762466Y-72061557D01*
X153918991Y-72145222D01*
X153954729Y-72174552D01*
X154056186Y-72257814D01*
X154139448Y-72359271D01*
X154168778Y-72395009D01*
X154252443Y-72551534D01*
X154303963Y-72721373D01*
X154321359Y-72898000D01*
X154303963Y-73074627D01*
X154252443Y-73244466D01*
X154168778Y-73400991D01*
X154139448Y-73436729D01*
X154056186Y-73538186D01*
X153954729Y-73621448D01*
X153918991Y-73650778D01*
X153762466Y-73734443D01*
X153592627Y-73785963D01*
X153526443Y-73792481D01*
X153460260Y-73799000D01*
X153371740Y-73799000D01*
X153305557Y-73792481D01*
X153239373Y-73785963D01*
X153069534Y-73734443D01*
X152913009Y-73650778D01*
X152877271Y-73621448D01*
X152775814Y-73538186D01*
X152692552Y-73436729D01*
X152663222Y-73400991D01*
X152579557Y-73244466D01*
X152528037Y-73074627D01*
X152510641Y-72898000D01*
X152528037Y-72721373D01*
X152579557Y-72551534D01*
X152663222Y-72395009D01*
X152692552Y-72359271D01*
X152775814Y-72257814D01*
X152877271Y-72174552D01*
X152913009Y-72145222D01*
X153069534Y-72061557D01*
X153239373Y-72010037D01*
X153305557Y-72003519D01*
X153371740Y-71997000D01*
X153460260Y-71997000D01*
X153526443Y-72003519D01*
X153526443Y-72003519D01*
G37*
G36*
X150986443Y-72003519D02*
G01*
X151052627Y-72010037D01*
X151222466Y-72061557D01*
X151378991Y-72145222D01*
X151414729Y-72174552D01*
X151516186Y-72257814D01*
X151599448Y-72359271D01*
X151628778Y-72395009D01*
X151712443Y-72551534D01*
X151763963Y-72721373D01*
X151781359Y-72898000D01*
X151763963Y-73074627D01*
X151712443Y-73244466D01*
X151628778Y-73400991D01*
X151599448Y-73436729D01*
X151516186Y-73538186D01*
X151414729Y-73621448D01*
X151378991Y-73650778D01*
X151222466Y-73734443D01*
X151052627Y-73785963D01*
X150986443Y-73792481D01*
X150920260Y-73799000D01*
X150831740Y-73799000D01*
X150765557Y-73792481D01*
X150699373Y-73785963D01*
X150529534Y-73734443D01*
X150373009Y-73650778D01*
X150337271Y-73621448D01*
X150235814Y-73538186D01*
X150152552Y-73436729D01*
X150123222Y-73400991D01*
X150039557Y-73244466D01*
X149988037Y-73074627D01*
X149970641Y-72898000D01*
X149988037Y-72721373D01*
X150039557Y-72551534D01*
X150123222Y-72395009D01*
X150152552Y-72359271D01*
X150235814Y-72257814D01*
X150337271Y-72174552D01*
X150373009Y-72145222D01*
X150529534Y-72061557D01*
X150699373Y-72010037D01*
X150765557Y-72003519D01*
X150831740Y-71997000D01*
X150920260Y-71997000D01*
X150986443Y-72003519D01*
X150986443Y-72003519D01*
G37*
G36*
X148446443Y-72003519D02*
G01*
X148512627Y-72010037D01*
X148682466Y-72061557D01*
X148838991Y-72145222D01*
X148874729Y-72174552D01*
X148976186Y-72257814D01*
X149059448Y-72359271D01*
X149088778Y-72395009D01*
X149172443Y-72551534D01*
X149223963Y-72721373D01*
X149241359Y-72898000D01*
X149223963Y-73074627D01*
X149172443Y-73244466D01*
X149088778Y-73400991D01*
X149059448Y-73436729D01*
X148976186Y-73538186D01*
X148874729Y-73621448D01*
X148838991Y-73650778D01*
X148682466Y-73734443D01*
X148512627Y-73785963D01*
X148446443Y-73792481D01*
X148380260Y-73799000D01*
X148291740Y-73799000D01*
X148225557Y-73792481D01*
X148159373Y-73785963D01*
X147989534Y-73734443D01*
X147833009Y-73650778D01*
X147797271Y-73621448D01*
X147695814Y-73538186D01*
X147612552Y-73436729D01*
X147583222Y-73400991D01*
X147499557Y-73244466D01*
X147448037Y-73074627D01*
X147430641Y-72898000D01*
X147448037Y-72721373D01*
X147499557Y-72551534D01*
X147583222Y-72395009D01*
X147612552Y-72359271D01*
X147695814Y-72257814D01*
X147797271Y-72174552D01*
X147833009Y-72145222D01*
X147989534Y-72061557D01*
X148159373Y-72010037D01*
X148225557Y-72003519D01*
X148291740Y-71997000D01*
X148380260Y-71997000D01*
X148446443Y-72003519D01*
X148446443Y-72003519D01*
G37*
G36*
X145906443Y-72003519D02*
G01*
X145972627Y-72010037D01*
X146142466Y-72061557D01*
X146298991Y-72145222D01*
X146334729Y-72174552D01*
X146436186Y-72257814D01*
X146519448Y-72359271D01*
X146548778Y-72395009D01*
X146632443Y-72551534D01*
X146683963Y-72721373D01*
X146701359Y-72898000D01*
X146683963Y-73074627D01*
X146632443Y-73244466D01*
X146548778Y-73400991D01*
X146519448Y-73436729D01*
X146436186Y-73538186D01*
X146334729Y-73621448D01*
X146298991Y-73650778D01*
X146142466Y-73734443D01*
X145972627Y-73785963D01*
X145906443Y-73792481D01*
X145840260Y-73799000D01*
X145751740Y-73799000D01*
X145685557Y-73792481D01*
X145619373Y-73785963D01*
X145449534Y-73734443D01*
X145293009Y-73650778D01*
X145257271Y-73621448D01*
X145155814Y-73538186D01*
X145072552Y-73436729D01*
X145043222Y-73400991D01*
X144959557Y-73244466D01*
X144908037Y-73074627D01*
X144890641Y-72898000D01*
X144908037Y-72721373D01*
X144959557Y-72551534D01*
X145043222Y-72395009D01*
X145072552Y-72359271D01*
X145155814Y-72257814D01*
X145257271Y-72174552D01*
X145293009Y-72145222D01*
X145449534Y-72061557D01*
X145619373Y-72010037D01*
X145685557Y-72003519D01*
X145751740Y-71997000D01*
X145840260Y-71997000D01*
X145906443Y-72003519D01*
X145906443Y-72003519D01*
G37*
G36*
X143366443Y-72003519D02*
G01*
X143432627Y-72010037D01*
X143602466Y-72061557D01*
X143758991Y-72145222D01*
X143794729Y-72174552D01*
X143896186Y-72257814D01*
X143979448Y-72359271D01*
X144008778Y-72395009D01*
X144092443Y-72551534D01*
X144143963Y-72721373D01*
X144161359Y-72898000D01*
X144143963Y-73074627D01*
X144092443Y-73244466D01*
X144008778Y-73400991D01*
X143979448Y-73436729D01*
X143896186Y-73538186D01*
X143794729Y-73621448D01*
X143758991Y-73650778D01*
X143602466Y-73734443D01*
X143432627Y-73785963D01*
X143366443Y-73792481D01*
X143300260Y-73799000D01*
X143211740Y-73799000D01*
X143145557Y-73792481D01*
X143079373Y-73785963D01*
X142909534Y-73734443D01*
X142753009Y-73650778D01*
X142717271Y-73621448D01*
X142615814Y-73538186D01*
X142532552Y-73436729D01*
X142503222Y-73400991D01*
X142419557Y-73244466D01*
X142368037Y-73074627D01*
X142350641Y-72898000D01*
X142368037Y-72721373D01*
X142419557Y-72551534D01*
X142503222Y-72395009D01*
X142532552Y-72359271D01*
X142615814Y-72257814D01*
X142717271Y-72174552D01*
X142753009Y-72145222D01*
X142909534Y-72061557D01*
X143079373Y-72010037D01*
X143145557Y-72003519D01*
X143211740Y-71997000D01*
X143300260Y-71997000D01*
X143366443Y-72003519D01*
X143366443Y-72003519D01*
G37*
G36*
X140826443Y-72003519D02*
G01*
X140892627Y-72010037D01*
X141062466Y-72061557D01*
X141218991Y-72145222D01*
X141254729Y-72174552D01*
X141356186Y-72257814D01*
X141439448Y-72359271D01*
X141468778Y-72395009D01*
X141552443Y-72551534D01*
X141603963Y-72721373D01*
X141621359Y-72898000D01*
X141603963Y-73074627D01*
X141552443Y-73244466D01*
X141468778Y-73400991D01*
X141439448Y-73436729D01*
X141356186Y-73538186D01*
X141254729Y-73621448D01*
X141218991Y-73650778D01*
X141062466Y-73734443D01*
X140892627Y-73785963D01*
X140826443Y-73792481D01*
X140760260Y-73799000D01*
X140671740Y-73799000D01*
X140605557Y-73792481D01*
X140539373Y-73785963D01*
X140369534Y-73734443D01*
X140213009Y-73650778D01*
X140177271Y-73621448D01*
X140075814Y-73538186D01*
X139992552Y-73436729D01*
X139963222Y-73400991D01*
X139879557Y-73244466D01*
X139828037Y-73074627D01*
X139810641Y-72898000D01*
X139828037Y-72721373D01*
X139879557Y-72551534D01*
X139963222Y-72395009D01*
X139992552Y-72359271D01*
X140075814Y-72257814D01*
X140177271Y-72174552D01*
X140213009Y-72145222D01*
X140369534Y-72061557D01*
X140539373Y-72010037D01*
X140605557Y-72003519D01*
X140671740Y-71997000D01*
X140760260Y-71997000D01*
X140826443Y-72003519D01*
X140826443Y-72003519D01*
G37*
G36*
X138286443Y-72003519D02*
G01*
X138352627Y-72010037D01*
X138522466Y-72061557D01*
X138678991Y-72145222D01*
X138714729Y-72174552D01*
X138816186Y-72257814D01*
X138899448Y-72359271D01*
X138928778Y-72395009D01*
X139012443Y-72551534D01*
X139063963Y-72721373D01*
X139081359Y-72898000D01*
X139063963Y-73074627D01*
X139012443Y-73244466D01*
X138928778Y-73400991D01*
X138899448Y-73436729D01*
X138816186Y-73538186D01*
X138714729Y-73621448D01*
X138678991Y-73650778D01*
X138522466Y-73734443D01*
X138352627Y-73785963D01*
X138286443Y-73792481D01*
X138220260Y-73799000D01*
X138131740Y-73799000D01*
X138065557Y-73792481D01*
X137999373Y-73785963D01*
X137829534Y-73734443D01*
X137673009Y-73650778D01*
X137637271Y-73621448D01*
X137535814Y-73538186D01*
X137452552Y-73436729D01*
X137423222Y-73400991D01*
X137339557Y-73244466D01*
X137288037Y-73074627D01*
X137270641Y-72898000D01*
X137288037Y-72721373D01*
X137339557Y-72551534D01*
X137423222Y-72395009D01*
X137452552Y-72359271D01*
X137535814Y-72257814D01*
X137637271Y-72174552D01*
X137673009Y-72145222D01*
X137829534Y-72061557D01*
X137999373Y-72010037D01*
X138065557Y-72003519D01*
X138131740Y-71997000D01*
X138220260Y-71997000D01*
X138286443Y-72003519D01*
X138286443Y-72003519D01*
G37*
G36*
X135746443Y-72003519D02*
G01*
X135812627Y-72010037D01*
X135982466Y-72061557D01*
X136138991Y-72145222D01*
X136174729Y-72174552D01*
X136276186Y-72257814D01*
X136359448Y-72359271D01*
X136388778Y-72395009D01*
X136472443Y-72551534D01*
X136523963Y-72721373D01*
X136541359Y-72898000D01*
X136523963Y-73074627D01*
X136472443Y-73244466D01*
X136388778Y-73400991D01*
X136359448Y-73436729D01*
X136276186Y-73538186D01*
X136174729Y-73621448D01*
X136138991Y-73650778D01*
X135982466Y-73734443D01*
X135812627Y-73785963D01*
X135746443Y-73792481D01*
X135680260Y-73799000D01*
X135591740Y-73799000D01*
X135525557Y-73792481D01*
X135459373Y-73785963D01*
X135289534Y-73734443D01*
X135133009Y-73650778D01*
X135097271Y-73621448D01*
X134995814Y-73538186D01*
X134912552Y-73436729D01*
X134883222Y-73400991D01*
X134799557Y-73244466D01*
X134748037Y-73074627D01*
X134730641Y-72898000D01*
X134748037Y-72721373D01*
X134799557Y-72551534D01*
X134883222Y-72395009D01*
X134912552Y-72359271D01*
X134995814Y-72257814D01*
X135097271Y-72174552D01*
X135133009Y-72145222D01*
X135289534Y-72061557D01*
X135459373Y-72010037D01*
X135525557Y-72003519D01*
X135591740Y-71997000D01*
X135680260Y-71997000D01*
X135746443Y-72003519D01*
X135746443Y-72003519D01*
G37*
G36*
X128126443Y-72003519D02*
G01*
X128192627Y-72010037D01*
X128362466Y-72061557D01*
X128518991Y-72145222D01*
X128554729Y-72174552D01*
X128656186Y-72257814D01*
X128739448Y-72359271D01*
X128768778Y-72395009D01*
X128852443Y-72551534D01*
X128903963Y-72721373D01*
X128921359Y-72898000D01*
X128903963Y-73074627D01*
X128852443Y-73244466D01*
X128768778Y-73400991D01*
X128739448Y-73436729D01*
X128656186Y-73538186D01*
X128554729Y-73621448D01*
X128518991Y-73650778D01*
X128362466Y-73734443D01*
X128192627Y-73785963D01*
X128126443Y-73792481D01*
X128060260Y-73799000D01*
X127971740Y-73799000D01*
X127905557Y-73792481D01*
X127839373Y-73785963D01*
X127669534Y-73734443D01*
X127513009Y-73650778D01*
X127477271Y-73621448D01*
X127375814Y-73538186D01*
X127292552Y-73436729D01*
X127263222Y-73400991D01*
X127179557Y-73244466D01*
X127128037Y-73074627D01*
X127110641Y-72898000D01*
X127128037Y-72721373D01*
X127179557Y-72551534D01*
X127263222Y-72395009D01*
X127292552Y-72359271D01*
X127375814Y-72257814D01*
X127477271Y-72174552D01*
X127513009Y-72145222D01*
X127669534Y-72061557D01*
X127839373Y-72010037D01*
X127905557Y-72003519D01*
X127971740Y-71997000D01*
X128060260Y-71997000D01*
X128126443Y-72003519D01*
X128126443Y-72003519D01*
G37*
G36*
X133206443Y-72003519D02*
G01*
X133272627Y-72010037D01*
X133442466Y-72061557D01*
X133598991Y-72145222D01*
X133634729Y-72174552D01*
X133736186Y-72257814D01*
X133819448Y-72359271D01*
X133848778Y-72395009D01*
X133932443Y-72551534D01*
X133983963Y-72721373D01*
X134001359Y-72898000D01*
X133983963Y-73074627D01*
X133932443Y-73244466D01*
X133848778Y-73400991D01*
X133819448Y-73436729D01*
X133736186Y-73538186D01*
X133634729Y-73621448D01*
X133598991Y-73650778D01*
X133442466Y-73734443D01*
X133272627Y-73785963D01*
X133206443Y-73792481D01*
X133140260Y-73799000D01*
X133051740Y-73799000D01*
X132985557Y-73792481D01*
X132919373Y-73785963D01*
X132749534Y-73734443D01*
X132593009Y-73650778D01*
X132557271Y-73621448D01*
X132455814Y-73538186D01*
X132372552Y-73436729D01*
X132343222Y-73400991D01*
X132259557Y-73244466D01*
X132208037Y-73074627D01*
X132190641Y-72898000D01*
X132208037Y-72721373D01*
X132259557Y-72551534D01*
X132343222Y-72395009D01*
X132372552Y-72359271D01*
X132455814Y-72257814D01*
X132557271Y-72174552D01*
X132593009Y-72145222D01*
X132749534Y-72061557D01*
X132919373Y-72010037D01*
X132985557Y-72003519D01*
X133051740Y-71997000D01*
X133140260Y-71997000D01*
X133206443Y-72003519D01*
X133206443Y-72003519D01*
G37*
M02*
